<svg width="144" height="75" viewBox="0 0 144 75" fill="none" xmlns="http://www.w3.org/2000/svg">
<g opacity="0.7">
<path d="M63.6265 34.7789L63.1608 34.5968L63.6265 34.7789ZM53.6521 60.2842L53.1865 60.1021L53.6521 60.2842ZM1.5 27.4947V21H0.5V27.4947H1.5ZM12.8137 60.1021L2.83933 34.5968L1.90801 34.961L11.8824 60.4663L12.8137 60.1021ZM32.5419 72.5H30.9744V73.5H32.5419V72.5ZM32.5419 73.5H33.4583V72.5H32.5419V73.5ZM33.4583 73.5H35.0258V72.5H33.4583V73.5ZM54.1178 60.4663L64.0922 34.961L63.1608 34.5968L53.1865 60.1021L54.1178 60.4663ZM65.5002 27.4947V21H64.5002V27.4947H65.5002ZM45.0002 0.5H33.4583V1.5H45.0002V0.5ZM33.4583 0.5H32.5419V1.5H33.4583V0.5ZM21 1.5H32.5419V0.5H21V1.5ZM65.5002 21C65.5002 9.67817 56.322 0.5 45.0002 0.5V1.5C55.7697 1.5 64.5002 10.2305 64.5002 21H65.5002ZM11.8824 60.4663C14.9564 68.3269 22.5341 73.5 30.9744 73.5V72.5C22.9458 72.5 15.7378 67.5793 12.8137 60.1021L11.8824 60.4663ZM64.0922 34.961C65.0226 32.5817 65.5002 30.0495 65.5002 27.4947H64.5002C64.5002 29.9248 64.0459 32.3336 63.1608 34.5968L64.0922 34.961ZM1.5 21C1.5 10.2305 10.2305 1.5 21 1.5V0.5C9.67817 0.5 0.5 9.67817 0.5 21H1.5ZM35.0258 73.5C43.4661 73.5 51.0437 68.3269 54.1178 60.4663L53.1865 60.1021C50.2624 67.5793 43.0544 72.5 35.0258 72.5V73.5ZM0.5 27.4947C0.5 30.0495 0.977537 32.5817 1.90801 34.961L2.83933 34.5968C1.95424 32.3336 1.5 29.9248 1.5 27.4947H0.5Z" fill="white"/>
<mask id="path-2-inside-1_172:152" fill="white">
<path fill-rule="evenodd" clip-rule="evenodd" d="M9.06836 25.0627C10.9726 23.1368 14.2353 21.8668 17.9405 21.8668C21.6458 21.8668 24.9085 23.1368 26.8127 25.0627C24.9085 26.9886 21.6458 28.2585 17.9405 28.2585C14.2353 28.2585 10.9726 26.9886 9.06836 25.0627Z"/>
</mask>
<path d="M9.06836 25.0627L8.35726 24.3596L7.66208 25.0627L8.35726 25.7658L9.06836 25.0627ZM26.8127 25.0627L27.5238 25.7658L28.219 25.0627L27.5238 24.3596L26.8127 25.0627ZM9.77946 25.7658C11.4545 24.0716 14.4373 22.8668 17.9405 22.8668V20.8668C14.0333 20.8668 10.4907 22.2019 8.35726 24.3596L9.77946 25.7658ZM17.9405 22.8668C21.4437 22.8668 24.4265 24.0716 26.1016 25.7658L27.5238 24.3596C25.3904 22.2019 21.8478 20.8668 17.9405 20.8668V22.8668ZM26.1016 24.3596C24.4265 26.0537 21.4437 27.2585 17.9405 27.2585V29.2585C21.8478 29.2585 25.3904 27.9235 27.5238 25.7658L26.1016 24.3596ZM17.9405 27.2585C14.4373 27.2585 11.4545 26.0537 9.77946 24.3596L8.35726 25.7658C10.4907 27.9235 14.0333 29.2585 17.9405 29.2585V27.2585Z" fill="white" mask="url(#path-2-inside-1_172:152)"/>
<mask id="path-4-inside-2_172:152" fill="white">
<path fill-rule="evenodd" clip-rule="evenodd" d="M38.4453 25.0627C40.3496 23.1368 43.6123 21.8668 47.3175 21.8668C51.0227 21.8668 54.2854 23.1368 56.1897 25.0627C54.2854 26.9886 51.0227 28.2585 47.3175 28.2585C43.6123 28.2585 40.3496 26.9886 38.4453 25.0627Z"/>
</mask>
<path d="M38.4453 25.0627L37.7342 24.3596L37.039 25.0627L37.7342 25.7658L38.4453 25.0627ZM56.1897 25.0627L56.9008 25.7658L57.5959 25.0627L56.9008 24.3596L56.1897 25.0627ZM39.1564 25.7658C40.8315 24.0716 43.8143 22.8668 47.3175 22.8668V20.8668C43.4102 20.8668 39.8676 22.2019 37.7342 24.3596L39.1564 25.7658ZM47.3175 22.8668C50.8207 22.8668 53.8035 24.0716 55.4786 25.7658L56.9008 24.3596C54.7673 22.2019 51.2247 20.8668 47.3175 20.8668V22.8668ZM55.4786 24.3596C53.8035 26.0537 50.8207 27.2585 47.3175 27.2585V29.2585C51.2247 29.2585 54.7673 27.9235 56.9008 25.7658L55.4786 24.3596ZM47.3175 27.2585C43.8143 27.2585 40.8315 26.0537 39.1564 24.3596L37.7342 25.7658C39.8676 27.9235 43.4102 29.2585 47.3175 29.2585V27.2585Z" fill="white" mask="url(#path-4-inside-2_172:152)"/>
<path d="M49.9152 13.607C46.2476 13.7574 40.8073 17.4295 38.5456 19.2467L37.4453 20.7506L37.9955 22.6305C40.5628 20.6879 46.541 16.5396 49.9152 15.4869C53.2894 14.4342 56.2112 15.0483 57.2504 15.4869C56.3335 14.7976 53.5828 13.4566 49.9152 13.607Z" fill="white" stroke="white"/>
<path d="M16.4032 13.607C20.0708 13.7574 25.5111 17.4295 27.7728 19.2467L28.873 20.7506L28.3229 22.6305C25.7556 20.6879 19.7774 16.5396 16.4032 15.4869C13.029 14.4342 10.1071 15.0483 9.06799 15.4869C9.98489 14.7976 12.7356 13.4566 16.4032 13.607Z" fill="white" stroke="white"/>
<path d="M20.2544 50.2533L12.2109 43.1744L20.2544 53.0731H43.9104L54.5465 44.4256L43.9104 50.2533H20.2544Z" stroke="white"/>
<path d="M40.6172 35.1412C42.1454 36.0812 46.412 38.6754 51.2532 41.5329C56.0945 44.3903 57.427 47.4859 57.4882 48.6765" stroke="white"/>
<path d="M25.1641 35.1412C23.6359 36.0812 19.3693 38.6754 14.528 41.5329C9.68678 44.3903 8.35422 47.4859 8.29309 48.6765" stroke="white"/>
<path d="M58.0822 33.8982C58.0822 35.5027 56.8165 36.782 55.2813 36.782C53.7461 36.782 52.4805 35.5027 52.4805 33.8982C52.4805 32.2938 53.7461 31.0144 55.2813 31.0144C56.8165 31.0144 58.0822 32.2938 58.0822 33.8982Z" stroke="white"/>
<path d="M13.3361 34.2742C13.3361 35.8787 12.0705 37.158 10.5352 37.158C8.99998 37.158 7.73438 35.8787 7.73438 34.2742C7.73438 32.6697 8.99998 31.3904 10.5352 31.3904C12.0705 31.3904 13.3361 32.6697 13.3361 34.2742Z" stroke="white"/>
<path d="M36.4453 54H29.4453L33.0231 70L36.4453 54Z" fill="white"/>
<path d="M26.9043 19.0747V19.0747C28.9923 19.9772 30.2835 22.099 30.1256 24.3682L29.0986 39.1323L28.392 40.2881C27.8588 41.1602 28.069 42.2939 28.8793 42.9169L30.3886 44.0773H32.2224" stroke="white"/>
<path d="M35.7197 43.6765L38.1686 42.1703" stroke="white"/>
<path d="M24.5644 45.8017L16.1289 40.162L22.914 48.8095H30.2492L31.8996 44.2978L29.8824 45.8017H24.5644Z" fill="white"/>
<path d="M24.5644 45.8017L16.1289 40.162L22.914 48.8095H30.2492L31.8996 44.2978L29.8824 45.8017H24.5644Z" fill="white"/>
<path d="M39.1368 45.8017L47.5723 40.162L40.7872 48.8095H33.452L31.8016 44.2978L33.8188 45.8017H39.1368Z" fill="white"/>
<path d="M39.1368 45.8017L47.5723 40.162L40.7872 48.8095H33.452L31.8016 44.2978L33.8188 45.8017H39.1368Z" fill="white"/>
</g>
<g opacity="0.7">
<path d="M141.626 35.7789L141.161 35.5968L141.626 35.7789ZM131.652 61.2842L131.186 61.1021L131.652 61.2842ZM79.5 28.4947V22H78.5V28.4947H79.5ZM90.8137 61.1021L80.8393 35.5968L79.908 35.961L89.8824 61.4663L90.8137 61.1021ZM110.542 73.5H108.974V74.5H110.542V73.5ZM110.542 74.5H111.458V73.5H110.542V74.5ZM111.458 74.5H113.026V73.5H111.458V74.5ZM132.118 61.4663L142.092 35.961L141.161 35.5968L131.186 61.1021L132.118 61.4663ZM143.5 28.4947V22H142.5V28.4947H143.5ZM123 1.5H111.458V2.5H123V1.5ZM111.458 1.5H110.542V2.5H111.458V1.5ZM99 2.5H110.542V1.5H99V2.5ZM143.5 22C143.5 10.6782 134.322 1.5 123 1.5V2.5C133.77 2.5 142.5 11.2305 142.5 22H143.5ZM89.8824 61.4663C92.9564 69.3269 100.534 74.5 108.974 74.5V73.5C100.946 73.5 93.7378 68.5793 90.8137 61.1021L89.8824 61.4663ZM142.092 35.961C143.023 33.5817 143.5 31.0495 143.5 28.4947H142.5C142.5 30.9248 142.046 33.3336 141.161 35.5968L142.092 35.961ZM79.5 22C79.5 11.2305 88.2305 2.5 99 2.5V1.5C87.6782 1.5 78.5 10.6782 78.5 22H79.5ZM113.026 74.5C121.466 74.5 129.044 69.3269 132.118 61.4663L131.186 61.1021C128.262 68.5793 121.054 73.5 113.026 73.5V74.5ZM78.5 28.4947C78.5 31.0495 78.9775 33.5817 79.908 35.961L80.8393 35.5968C79.9542 33.3336 79.5 30.9248 79.5 28.4947H78.5Z" fill="white"/>
<mask id="path-19-inside-3_172:152" fill="white">
<path fill-rule="evenodd" clip-rule="evenodd" d="M87.0684 26.0627C88.9726 24.1368 92.2353 22.8668 95.9405 22.8668C99.6458 22.8668 102.908 24.1368 104.813 26.0627C102.908 27.9886 99.6458 29.2585 95.9405 29.2585C92.2353 29.2585 88.9726 27.9886 87.0684 26.0627Z"/>
</mask>
<path d="M87.0684 26.0627L86.3573 25.3596L85.6621 26.0627L86.3573 26.7658L87.0684 26.0627ZM104.813 26.0627L105.524 26.7658L106.219 26.0627L105.524 25.3596L104.813 26.0627ZM87.7795 26.7658C89.4545 25.0716 92.4373 23.8668 95.9405 23.8668V21.8668C92.0333 21.8668 88.4907 23.2019 86.3573 25.3596L87.7795 26.7658ZM95.9405 23.8668C99.4437 23.8668 102.427 25.0716 104.102 26.7658L105.524 25.3596C103.39 23.2019 99.8478 21.8668 95.9405 21.8668V23.8668ZM104.102 25.3596C102.427 27.0537 99.4437 28.2585 95.9405 28.2585V30.2585C99.8478 30.2585 103.39 28.9235 105.524 26.7658L104.102 25.3596ZM95.9405 28.2585C92.4373 28.2585 89.4545 27.0537 87.7795 25.3596L86.3573 26.7658C88.4907 28.9235 92.0333 30.2585 95.9405 30.2585V28.2585Z" fill="white" mask="url(#path-19-inside-3_172:152)"/>
<mask id="path-21-inside-4_172:152" fill="white">
<path fill-rule="evenodd" clip-rule="evenodd" d="M116.445 26.0627C118.35 24.1368 121.612 22.8668 125.317 22.8668C129.023 22.8668 132.285 24.1368 134.19 26.0627C132.285 27.9886 129.023 29.2585 125.317 29.2585C121.612 29.2585 118.35 27.9886 116.445 26.0627Z"/>
</mask>
<path d="M116.445 26.0627L115.734 25.3596L115.039 26.0627L115.734 26.7658L116.445 26.0627ZM134.19 26.0627L134.901 26.7658L135.596 26.0627L134.901 25.3596L134.19 26.0627ZM117.156 26.7658C118.831 25.0716 121.814 23.8668 125.317 23.8668V21.8668C121.41 21.8668 117.868 23.2019 115.734 25.3596L117.156 26.7658ZM125.317 23.8668C128.821 23.8668 131.803 25.0716 133.479 26.7658L134.901 25.3596C132.767 23.2019 129.225 21.8668 125.317 21.8668V23.8668ZM133.479 25.3596C131.803 27.0537 128.821 28.2585 125.317 28.2585V30.2585C129.225 30.2585 132.767 28.9235 134.901 26.7658L133.479 25.3596ZM125.317 28.2585C121.814 28.2585 118.831 27.0537 117.156 25.3596L115.734 26.7658C117.868 28.9235 121.41 30.2585 125.317 30.2585V28.2585Z" fill="white" mask="url(#path-21-inside-4_172:152)"/>
<path d="M127.915 14.607C124.248 14.7574 118.807 18.4295 116.546 20.2467L115.445 21.7506L115.995 23.6305C118.563 21.6879 124.541 17.5396 127.915 16.4869C131.289 15.4342 134.211 16.0483 135.25 16.4869C134.333 15.7976 131.583 14.4566 127.915 14.607Z" fill="white" stroke="white"/>
<path d="M94.4032 14.607C98.0708 14.7574 103.511 18.4295 105.773 20.2467L106.873 21.7506L106.323 23.6305C103.756 21.6879 97.7774 17.5396 94.4032 16.4869C91.029 15.4342 88.1071 16.0483 87.068 16.4869C87.9849 15.7976 90.7356 14.4566 94.4032 14.607Z" fill="white" stroke="white"/>
<path d="M98.2544 51.2533L90.2109 44.1744L98.2544 54.0731H121.91L132.546 45.4256L121.91 51.2533H98.2544Z" stroke="white"/>
<path d="M118.617 36.1412C120.145 37.0812 124.412 39.6754 129.253 42.5329C134.094 45.3903 135.427 48.4859 135.488 49.6765" stroke="white"/>
<path d="M103.164 36.1412C101.636 37.0812 97.3693 39.6754 92.528 42.5329C87.6868 45.3903 86.3542 48.4859 86.2931 49.6765" stroke="white"/>
<path d="M136.082 34.8982C136.082 36.5027 134.817 37.782 133.281 37.782C131.746 37.782 130.48 36.5027 130.48 34.8982C130.48 33.2938 131.746 32.0144 133.281 32.0144C134.817 32.0144 136.082 33.2938 136.082 34.8982Z" stroke="white"/>
<path d="M91.3361 35.2742C91.3361 36.8787 90.0705 38.158 88.5352 38.158C87 38.158 85.7344 36.8787 85.7344 35.2742C85.7344 33.6697 87 32.3904 88.5352 32.3904C90.0705 32.3904 91.3361 33.6697 91.3361 35.2742Z" stroke="white"/>
<path d="M114.445 55H107.445L111.023 71L114.445 55Z" fill="white"/>
<path d="M104.904 20.0747V20.0747C106.992 20.9772 108.283 23.099 108.126 25.3682L107.099 40.1323L106.392 41.2881C105.859 42.1602 106.069 43.2939 106.879 43.9169L108.389 45.0773H110.222" stroke="white"/>
<path d="M113.72 44.6765L116.169 43.1703" stroke="white"/>
<path d="M102.564 46.8017L94.1289 41.162L100.914 49.8095H108.249L109.9 45.2978L107.882 46.8017H102.564Z" fill="white"/>
<path d="M102.564 46.8017L94.1289 41.162L100.914 49.8095H108.249L109.9 45.2978L107.882 46.8017H102.564Z" fill="white"/>
<path d="M117.137 46.8017L125.572 41.162L118.787 49.8095H111.452L109.802 45.2978L111.819 46.8017H117.137Z" fill="white"/>
<path d="M117.137 46.8017L125.572 41.162L118.787 49.8095H111.452L109.802 45.2978L111.819 46.8017H117.137Z" fill="white"/>
</g>
</svg>
