<svg width="82" height="77" viewBox="0 0 82 77" fill="none" xmlns="http://www.w3.org/2000/svg">
<path d="M1 41C1 18.9086 18.9086 1 41 1C63.0914 1 81 18.9086 81 41V64H1V41Z" fill="black"/>
<path d="M81 63V41C81 18.9086 63.0914 1 41 1C18.9086 1 1 19.9086 1 42V63" stroke="#FF6B6B"/>
<path d="M37.3119 45.2832C37.1416 47.0679 35.5568 48.3766 33.7721 48.2063C31.9874 48.0361 30.6786 46.4512 30.8489 44.6665C31.0192 42.8818 32.604 41.5731 34.3887 41.7434C36.1734 41.9136 37.4822 43.4985 37.3119 45.2832Z" fill="url(#paint0_radial_582_293)"/>
<path fill-rule="evenodd" clip-rule="evenodd" d="M54.1443 23.7444L54.5944 23.5021C54.8237 23.3787 55.0123 23.1783 55.1177 22.9179C55.3575 22.3257 55.0718 21.6512 54.4795 21.4114L36.0521 13.9504C35.4598 13.7106 34.7853 13.9963 34.5455 14.5885C34.4402 14.8488 34.4362 15.1239 34.5149 15.372L34.6697 15.8595L34.159 15.8876C34.0737 15.8923 33.996 15.9451 33.9624 16.028C33.9363 16.0924 33.9419 16.1614 33.9729 16.2192L34.3274 16.8792L34.1869 16.8644L53.7925 24.8025L53.6805 24.7147L54.394 24.4875C54.4565 24.4676 54.5085 24.4218 54.5346 24.3574C54.5681 24.2745 54.5491 24.1827 54.4911 24.1199L54.1443 23.7444ZM55.1058 23.6191C55.2662 23.4695 55.3973 23.2834 55.485 23.0667C55.8069 22.2716 55.4233 21.3661 54.6283 21.0441L36.2008 13.5831C35.4057 13.2611 34.5002 13.6447 34.1782 14.4398C34.0905 14.6564 34.0552 14.8812 34.0663 15.1002C34.073 15.234 34.0971 15.3656 34.1372 15.4919C34.0317 15.4977 33.9297 15.5305 33.8409 15.586C33.7338 15.653 33.6461 15.7532 33.5951 15.8793C33.5777 15.9221 33.5655 15.9658 33.5581 16.0095C33.5348 16.1478 33.5597 16.2874 33.6238 16.4067C33.4991 16.3936 33.3756 16.4575 33.316 16.572C33.3114 16.5808 33.3073 16.5898 33.3035 16.5991C33.2391 16.7582 33.3158 16.9393 33.4748 17.0037L54.2057 25.3974C54.3648 25.4617 54.5459 25.385 54.6103 25.226C54.614 25.2166 54.6173 25.2072 54.6202 25.1977C54.657 25.0741 54.6128 24.9424 54.5142 24.8651C54.6433 24.8239 54.7583 24.7411 54.8377 24.6255C54.8629 24.5889 54.8845 24.549 54.9019 24.5061C54.9529 24.38 54.9596 24.2469 54.9292 24.1242C54.9041 24.0228 54.8538 23.9285 54.7822 23.8511C54.8989 23.7883 55.0078 23.7105 55.1058 23.6191Z" fill="url(#paint1_linear_582_293)"/>
<path fill-rule="evenodd" clip-rule="evenodd" d="M36.2715 14.236C36.373 14.277 36.4219 14.3926 36.3808 14.494L35.7979 15.9336C35.7569 16.0351 35.6414 16.084 35.5399 16.0429C35.4385 16.0019 35.3896 15.8864 35.4306 15.7849L36.0135 14.3453C36.0546 14.2438 36.1701 14.1949 36.2715 14.236Z" fill="#FF6B6B"/>
<path fill-rule="evenodd" clip-rule="evenodd" d="M37.2794 14.6437C37.3808 14.6848 37.4297 14.8003 37.3887 14.9017L36.8058 16.3414C36.7647 16.4428 36.6492 16.4917 36.5477 16.4506C36.4463 16.4096 36.3974 16.2941 36.4384 16.1926L37.0213 14.753C37.0624 14.6516 37.1779 14.6026 37.2794 14.6437Z" fill="#FF6B6B"/>
<path fill-rule="evenodd" clip-rule="evenodd" d="M38.4307 15.1098C38.5322 15.1508 38.5811 15.2663 38.54 15.3678L37.9571 16.8074C37.9161 16.9088 37.8005 16.9578 37.6991 16.9167C37.5977 16.8756 37.5487 16.7601 37.5898 16.6587L38.1727 15.2191C38.2138 15.1176 38.3293 15.0687 38.4307 15.1098Z" fill="#FF6B6B"/>
<path fill-rule="evenodd" clip-rule="evenodd" d="M39.4385 15.518C39.54 15.559 39.5889 15.6745 39.5478 15.776L38.9649 17.2156C38.9239 17.3171 38.8084 17.366 38.7069 17.3249C38.6055 17.2838 38.5566 17.1683 38.5976 17.0669L39.1805 15.6273C39.2216 15.5258 39.3371 15.4769 39.4385 15.518Z" fill="#FF6B6B"/>
<path fill-rule="evenodd" clip-rule="evenodd" d="M40.4473 15.9259C40.5488 15.967 40.5977 16.0825 40.5566 16.1839L39.9737 17.6236C39.9327 17.725 39.8171 17.7739 39.7157 17.7329C39.6143 17.6918 39.5653 17.5763 39.6064 17.4749L40.1893 16.0352C40.2304 15.9338 40.3459 15.8849 40.4473 15.9259Z" fill="#FF6B6B"/>
<path fill-rule="evenodd" clip-rule="evenodd" d="M41.4542 16.3339C41.5556 16.3749 41.6045 16.4905 41.5635 16.5919L40.9806 18.0315C40.9395 18.133 40.824 18.1819 40.7225 18.1408C40.6211 18.0998 40.5722 17.9843 40.6133 17.8828L41.1961 16.4432C41.2372 16.3417 41.3527 16.2928 41.4542 16.3339Z" fill="#FF6B6B"/>
<path fill-rule="evenodd" clip-rule="evenodd" d="M42.6065 16.8004C42.7079 16.8415 42.7569 16.957 42.7158 17.0584L42.1329 18.4981C42.0918 18.5995 41.9763 18.6485 41.8749 18.6074C41.7735 18.5663 41.7245 18.4508 41.7656 18.3494L42.3485 16.9097C42.3896 16.8083 42.5051 16.7594 42.6065 16.8004Z" fill="#FF6B6B"/>
<path fill-rule="evenodd" clip-rule="evenodd" d="M43.6143 17.2086C43.7157 17.2497 43.7647 17.3652 43.7236 17.4667L43.1407 18.9063C43.0996 19.0077 42.9841 19.0567 42.8827 19.0156C42.7813 18.9745 42.7323 18.859 42.7734 18.7576L43.3563 17.3179C43.3974 17.2165 43.5129 17.1676 43.6143 17.2086Z" fill="#FF6B6B"/>
<path fill-rule="evenodd" clip-rule="evenodd" d="M44.6221 17.6166C44.7236 17.6577 44.7725 17.7732 44.7314 17.8746L44.1485 19.3143C44.1075 19.4157 43.9919 19.4646 43.8905 19.4236C43.7891 19.3825 43.7402 19.267 43.7812 19.1655L44.3641 17.7259C44.4052 17.6245 44.5207 17.5755 44.6221 17.6166Z" fill="#FF6B6B"/>
<path fill-rule="evenodd" clip-rule="evenodd" d="M45.7735 18.0827C45.8749 18.1237 45.9239 18.2392 45.8828 18.3407L45.2999 19.7803C45.2588 19.8817 45.1433 19.9307 45.0419 19.8896C44.9405 19.8485 44.8915 19.733 44.9326 19.6316L45.5155 18.192C45.5566 18.0905 45.6721 18.0416 45.7735 18.0827Z" fill="#FF6B6B"/>
<path fill-rule="evenodd" clip-rule="evenodd" d="M46.7813 18.4909C46.8827 18.5319 46.9317 18.6474 46.8906 18.7489L46.3077 20.1885C46.2666 20.29 46.1511 20.3389 46.0497 20.2978C45.9483 20.2568 45.8993 20.1412 45.9404 20.0398L46.5233 18.6002C46.5644 18.4987 46.6799 18.4498 46.7813 18.4909Z" fill="#FF6B6B"/>
<path fill-rule="evenodd" clip-rule="evenodd" d="M47.7891 18.8988C47.8906 18.9399 47.9395 19.0554 47.8984 19.1568L47.3155 20.5965C47.2745 20.6979 47.1589 20.7468 47.0575 20.7058C46.9561 20.6647 46.9071 20.5492 46.9482 20.4478L47.5311 19.0081C47.5722 18.9067 47.6877 18.8578 47.7891 18.8988Z" fill="#FF6B6B"/>
<path fill-rule="evenodd" clip-rule="evenodd" d="M48.9405 19.3651C49.0419 19.4062 49.0909 19.5217 49.0498 19.6231L48.4669 21.0628C48.4258 21.1642 48.3103 21.2132 48.2089 21.1721C48.1074 21.131 48.0585 21.0155 48.0996 20.9141L48.6825 19.4744C48.7235 19.373 48.8391 19.3241 48.9405 19.3651Z" fill="#FF6B6B"/>
<path fill-rule="evenodd" clip-rule="evenodd" d="M49.9483 19.7731C50.0497 19.8142 50.0987 19.9297 50.0576 20.0311L49.4747 21.4707C49.4336 21.5722 49.3181 21.6211 49.2167 21.58C49.1153 21.539 49.0663 21.4235 49.1074 21.322L49.6903 19.8824C49.7314 19.781 49.8469 19.732 49.9483 19.7731Z" fill="#FF6B6B"/>
<path fill-rule="evenodd" clip-rule="evenodd" d="M50.9561 20.181C51.0575 20.2221 51.1065 20.3376 51.0654 20.4391L50.4825 21.8787C50.4414 21.9801 50.3259 22.0291 50.2245 21.988C50.1231 21.9469 50.0741 21.8314 50.1152 21.73L50.6981 20.2903C50.7392 20.1889 50.8547 20.14 50.9561 20.181Z" fill="#FF6B6B"/>
<path fill-rule="evenodd" clip-rule="evenodd" d="M51.9639 20.5893C52.0654 20.6303 52.1143 20.7458 52.0732 20.8473L51.4903 22.2869C51.4493 22.3883 51.3337 22.4373 51.2323 22.3962C51.1309 22.3551 51.082 22.2396 51.123 22.1382L51.7059 20.6985C51.747 20.5971 51.8625 20.5482 51.9639 20.5893Z" fill="#FF6B6B"/>
<path fill-rule="evenodd" clip-rule="evenodd" d="M53.1163 21.0556C53.2177 21.0966 53.2666 21.2121 53.2256 21.3136L52.6427 22.7532C52.6016 22.8546 52.4861 22.9036 52.3847 22.8625C52.2832 22.8214 52.2343 22.7059 52.2754 22.6045L52.8583 21.1649C52.8993 21.0634 53.0148 21.0145 53.1163 21.0556Z" fill="#FF6B6B"/>
<path fill-rule="evenodd" clip-rule="evenodd" d="M54.1241 21.4635C54.2255 21.5046 54.2744 21.6201 54.2334 21.7215L53.6505 23.1612C53.6094 23.2626 53.4939 23.3115 53.3925 23.2705C53.291 23.2294 53.2421 23.1139 53.2832 23.0125L53.8661 21.5728C53.9071 21.4714 54.0227 21.4225 54.1241 21.4635Z" fill="#FF6B6B"/>
<path fill-rule="evenodd" clip-rule="evenodd" d="M33.7108 16.5128C33.7519 16.4113 33.8674 16.3624 33.9688 16.4035L38.2877 18.1521C38.3892 18.1932 38.4381 18.3087 38.397 18.4102C38.356 18.5116 38.2405 18.5605 38.139 18.5195L33.8201 16.7708C33.7187 16.7297 33.6697 16.6142 33.7108 16.5128Z" fill="url(#paint2_linear_582_293)"/>
<path fill-rule="evenodd" clip-rule="evenodd" d="M49.6388 21.8724C49.6799 21.7709 49.7954 21.722 49.8968 21.7631L54.9356 23.8032C55.037 23.8443 55.086 23.9598 55.0449 24.0612C55.0038 24.1627 54.8883 24.2116 54.7869 24.1705L49.7481 22.1304C49.6467 22.0893 49.5978 21.9738 49.6388 21.8724ZM44.9565 20.8144C44.9975 20.7129 45.113 20.664 45.2145 20.7051L50.6851 22.9201C50.7866 22.9611 50.8355 23.0767 50.7944 23.1781C50.7534 23.2795 50.6378 23.3285 50.5364 23.2874L45.0658 21.0724C44.9643 21.0313 44.9154 20.9158 44.9565 20.8144Z" fill="url(#paint3_linear_582_293)"/>
<path fill-rule="evenodd" clip-rule="evenodd" d="M29.5149 28.4102V28.9369C29.5149 29.6319 29.3113 30.3116 28.9294 30.8913C27.2781 33.3983 26.3977 36.3373 26.3977 39.3426V73.007C26.3977 74.1084 27.1598 75.0621 28.231 75.301C36.0005 77.0341 44.0543 77.0341 51.8238 75.301C52.895 75.0621 53.6571 74.1084 53.6571 73.007V39.3426C53.6571 36.3373 52.7767 33.3983 51.1254 30.8913C50.7435 30.3116 50.5399 29.6319 50.5399 28.9369V28.4102L50.7566 28.299C50.9063 28.2221 51.0075 28.0665 51.0075 27.8878C51.0075 27.633 50.8017 27.4265 50.5479 27.4265H29.5068C29.253 27.4265 29.0472 27.633 29.0472 27.8878C29.0472 28.0665 29.1484 28.2222 29.2982 28.299L29.5149 28.4102ZM28.6496 27.8878C28.6496 27.4126 29.0334 27.0273 29.5068 27.0273H50.5479C51.0213 27.0273 51.4051 27.4126 51.4051 27.8878C51.4051 28.2221 51.2151 28.5119 50.9376 28.6544V28.9369C50.9376 29.5536 51.1183 30.1568 51.4571 30.6712C53.1514 33.2435 54.0548 36.259 54.0548 39.3426V73.007C54.0548 74.2955 53.1632 75.4111 51.9101 75.6907C44.0838 77.4364 35.971 77.4364 28.1447 75.6907C26.8916 75.4111 26 74.2955 26 73.007V39.3426C26 36.259 26.9034 33.2435 28.5977 30.6712C28.9365 30.1568 29.1172 29.5536 29.1172 28.9369V28.6544C28.8396 28.512 28.6496 28.2222 28.6496 27.8878Z" fill="url(#paint4_linear_582_293)"/>
<path fill-rule="evenodd" clip-rule="evenodd" d="M51.7806 73.7045C51.9068 73.5768 51.9119 73.5065 51.9119 73.4932C51.9119 73.4799 51.9068 73.4095 51.7806 73.2819C51.6551 73.1551 51.448 73.0124 51.1451 72.8643C50.5421 72.5693 49.6451 72.2932 48.5067 72.0577C46.2362 71.5879 43.0832 71.2947 39.5893 71.2947C36.0953 71.2947 32.9423 71.5879 30.6719 72.0577C29.5334 72.2932 28.6365 72.5693 28.0334 72.8643C27.7305 73.0124 27.5234 73.1551 27.398 73.2819C27.2718 73.4095 27.2667 73.4799 27.2667 73.4932C27.2667 73.5065 27.2718 73.5768 27.398 73.7045C27.5234 73.8313 27.7305 73.9739 28.0334 74.1221C28.6365 74.4171 29.5334 74.6931 30.6719 74.9287C32.9423 75.3984 36.0953 75.6917 39.5893 75.6917C43.0832 75.6917 46.2362 75.3984 48.5067 74.9287C49.6451 74.6931 50.5421 74.4171 51.1451 74.1221C51.448 73.9739 51.6551 73.8313 51.7806 73.7045ZM39.5893 76.1233C46.6101 76.1233 52.3016 74.9458 52.3016 73.4932C52.3016 72.0406 46.6101 70.863 39.5893 70.863C32.5685 70.863 26.877 72.0406 26.877 73.4932C26.877 74.9458 32.5685 76.1233 39.5893 76.1233Z" fill="url(#paint5_linear_582_293)"/>
<defs>
<radialGradient id="paint0_radial_582_293" cx="0" cy="0" r="1" gradientUnits="userSpaceOnUse" gradientTransform="translate(34.0804 44.9749) rotate(95.45) scale(3.24616)">
<stop stop-color="#FF6B6B"/>
<stop offset="1" stop-color="#FF6B6B" stop-opacity="0"/>
</radialGradient>
<linearGradient id="paint1_linear_582_293" x1="45.4143" y1="17.3135" x2="43.8405" y2="21.2006" gradientUnits="userSpaceOnUse">
<stop stop-color="#FF6B6B"/>
<stop offset="1" stop-color="#FF6B6B" stop-opacity="0.2"/>
</linearGradient>
<linearGradient id="paint2_linear_582_293" x1="36.0539" y1="17.4615" x2="35.9052" y2="17.8288" gradientUnits="userSpaceOnUse">
<stop stop-color="#FF6B6B"/>
<stop offset="1" stop-color="#FF6B6B"/>
</linearGradient>
<linearGradient id="paint3_linear_582_293" x1="50.1464" y1="22.0779" x2="49.855" y2="22.7977" gradientUnits="userSpaceOnUse">
<stop stop-color="#FF6B6B"/>
<stop offset="1" stop-color="#FF6B6B"/>
</linearGradient>
<linearGradient id="paint4_linear_582_293" x1="40.0274" y1="27.0273" x2="40.0274" y2="76.9999" gradientUnits="userSpaceOnUse">
<stop stop-color="#FF6B6B"/>
<stop offset="1" stop-color="#FF6B6B" stop-opacity="0.6"/>
</linearGradient>
<linearGradient id="paint5_linear_582_293" x1="39.5893" y1="70.863" x2="39.5893" y2="76.1233" gradientUnits="userSpaceOnUse">
<stop stop-color="#FF6B6B"/>
<stop offset="1" stop-color="#FF6B6B" stop-opacity="0"/>
</linearGradient>
</defs>
</svg>
