<svg width="63" height="40" viewBox="0 0 63 40" fill="none" xmlns="http://www.w3.org/2000/svg">
<g clip-path="url(#clip0_551_1948)">
<path fill-rule="evenodd" clip-rule="evenodd" d="M37.0501 40H24.966H23.8592V39.3375C23.8521 32.753 21.3849 26.4167 16.9561 21.6091C12.5272 16.8015 6.46699 13.8809 1.15643e-06 13.4375L0 5.50757e-06C9.97106 0.450487 19.3871 4.78974 26.2882 12.1146C28.07 14.0059 29.6489 16.0586 31.0107 18.2378C32.3722 16.0599 33.9504 14.0083 35.7313 12.118C42.6319 4.79371 52.0461 0.453516 62.0162 0V13.4375C55.5492 13.8809 49.489 16.8015 45.0602 21.6091C40.6313 26.4167 38.1641 32.753 38.157 39.3375V40H37.0501Z" fill="url(#paint0_linear_551_1948)"/>
<path fill-rule="evenodd" clip-rule="evenodd" d="M24.9908 0H37.05H38.1815V0.662499C38.1887 7.24695 40.656 13.5833 45.0848 18.3909C49.5137 23.1985 55.5738 26.1191 62.0408 26.5625V40C52.0697 39.5495 42.6538 35.2103 35.7526 27.8854C33.9654 25.9884 32.3825 23.929 31.0178 21.7425C29.6534 23.9277 28.0711 25.986 26.2848 27.882C19.3843 35.2062 9.97003 39.5465 0 40V26.5625C6.46697 26.1191 12.5272 23.1985 16.956 18.3909C21.3849 13.5833 23.8521 7.24695 23.8592 0.662499V0H24.9908Z" fill="url(#paint1_linear_551_1948)"/>
</g>
<defs>
<linearGradient id="paint0_linear_551_1948" x1="31.1191" y1="16.25" x2="31.1191" y2="42.5" gradientUnits="userSpaceOnUse">
<stop stop-color="#BCFF67"/>
<stop offset="1" stop-color="#17FFE3"/>
</linearGradient>
<linearGradient id="paint1_linear_551_1948" x1="31.6356" y1="23.75" x2="31.6356" y2="-2.5" gradientUnits="userSpaceOnUse">
<stop stop-color="#BCFF67"/>
<stop offset="1" stop-color="#17FFE3"/>
</linearGradient>
<clipPath id="clip0_551_1948">
<rect width="62.0408" height="40" fill="white"/>
</clipPath>
</defs>
</svg>
