<svg width="319" height="20" viewBox="0 0 319 20" fill="none" xmlns="http://www.w3.org/2000/svg">
<path d="M13.3156 9.02796C11.8242 5.53928 10.2264 1.91744 9.77363 0.878828L9.45406 0.159786C9.42743 0.079894 9.34754 0.0266308 9.24101 0.0266308H7.45672C7.3502 0.0266308 7.27031 0.079894 7.21704 0.159786L6.89747 0.878828C6.44474 1.91744 4.8735 5.53928 3.38216 9.02796C2.34354 11.4514 1.33156 13.8216 0.639148 15.3395C0.0798935 16.5912 0 18.1358 0 19.7337C0 19.8935 0.0798934 19.9734 0.23968 19.9734L2.63648 20L2.74301 19.9201C2.8229 19.8402 2.87616 19.8402 2.87616 19.7603C2.87616 18.9348 2.95606 17.3369 3.30226 16.5113C3.43542 16.2184 3.54194 15.8988 3.72836 15.5526C3.75499 15.4461 3.83489 15.3928 3.96804 15.3928H12.7297C12.8362 15.3928 12.9161 15.4461 12.9427 15.5526C13.1292 15.8988 13.2357 16.2184 13.3688 16.5113C13.7683 17.3635 13.7949 18.482 13.7949 19.7603C13.7949 19.9201 13.8748 20 14.0613 20H16.4314C16.6178 20 16.6977 19.9201 16.6977 19.7603C16.6977 18.1625 16.6178 16.6977 16.032 15.3395L13.3156 9.02796ZM5.43276 12.49C5.24634 12.49 5.11318 12.3302 5.19308 12.1438C5.48602 11.5047 5.75233 10.8655 6.04527 10.1465L8.09587 5.35286C8.2024 5.13981 8.49534 5.13981 8.57523 5.35286C9.18775 6.76431 9.93342 8.46871 10.6525 10.1731C10.9454 10.8389 11.1851 11.5047 11.478 12.1438C11.5579 12.3302 11.4514 12.49 11.265 12.49H5.43276Z" fill="white"/>
<path d="M22.174 3.19574C22.174 3.00932 22.2539 2.9028 22.4403 2.9028H27.5002C28.9117 2.9028 30.1367 3.96804 30.1367 5.35286V14.6738C30.1367 16.0586 28.9117 17.1238 27.5002 17.1238H22.4403C22.2539 17.1238 22.174 17.0439 22.174 16.8575V3.19574ZM27.5002 20C30.5362 20 33.0129 17.6565 33.0129 14.6738V5.35286C33.0129 2.45007 30.5362 0.0266308 27.5002 0.0266308H19.5641C19.3777 0.0266308 19.2978 0.133156 19.2978 0.319575V19.7337C19.2978 19.9201 19.3777 20 19.5641 20H27.5002Z" fill="white"/>
<path d="M44.3794 20C44.5125 20 44.5924 19.9467 44.6723 19.8136L44.9653 19.1478L47.6284 12.5699C48.8268 9.64048 49.9985 6.55127 50.6377 5.08655C51.0638 4.1012 51.1437 1.30493 51.1437 0.346205C51.1703 0.159786 51.0105 0.0266308 50.8241 0.0266308H48.6137C48.4273 0.0266308 48.2941 0.159786 48.2941 0.346205C48.2941 1.17177 48.2409 3.40879 48.0012 3.99467C47.3887 5.48602 46.1637 8.52197 44.9653 11.5047C44.5658 12.4634 44.1929 13.4221 43.8467 14.3009C43.7402 14.5939 43.3408 14.5672 43.2342 14.2743L42.5684 12.4634C41.3967 9.26764 40.0119 5.64581 39.3194 3.99467C39.0798 3.40879 39.0265 1.17177 39.0265 0.346205C39.0265 0.133156 38.92 0.0266308 38.6803 0.0266308H36.4965C36.2569 0.0266308 36.1503 0.133156 36.1503 0.346205C36.1503 1.30493 36.2835 4.1012 36.683 5.08655C37.3487 6.73768 38.7069 10.253 39.8787 13.4487C40.9439 16.2983 41.7429 18.482 42.0358 19.1478L42.3288 19.8136C42.382 19.9467 42.4886 20 42.6483 20H44.3794Z" fill="white"/>
<path d="M64.2633 9.02796C62.7719 5.53928 61.1741 1.91744 60.7213 0.878828L60.4018 0.159786C60.3751 0.079894 60.2952 0.0266308 60.1887 0.0266308H58.4044C58.2979 0.0266308 58.218 0.079894 58.1647 0.159786L57.8452 0.878828C57.3924 1.91744 55.8212 5.53928 54.3299 9.02796C53.2912 11.4514 52.2793 13.8216 51.5868 15.3395C51.0276 16.5912 50.9477 18.1358 50.9477 19.7337C50.9477 19.8935 51.0276 19.9734 51.1874 19.9734L53.5842 20L53.6907 19.9201C53.7706 19.8402 53.8239 19.8402 53.8239 19.7603C53.8239 18.9348 53.9038 17.3369 54.25 16.5113C54.3831 16.2184 54.4896 15.8988 54.6761 15.5526C54.7027 15.4461 54.7826 15.3928 54.9157 15.3928H63.6774C63.7839 15.3928 63.8638 15.4461 63.8904 15.5526C64.0769 15.8988 64.1834 16.2184 64.3165 16.5113C64.716 17.3635 64.7426 18.482 64.7426 19.7603C64.7426 19.9201 64.8225 20 65.0089 20H67.3791C67.5655 20 67.6454 19.9201 67.6454 19.7603C67.6454 18.1625 67.5655 16.6977 66.9796 15.3395L64.2633 9.02796ZM56.3804 12.49C56.194 12.49 56.0609 12.3302 56.1408 12.1438C56.4337 11.5047 56.7 10.8655 56.993 10.1465L59.0436 5.35286C59.1501 5.13981 59.443 5.13981 59.5229 5.35286C60.1354 6.76431 60.8811 8.46871 61.6002 10.1731C61.8931 10.8389 62.1328 11.5047 62.4257 12.1438C62.5056 12.3302 62.3991 12.49 62.2127 12.49H56.3804Z" fill="white"/>
<path d="M99.2458 0.346205C99.2458 0.106525 99.1393 0 98.8996 0H96.7158C96.4762 0 96.3696 0.106525 96.3696 0.346205V14.7803C96.3696 15.0732 96.0767 15.2064 95.837 15.0732L72.5081 1.99734L72.4016 1.91744C72.082 1.51798 72.0554 0.852197 72.0287 0.399467C72.0287 0.159786 71.9222 0.0532632 71.6825 0.0532632H69.4988C69.2591 0.0532632 69.1526 0.159786 69.1526 0.399467V19.6538C69.1526 19.8935 69.2591 20 69.4988 20H71.6825L71.8423 19.8935C71.9222 19.8136 72.0287 19.7603 72.0287 19.6538V5.59254C72.0287 5.2996 72.3217 5.16644 72.5614 5.2996L95.9968 18.4288L96.1033 18.5087C96.2897 18.8016 96.343 19.281 96.343 19.7337C96.3696 19.9201 96.5028 20 96.7158 20H98.8996L99.0594 19.9201C99.1393 19.8402 99.2458 19.787 99.2458 19.6804V0.346205Z" fill="white"/>
<path d="M110.386 19.9734C113.582 19.9734 116.165 17.4967 116.165 14.4341V13.4487C116.165 13.2889 116.085 13.2091 115.926 13.2091H113.502C113.369 13.2091 113.289 13.2889 113.289 13.4487V14.4341C113.289 15.8988 111.984 17.0972 110.386 17.0972H107.856C106.259 17.0972 104.954 15.8988 104.954 14.4341V5.56591C104.954 4.07457 106.259 2.87617 107.856 2.87617H110.386C111.984 2.87617 113.289 4.07457 113.289 5.56591V6.68442C113.289 6.81758 113.369 6.89747 113.502 6.89747H115.926C116.085 6.89747 116.165 6.81758 116.165 6.68442V5.56591C116.165 2.50333 113.582 0 110.386 0H107.856C104.661 0 102.077 2.50333 102.077 5.56591V14.4341C102.077 17.4967 104.661 19.9734 107.856 19.9734H110.386Z" fill="white"/>
<path d="M121.597 3.32889C121.597 3.08921 121.704 2.98269 121.944 2.98269H153.342C153.581 2.98269 153.688 2.87617 153.688 2.66312V0.479361C153.688 0.23968 153.581 0.133156 153.342 0.133156H119.094C118.854 0.133156 118.748 0.23968 118.748 0.479361V19.6538C118.748 19.8935 118.854 20 119.094 20H153.342C153.581 20 153.688 19.8935 153.688 19.6538V17.47C153.688 17.257 153.581 17.1505 153.342 17.1505H121.944C121.704 17.1505 121.597 17.0439 121.597 16.8043V13.0493C121.597 12.8096 121.704 12.7031 121.944 12.7031H150.386C150.599 12.7031 150.705 12.5965 150.705 12.3569V10.1731C150.705 9.96005 150.599 9.85353 150.386 9.85353H121.944C121.704 9.85353 121.597 9.747 121.597 9.50732V3.32889Z" fill="white"/>
<path d="M159.647 3.19574C159.647 3.00932 159.727 2.9028 159.913 2.9028H164.973C166.385 2.9028 167.61 3.96804 167.61 5.35286V14.6738C167.61 16.0586 166.385 17.1238 164.973 17.1238H159.913C159.727 17.1238 159.647 17.0439 159.647 16.8575V3.19574ZM164.973 20C168.009 20 170.486 17.6565 170.486 14.6738V5.35286C170.486 2.45007 168.009 0.0266308 164.973 0.0266308H157.037C156.851 0.0266308 156.771 0.133156 156.771 0.319575V19.7337C156.771 19.9201 156.851 20 157.037 20H164.973Z" fill="white"/>
<path d="M189.5 20C192.669 20 195.252 17.5233 195.252 14.4607C195.252 13.5286 194.826 11.2383 193.441 10.5459L193.335 10.4927L184.599 7.08389L184.413 6.9241C184.227 6.60453 184.067 5.99201 184.067 5.59254C184.067 4.12783 185.372 2.92943 186.943 2.92943H189.5C191.071 2.92943 192.376 4.12783 192.376 5.59254V6.63116C192.376 6.81758 192.509 6.95073 192.695 6.95073H194.932C195.119 6.95073 195.252 6.81758 195.252 6.63116V5.59254C195.252 2.52996 192.669 0.0532632 189.5 0.0532632H186.943C183.774 0.0532632 181.191 2.52996 181.191 5.59254C181.191 6.498 181.697 8.65513 183.028 9.53396L183.108 9.58722L191.87 12.996C191.95 13.0226 192.003 13.0759 192.03 13.1558C192.216 13.4754 192.376 14.0613 192.376 14.4607C192.376 15.9254 191.071 17.1238 189.5 17.1238H186.943C185.372 17.1238 184.067 15.9254 184.067 14.4607V13.3955C184.067 13.1824 183.96 13.0759 183.747 13.0759H181.51C181.324 13.0759 181.191 13.2091 181.191 13.3955V14.4607C181.191 17.5233 183.774 20 186.943 20H189.5Z" fill="white"/>
<path d="M199.41 3.19574C199.41 3.00932 199.517 2.9028 199.703 2.9028H209.424C209.61 2.9028 209.717 2.8229 209.717 2.63649V0.319575C209.717 0.133156 209.61 0.0532632 209.424 0.0532632H196.827C196.641 0.0532632 196.561 0.133156 196.561 0.319575V19.7071C196.561 19.8935 196.641 20 196.827 20H209.424C209.61 20 209.717 19.8935 209.717 19.7071V17.3901C209.717 17.2037 209.61 17.1238 209.424 17.1238H199.703C199.517 17.1238 199.41 17.0173 199.41 16.8309V12.9427C199.41 12.7563 199.517 12.6764 199.703 12.6764H206.441C206.627 12.6764 206.734 12.5699 206.734 12.3835V10.0666C206.734 9.88016 206.627 9.80027 206.441 9.80027H199.703C199.517 9.80027 199.41 9.69374 199.41 9.50732V3.19574Z" fill="white"/>
<path d="M216.47 0.399467C216.47 0.159786 216.364 0.0532632 216.124 0.0532632H208.454C208.214 0.0532632 208.108 0.159786 208.108 0.399467V2.58322C208.108 2.8229 208.214 2.92943 208.454 2.92943H210.505C210.744 2.92943 210.851 3.03595 210.851 3.27563V19.6538C210.851 19.8935 210.957 20 211.197 20H213.381C213.621 20 213.727 19.8935 213.727 19.6538V3.27563C213.727 3.03595 213.834 2.92943 214.073 2.92943H216.124C216.364 2.92943 216.47 2.8229 216.47 2.58322V0.399467Z" fill="white"/>
<path d="M233.145 0.292944C233.145 0.106525 233.065 0.0266308 232.878 0.0266308H219.323C219.137 0.0266308 219.057 0.106525 219.057 0.292944V2.68975C219.057 2.87617 219.137 2.95606 219.323 2.95606H224.383C224.57 2.95606 224.649 3.03595 224.649 3.22237V19.7337C224.649 19.9201 224.729 20 224.916 20H227.313C227.499 20 227.579 19.9201 227.579 19.7337V3.22237C227.579 3.03595 227.659 2.95606 227.819 2.95606H232.878C233.065 2.95606 233.145 2.87617 233.145 2.68975V0.292944Z" fill="white"/>
<path d="M242.831 3.16911C242.831 2.98269 242.911 2.9028 243.097 2.9028H246.479C246.666 2.9028 246.746 2.8229 246.746 2.63649V0.292944C246.746 0.106525 246.666 0 246.479 0H236.28C236.093 0 236.013 0.106525 236.013 0.292944V2.63649C236.013 2.8229 236.093 2.9028 236.28 2.9028H239.662C239.848 2.9028 239.928 2.98269 239.928 3.16911V16.8309C239.928 17.0173 239.848 17.0972 239.662 17.0972H236.28C236.093 17.0972 236.013 17.2037 236.013 17.3901V19.7337C236.013 19.9201 236.093 20 236.28 20H246.479C246.666 20 246.746 19.9201 246.746 19.7337V17.3901C246.746 17.2037 246.666 17.0972 246.479 17.0972H243.097C242.911 17.0972 242.831 17.0173 242.831 16.8309V3.16911Z" fill="white"/>
<path d="M251.185 20C251.372 20 251.452 19.9201 251.452 19.7337V7.50999C251.452 7.21704 251.771 7.13715 251.958 7.3502C253.103 9.08123 254.195 10.6791 254.221 10.7057L254.275 10.759C254.541 11.1851 255.5 12.5166 256.458 13.9547C257.523 15.526 258.695 17.3635 259.494 18.3755C259.627 18.5619 259.734 19.2011 259.814 19.7337C259.814 19.9201 259.894 20 260.08 20L262.45 19.9734C262.637 19.9734 262.717 19.8935 262.717 19.7071V0.319575C262.717 0.133156 262.637 0.0532632 262.45 0.0532632H260.08C259.894 0.0532632 259.814 0.133156 259.814 0.319575V12.8895C259.814 13.1824 259.468 13.2623 259.334 13.0226C259.148 12.8096 259.015 12.5699 258.855 12.3302L256.591 9.05459C256.272 8.57523 252.996 3.75499 251.638 1.86418C251.505 1.65113 251.452 0.825566 251.452 0.319575C251.452 0.133156 251.372 0.0532632 251.185 0.0532632H248.842C248.655 0.0532632 248.575 0.133156 248.575 0.319575V19.7337C248.575 19.9201 248.655 20 248.842 20H251.185Z" fill="white"/>
<path d="M301.059 6.95073C301.299 6.95073 301.405 6.84421 301.405 6.60453V5.59254C301.405 2.55659 298.822 0.0532632 295.653 0.0532632H271.206C268.037 0.0532632 265.453 2.55659 265.453 5.59254V14.4607C265.453 17.5233 268.037 20 271.206 20H295.653C298.822 20 301.405 17.5233 301.405 14.4607V10.253C301.405 10.0133 301.299 9.90679 301.059 9.90679H283.776C283.536 9.90679 283.429 10.0133 283.429 10.253V12.4101C283.429 12.6498 283.536 12.783 283.776 12.783H298.183C298.423 12.783 298.529 12.8895 298.529 13.1292V14.4607C298.529 15.9254 297.224 17.1238 295.653 17.1238H271.206C269.608 17.1238 268.329 15.9254 268.329 14.4607V5.59254C268.329 4.12783 269.608 2.92943 271.206 2.92943H295.653C297.224 2.92943 298.529 4.12783 298.529 5.59254V6.60453C298.529 6.84421 298.636 6.95073 298.875 6.95073H301.059Z" fill="white"/>
<path d="M312.409 20C315.578 20 318.161 17.5233 318.161 14.4607C318.161 13.5286 317.735 11.2383 316.35 10.5459L316.244 10.4927L307.509 7.08389L307.322 6.9241C307.136 6.60453 306.976 5.99201 306.976 5.59254C306.976 4.12783 308.281 2.92943 309.852 2.92943H312.409C313.98 2.92943 315.285 4.12783 315.285 5.59254V6.63116C315.285 6.81758 315.418 6.95073 315.604 6.95073H317.841C318.028 6.95073 318.161 6.81758 318.161 6.63116V5.59254C318.161 2.52996 315.578 0.0532632 312.409 0.0532632H309.852C306.683 0.0532632 304.1 2.52996 304.1 5.59254C304.1 6.498 304.606 8.65513 305.937 9.53396L306.017 9.58722L314.779 12.996C314.859 13.0226 314.912 13.0759 314.939 13.1558C315.125 13.4754 315.285 14.0613 315.285 14.4607C315.285 15.9254 313.98 17.1238 312.409 17.1238H309.852C308.281 17.1238 306.976 15.9254 306.976 14.4607V13.3955C306.976 13.1824 306.869 13.0759 306.656 13.0759H304.419C304.233 13.0759 304.1 13.2091 304.1 13.3955V14.4607C304.1 17.5233 306.683 20 309.852 20H312.409Z" fill="white"/>
</svg>
