<svg width="230" height="48" viewBox="0 0 230 48" fill="none" xmlns="http://www.w3.org/2000/svg">
<path d="M21.3383 19.1898C24.4087 19.1898 26.8906 16.8102 26.8906 13.8678V12.9211C26.8906 12.7676 26.8138 12.6908 26.6603 12.6908H24.3319C24.204 12.6908 24.1272 12.7676 24.1272 12.9211V13.8678C24.1272 15.2751 22.8735 16.4264 21.3383 16.4264H18.9076C17.3724 16.4264 16.1187 15.2751 16.1187 13.8678V5.34755C16.1187 3.91471 17.3724 2.76333 18.9076 2.76333H21.3383C22.8735 2.76333 24.1272 3.91471 24.1272 5.34755V6.42218C24.1272 6.55011 24.204 6.62687 24.3319 6.62687H26.6603C26.8138 6.62687 26.8906 6.55011 26.8906 6.42218V5.34755C26.8906 2.40512 24.4087 0 21.3383 0H18.9076C15.8373 0 13.3554 2.40512 13.3554 5.34755V13.8678C13.3554 16.8102 15.8373 19.1898 18.9076 19.1898H21.3383Z" fill="white"/>
<path d="M63.6064 0.332623C63.6064 0.153518 63.4529 0.025586 63.2737 0.025586H61.1501C60.971 0.025586 60.8175 0.153518 60.8175 0.332623V9.10874C60.8175 9.31343 60.7151 9.41578 60.5104 9.41578H32.4678C32.2631 9.41578 32.1608 9.31343 32.1608 9.10874V0.332623C32.1608 0.153518 32.0328 0.025586 31.8537 0.025586H29.7045C29.4742 0.025586 29.3718 0.127932 29.3718 0.332623V18.9083C29.3718 19.113 29.4742 19.2154 29.7045 19.2154H31.8537C32.0328 19.2154 32.1608 19.0874 32.1608 18.9083V12.5117C32.1608 12.307 32.2631 12.2047 32.4678 12.2047H60.5104C60.7151 12.2047 60.8175 12.307 60.8175 12.5117V18.9083C60.8175 19.113 60.9198 19.2154 61.1501 19.2154H63.2737C63.504 19.2154 63.6064 19.113 63.6064 18.9083V0.332623Z" fill="white"/>
<path d="M94.9441 2.76333C96.4792 2.76333 97.733 3.91471 97.733 5.34755V13.8678C97.733 15.3006 96.4792 16.452 94.9441 16.452H71.4046C69.8694 16.452 68.6157 15.3006 68.6157 13.8678V5.34755C68.6157 3.91471 69.8694 2.76333 71.4046 2.76333H94.9441ZM94.9441 19.2154C98.0144 19.2154 100.496 16.8102 100.496 13.8678V5.34755C100.496 2.37953 98.0144 0 94.9441 0H71.4046C68.3343 0 65.8524 2.37953 65.8524 5.34755V13.8678C65.8524 16.8102 68.3343 19.2154 71.4046 19.2154H94.9441Z" fill="white"/>
<path d="M132.249 2.76333C133.784 2.76333 135.038 3.91471 135.038 5.34755V13.8678C135.038 15.3006 133.784 16.452 132.249 16.452H108.71C107.175 16.452 105.921 15.3006 105.921 13.8678V5.34755C105.921 3.91471 107.175 2.76333 108.71 2.76333H132.249ZM132.249 19.2154C135.32 19.2154 137.801 16.8102 137.801 13.8678V5.34755C137.801 2.37953 135.32 0 132.249 0H108.71C105.639 0 103.157 2.37953 103.157 5.34755V13.8678C103.157 16.8102 105.639 19.2154 108.71 19.2154H132.249Z" fill="white"/>
<path d="M175.124 19.2154C178.195 19.2154 180.677 16.8102 180.677 13.8678C180.677 12.9723 180.318 10.7974 178.937 10.1066L178.834 10.0554L144.139 6.7548C144.011 6.72921 143.909 6.65245 143.858 6.55011C143.679 6.21748 143.551 5.68017 143.551 5.34755C143.551 3.9403 144.804 2.78891 146.34 2.78891H175.124C176.659 2.78891 177.913 3.9403 177.913 5.34755V6.29424C177.913 6.52452 178.041 6.65245 178.271 6.65245H180.344C180.574 6.65245 180.677 6.52452 180.677 6.29424V5.34755C180.677 2.40512 178.195 0 175.124 0H146.34C143.269 0 140.787 2.40512 140.787 5.34755C140.787 6.21748 141.274 8.28998 142.553 9.13433L142.63 9.1855L177.35 12.5117C177.478 12.5117 177.555 12.5629 177.632 12.6908C177.76 13.0235 177.913 13.5608 177.913 13.8678C177.913 15.3006 176.659 16.452 175.124 16.452H146.34C144.804 16.452 143.551 15.3006 143.551 13.8678V12.8699C143.551 12.6397 143.448 12.5373 143.218 12.5373H141.12C140.89 12.5373 140.787 12.6397 140.787 12.8699V13.8678C140.787 16.8102 143.269 19.2154 146.34 19.2154H175.124Z" fill="white"/>
<path d="M185.203 3.19829C185.203 2.96802 185.305 2.86567 185.536 2.86567H215.702C215.932 2.86567 216.034 2.76333 216.034 2.55864V0.460555C216.034 0.230277 215.932 0.127932 215.702 0.127932H182.798C182.568 0.127932 182.465 0.230277 182.465 0.460555V18.8827C182.465 19.113 182.568 19.2154 182.798 19.2154H215.702C215.932 19.2154 216.034 19.113 216.034 18.8827V16.7846C216.034 16.58 215.932 16.4776 215.702 16.4776H185.536C185.305 16.4776 185.203 16.3753 185.203 16.145V12.5373C185.203 12.307 185.305 12.2047 185.536 12.2047H212.862C213.066 12.2047 213.169 12.1023 213.169 11.8721V9.77399C213.169 9.5693 213.066 9.46695 212.862 9.46695H185.536C185.305 9.46695 185.203 9.36461 185.203 9.13433V3.19829Z" fill="white"/>
<path d="M10.081 28.8102C9.90192 28.8102 9.79957 28.887 9.79957 29.0661C9.72281 29.6546 9.64606 30.4222 9.5693 30.5501C8.95523 31.4968 7.93177 33.1599 7.03625 34.6183L6.49893 35.4883C6.371 35.693 6.11514 35.693 6.0128 35.4883L5.47548 34.6183C4.57996 33.1599 3.53092 31.4968 2.91685 30.5501C2.78891 30.3454 2.76333 29.5778 2.76333 29.0917C2.76333 28.9126 2.66098 28.8102 2.48188 28.8102H0.281448C0.102343 28.8102 0 28.9126 0 29.1173C0 29.9872 0.102344 31.2921 0.614071 32.0597C1.22814 32.9552 2.20043 34.6183 3.09595 36.0768C3.81237 37.2793 4.42644 38.2516 4.81023 38.8401C4.83582 38.9168 4.86141 38.968 4.86141 38.9936V47.693C4.86141 47.8721 4.96375 47.9744 5.14286 47.9744H7.34328C7.52239 47.9744 7.62474 47.8721 7.62474 47.693V38.9936C7.62474 38.968 7.65032 38.9168 7.6759 38.8401C8.0597 38.2516 8.64819 37.2537 9.39019 36.0768L11.8977 32.0597C12.307 31.3945 12.4861 29.9616 12.4861 29.0917C12.5117 28.9126 12.435 28.8102 12.2047 28.8102H10.081Z" fill="white"/>
<path d="M42.2597 31.548C43.7948 31.548 45.0486 32.6994 45.0486 34.1322V42.6525C45.0486 44.0853 43.7948 45.2367 42.2597 45.2367H18.7202C17.185 45.2367 15.9313 44.0853 15.9313 42.6525V34.1322C15.9313 32.6994 17.185 31.548 18.7202 31.548H42.2597ZM42.2597 48C45.33 48 47.8119 45.5949 47.8119 42.6525V34.1322C47.8119 31.1642 45.33 28.7846 42.2597 28.7846H18.7202C15.6499 28.7846 13.168 31.1642 13.168 34.1322V42.6525C13.168 45.5949 15.6499 48 18.7202 48H42.2597Z" fill="white"/>
<path d="M66.5883 48C69.6587 48 72.1661 45.5949 72.1661 42.6525V29.0661C72.1661 28.887 72.0638 28.8102 71.8847 28.8102H69.6586C69.4795 28.8102 69.3772 28.887 69.3772 29.0661V42.6525C69.3772 44.0597 68.1235 45.2367 66.5883 45.2367H56.2258C54.665 45.2367 53.4113 44.0597 53.4113 42.6525V29.0661C53.4113 28.887 53.3346 28.8102 53.1554 28.8102H50.9294C50.7503 28.8102 50.648 28.887 50.648 29.0661V42.6525C50.648 45.5949 53.1554 48 56.2258 48H66.5883Z" fill="white"/>
<path d="M111.213 42.806C111.137 42.678 111.06 42.6269 111.034 42.6013L109.141 40.5032C108.962 40.2985 109.013 40.0171 109.243 39.838C110.779 38.9424 111.751 37.3049 111.751 35.4627V33.9787C111.751 31.113 109.346 28.7846 106.378 28.7846H75.4949C75.2135 28.7846 75.06 28.9893 75.06 29.2196V47.565C75.06 47.8465 75.2135 48 75.4949 48H77.4139C77.6442 48 77.8489 47.8465 77.8489 47.565V41.0661C77.8489 40.7846 77.9768 40.6567 78.2583 40.6567H105.329C105.457 40.6567 105.559 40.7079 105.636 40.7846L108.911 44.3923C108.936 44.4179 108.962 44.4435 108.962 44.4435C109.141 44.7761 109.371 45.2878 109.371 45.774V47.565C109.371 47.7953 109.576 48 109.806 48H111.725C112.007 48 112.16 47.8465 112.16 47.565V45.7996C112.16 44.29 111.341 43.0107 111.213 42.806ZM77.8489 31.9829C77.8489 31.7015 77.9768 31.5736 78.2583 31.5736H106.378C107.811 31.5736 108.962 32.6482 108.962 33.9787V35.4627C108.962 36.7932 107.811 37.8678 106.378 37.8678H78.2583C77.9768 37.8678 77.8489 37.7143 77.8489 37.4328V31.9829Z" fill="white"/>
<path d="M122.35 28.8614V28.887H122.12C121.89 28.887 121.685 29.0917 121.685 29.322V47.565C121.711 47.6418 121.762 47.7185 121.813 47.7953C121.915 47.9232 122.018 48 122.12 48H124.039C124.32 48 124.448 47.8465 124.448 47.565V41.5778C124.448 41.3475 124.653 41.1684 124.883 41.1684H163.57C166.512 41.1684 168.892 38.8145 168.892 36.0256V34.0043C168.892 31.1642 166.512 28.8614 163.57 28.8614H122.35ZM166.154 36.0256C166.154 37.3305 164.977 38.4051 163.57 38.4051H124.883C124.653 38.4051 124.448 38.2004 124.448 37.9701V32.0597C124.448 31.7783 124.653 31.6247 124.883 31.6247H163.57C164.977 31.6247 166.154 32.6994 166.154 34.0043V36.0256Z" fill="white"/>
<path d="M182.778 37.4584C181.345 34.1066 179.809 30.6269 179.375 29.629L179.067 28.9382C179.042 28.8614 178.965 28.8102 178.863 28.8102H177.149C177.046 28.8102 176.969 28.8614 176.918 28.9382L176.611 29.629C176.176 30.6269 174.667 34.1066 173.234 37.4584C172.236 39.7868 171.264 42.064 170.598 43.5224C170.061 44.7249 169.984 46.209 169.984 47.7441C169.984 47.8977 170.061 47.9744 170.215 47.9744L172.517 48L172.62 47.9232C172.696 47.8465 172.748 47.8465 172.748 47.7697C172.748 46.9765 172.824 45.4414 173.157 44.6482C173.285 44.3667 173.387 44.0597 173.566 43.7271C173.592 43.6247 173.669 43.5736 173.797 43.5736H182.215C182.317 43.5736 182.394 43.6247 182.419 43.7271C182.598 44.0597 182.701 44.3667 182.829 44.6482C183.212 45.4669 183.238 46.5416 183.238 47.7697C183.238 47.9232 183.315 48 183.494 48H185.771C185.95 48 186.027 47.9232 186.027 47.7697C186.027 46.2345 185.95 44.8273 185.387 43.5224L182.778 37.4584ZM175.204 40.7846C175.025 40.7846 174.897 40.6311 174.974 40.452C175.255 39.838 175.511 39.2239 175.792 38.5331L177.763 33.9275C177.865 33.7228 178.146 33.7228 178.223 33.9275C178.812 35.2836 179.528 36.9211 180.219 38.5586C180.5 39.1983 180.731 39.838 181.012 40.452C181.089 40.6311 180.986 40.7846 180.807 40.7846H175.204Z" fill="white"/>
<path d="M192.586 29.1684C192.586 28.9382 192.483 28.8358 192.253 28.8358H184.884C184.654 28.8358 184.552 28.9382 184.552 29.1684V31.2665C184.552 31.4968 184.654 31.5991 184.884 31.5991H186.854C187.085 31.5991 187.187 31.7015 187.187 31.9318V47.6674C187.187 47.8977 187.289 48 187.52 48H189.618C189.848 48 189.95 47.8977 189.95 47.6674V31.9318C189.95 31.7015 190.053 31.5991 190.283 31.5991H192.253C192.483 31.5991 192.586 31.4968 192.586 31.2665V29.1684Z" fill="white"/>
<path d="M229.855 29.1173C229.855 28.9382 229.702 28.8102 229.523 28.8102H227.399C227.22 28.8102 227.066 28.9382 227.066 29.1173V37.8934C227.066 38.0981 226.964 38.2004 226.759 38.2004H198.717C198.512 38.2004 198.41 38.0981 198.41 37.8934V29.1173C198.41 28.9382 198.282 28.8102 198.103 28.8102H195.953C195.723 28.8102 195.621 28.9126 195.621 29.1173V47.693C195.621 47.8977 195.723 48 195.953 48H198.103C198.282 48 198.41 47.8721 198.41 47.693V41.2964C198.41 41.0917 198.512 40.9893 198.717 40.9893H226.759C226.964 40.9893 227.066 41.0917 227.066 41.2964V47.693C227.066 47.8977 227.169 48 227.399 48H229.523C229.753 48 229.855 47.8977 229.855 47.693V29.1173Z" fill="white"/>
</svg>
