<svg width="231" height="20" viewBox="0 0 231 20" fill="none" xmlns="http://www.w3.org/2000/svg">
<path d="M8.30892 19.9734C11.5047 19.9734 14.0879 17.4967 14.0879 14.4341V13.4487C14.0879 13.2889 14.008 13.2091 13.8482 13.2091H11.4248C11.2916 13.2091 11.2117 13.2889 11.2117 13.4487V14.4341C11.2117 15.8988 9.90679 17.0972 8.30892 17.0972H5.77896C4.18109 17.0972 2.87617 15.8988 2.87617 14.4341V5.56591C2.87617 4.07457 4.18109 2.87617 5.77896 2.87617H8.30892C9.90679 2.87617 11.2117 4.07457 11.2117 5.56591V6.68442C11.2117 6.81758 11.2916 6.89747 11.4248 6.89747H13.8482C14.008 6.89747 14.0879 6.81758 14.0879 6.68442V5.56591C14.0879 2.50333 11.5047 0 8.30892 0H5.77896C2.58322 0 0 2.50333 0 5.56591V14.4341C0 17.4967 2.58322 19.9734 5.77896 19.9734H8.30892Z" fill="white"/>
<path d="M29.3469 20C29.5333 20 29.6132 19.9201 29.6132 19.7337V17.3901C29.6132 17.2037 29.5333 17.1238 29.3469 17.1238H19.8396C19.6532 17.1238 19.5733 17.0439 19.5733 16.8575V0.319574C19.5733 0.133155 19.4934 0.0532639 19.307 0.0532639H16.9634C16.777 0.0532639 16.6971 0.133155 16.6971 0.319574V19.7337C16.6971 19.9201 16.777 20 16.9634 20H29.3469Z" fill="white"/>
<path d="M44.3419 9.02796C42.8506 5.53928 41.2527 1.91744 40.8 0.878828L40.4804 0.159786C40.4538 0.0798938 40.3739 0.026631 40.2673 0.026631H38.4831C38.3765 0.026631 38.2966 0.0798938 38.2434 0.159786L37.9238 0.878828C37.4711 1.91744 35.8998 5.53928 34.4085 9.02796C33.3699 11.4514 32.3579 13.8216 31.6655 15.3395C31.1062 16.5912 31.0263 18.1358 31.0263 19.7337C31.0263 19.8935 31.1062 19.9734 31.266 19.9734L33.6628 20L33.7693 19.9201C33.8492 19.8402 33.9025 19.8402 33.9025 19.7603C33.9025 18.9348 33.9824 17.3369 34.3286 16.5113C34.4618 16.2184 34.5683 15.8988 34.7547 15.5526C34.7813 15.4461 34.8612 15.3928 34.9944 15.3928H43.756C43.8626 15.3928 43.9425 15.4461 43.9691 15.5526C44.1555 15.8988 44.262 16.2184 44.3952 16.5113C44.7946 17.3635 44.8213 18.482 44.8213 19.7603C44.8213 19.9201 44.9012 20 45.0876 20H47.4578C47.6442 20 47.7241 19.9201 47.7241 19.7603C47.7241 18.1625 47.6442 16.6977 47.0583 15.3395L44.3419 9.02796ZM36.4591 12.49C36.2727 12.49 36.1395 12.3302 36.2194 12.1438C36.5124 11.5047 36.7787 10.8655 37.0716 10.1465L39.1222 5.35286C39.2287 5.13981 39.5217 5.13981 39.6016 5.35286C40.2141 6.76431 40.9598 8.46871 41.6788 10.1731C41.9717 10.8389 42.2114 11.5047 42.5044 12.1438C42.5843 12.3302 42.4777 12.49 42.2913 12.49H36.4591Z" fill="white"/>
<path d="M55.9448 3.16911C55.9448 2.98269 56.0247 2.9028 56.2111 2.9028H59.5933C59.7797 2.9028 59.8596 2.8229 59.8596 2.63649V0.292943C59.8596 0.106524 59.7797 0 59.5933 0H49.3935C49.2071 0 49.1272 0.106524 49.1272 0.292943V2.63649C49.1272 2.8229 49.2071 2.9028 49.3935 2.9028H52.7757C52.9621 2.9028 53.042 2.98269 53.042 3.16911V16.8309C53.042 17.0173 52.9621 17.0972 52.7757 17.0972H49.3935C49.2071 17.0972 49.1272 17.2037 49.1272 17.3901V19.7337C49.1272 19.9201 49.2071 20 49.3935 20H59.5933C59.7797 20 59.8596 19.9201 59.8596 19.7337V17.3901C59.8596 17.2037 59.7797 17.0972 59.5933 17.0972H56.2111C56.0247 17.0972 55.9448 17.0173 55.9448 16.8309V3.16911Z" fill="white"/>
<path d="M88.0482 0.399467C88.0482 0.21305 87.8884 0.026631 87.6754 0.026631H85.5183C85.3052 0.026631 85.1721 0.133156 85.1454 0.372836C85.1454 0.772303 85.1454 1.11851 84.959 1.30493L84.9856 1.51798L76.0908 9.77364C76.0109 9.85353 75.931 9.88016 75.8512 9.88016H75.718C75.6381 9.88016 75.5582 9.85353 75.4783 9.77364L66.2107 1.54461V1.38482C66.0775 1.17177 66.0243 0.745672 66.0243 0.346205C66.0243 0.106525 65.8911 0 65.6514 0H63.4943C63.2546 0 63.1215 0.106525 63.1215 0.346205V19.6538C63.1215 19.8935 63.2546 20 63.4943 20H65.6514C65.8911 20 66.0243 19.8935 66.0243 19.6538V6.17843V5.93875C66.0243 5.61917 66.3971 5.45939 66.6368 5.67244L74.4131 12.5965C74.4663 12.6498 74.5462 12.6764 74.6527 12.6764H76.9697C77.0496 12.6764 77.1294 12.6498 77.2093 12.5699L84.5595 5.75233C84.7726 5.53928 85.1454 5.67244 85.1454 5.99201L85.1721 6.12517V19.6005C85.1721 19.8402 85.2786 19.9734 85.5183 19.9734H87.6754C87.9151 19.9734 88.0482 19.8402 88.0482 19.6005V0.399467Z" fill="white"/>
<path d="M104.718 0.399467C104.718 0.159787 104.612 0.0532639 104.372 0.0532639H96.7021C96.4624 0.0532639 96.3559 0.159787 96.3559 0.399467V2.58322C96.3559 2.8229 96.4624 2.92943 96.7021 2.92943H98.7527C98.9924 2.92943 99.0989 3.03595 99.0989 3.27563V19.6538C99.0989 19.8935 99.2054 20 99.4451 20H101.629C101.869 20 101.975 19.8935 101.975 19.6538V3.27563C101.975 3.03595 102.082 2.92943 102.321 2.92943H104.372C104.612 2.92943 104.718 2.8229 104.718 2.58322V0.399467Z" fill="white"/>
<path d="M137.923 2.87617C139.52 2.87617 140.825 4.07457 140.825 5.56591V14.4341C140.825 15.9254 139.52 17.1238 137.923 17.1238H113.422C111.824 17.1238 110.519 15.9254 110.519 14.4341V5.56591C110.519 4.07457 111.824 2.87617 113.422 2.87617H137.923ZM137.923 20C141.118 20 143.702 17.4967 143.702 14.4341V5.56591C143.702 2.4767 141.118 0 137.923 0H113.422C110.226 0 107.643 2.4767 107.643 5.56591V14.4341C107.643 17.4967 110.226 20 113.422 20H137.923Z" fill="white"/>
<path d="M159.539 17.9494C159.539 16.4314 158.714 15.0466 158.527 14.8602C158.501 14.7803 158.447 14.727 158.367 14.6471L154.106 9.96005C154 9.85353 154 9.747 154.106 9.64048L157.781 5.61918C157.808 5.53928 157.861 5.51265 157.941 5.40613C158.074 5.19308 158.927 3.86152 158.927 2.29028V0.239681C158.927 0.0798947 158.847 0 158.687 0H156.29C156.13 0 156.05 0.0798947 156.05 0.239681V2.31691C156.05 2.8229 155.811 3.38216 155.598 3.70173C155.598 3.72836 155.598 3.72836 155.571 3.72836L150.085 9.77364C149.952 9.96006 149.686 9.8269 149.686 9.61385V0.292943C149.686 0.133155 149.606 0.0532639 149.446 0.0532639H147.049C146.889 0.0532639 146.809 0.133155 146.809 0.292943V19.7603C146.809 19.9201 146.889 20 147.049 20H149.446C149.606 20 149.686 19.9201 149.686 19.7603V14.6205C149.686 14.5939 149.712 14.5406 149.739 14.4607L151.843 12.1438C151.976 12.0107 152.082 12.0107 152.216 12.1438L156.184 16.5113C156.184 16.538 156.184 16.538 156.21 16.5646C156.397 16.8575 156.663 17.4434 156.663 17.9494L156.636 19.7337C156.636 19.8935 156.716 19.9734 156.876 19.9734H159.299C159.459 19.9734 159.539 19.8935 159.539 19.7337V17.9494Z" fill="white"/>
<path d="M164.795 3.32889C164.795 3.08921 164.902 2.98269 165.141 2.98269H196.539C196.779 2.98269 196.886 2.87617 196.886 2.66312V0.479361C196.886 0.23968 196.779 0.133157 196.539 0.133157H162.292C162.052 0.133157 161.946 0.23968 161.946 0.479361V19.6538C161.946 19.8935 162.052 20 162.292 20H196.539C196.779 20 196.886 19.8935 196.886 19.6538V17.47C196.886 17.257 196.779 17.1505 196.539 17.1505H165.141C164.902 17.1505 164.795 17.0439 164.795 16.8043V13.0493C164.795 12.8096 164.902 12.7031 165.141 12.7031H193.583C193.796 12.7031 193.903 12.5965 193.903 12.3569V10.1731C193.903 9.96005 193.796 9.85353 193.583 9.85353H165.141C164.902 9.85353 164.795 9.747 164.795 9.50732V3.32889Z" fill="white"/>
<path d="M202.578 20C202.765 20 202.845 19.9201 202.845 19.7337V7.50999C202.845 7.21704 203.164 7.13715 203.351 7.3502C204.496 9.08123 205.588 10.6791 205.614 10.7057L205.667 10.759C205.934 11.1851 206.892 12.5166 207.851 13.9547C208.916 15.526 210.088 17.3635 210.887 18.3755C211.02 18.5619 211.127 19.2011 211.207 19.7337C211.207 19.9201 211.287 20 211.473 20L213.843 19.9734C214.03 19.9734 214.109 19.8935 214.109 19.7071V0.319574C214.109 0.133155 214.03 0.0532639 213.843 0.0532639H211.473C211.287 0.0532639 211.207 0.133155 211.207 0.319574V12.8895C211.207 13.1824 210.861 13.2623 210.727 13.0226C210.541 12.8096 210.408 12.5699 210.248 12.3302L207.984 9.0546C207.665 8.57523 204.389 3.755 203.031 1.86418C202.898 1.65113 202.845 0.825566 202.845 0.319574C202.845 0.133155 202.765 0.0532639 202.578 0.0532639H200.235C200.048 0.0532639 199.968 0.133155 199.968 0.319574V19.7337C199.968 19.9201 200.048 20 200.235 20H202.578Z" fill="white"/>
<path d="M224.427 20C227.596 20 230.179 17.5233 230.179 14.4607C230.179 13.5286 229.753 11.2383 228.368 10.5459L228.262 10.4927L219.527 7.08389L219.34 6.9241C219.154 6.60453 218.994 5.99201 218.994 5.59255C218.994 4.12783 220.299 2.92943 221.87 2.92943H224.427C225.998 2.92943 227.303 4.12783 227.303 5.59255V6.63116C227.303 6.81758 227.436 6.95073 227.623 6.95073H229.86C230.046 6.95073 230.179 6.81758 230.179 6.63116V5.59255C230.179 2.52996 227.596 0.0532639 224.427 0.0532639H221.87C218.701 0.0532639 216.118 2.52996 216.118 5.59255C216.118 6.498 216.624 8.65513 217.956 9.53395L218.036 9.58722L226.797 12.996C226.877 13.0226 226.93 13.0759 226.957 13.1558C227.143 13.4754 227.303 14.0613 227.303 14.4607C227.303 15.9254 225.998 17.1238 224.427 17.1238H221.87C220.299 17.1238 218.994 15.9254 218.994 14.4607V13.3955C218.994 13.1824 218.888 13.0759 218.675 13.0759H216.438C216.251 13.0759 216.118 13.2091 216.118 13.3955V14.4607C216.118 17.5233 218.701 20 221.87 20H224.427Z" fill="white"/>
</svg>
