<svg width="483" height="20" viewBox="0 0 483 20" fill="none" xmlns="http://www.w3.org/2000/svg">
<path d="M8.63802 8.94989L8.6963 9.3037L9.05011 9.36198L12.9236 10L9.05011 10.638L8.6963 10.6963L8.63802 11.0501L8 14.9236L7.36198 11.0501L7.3037 10.6963L6.94989 10.638L3.07644 10L6.94989 9.36198L7.3037 9.3037L7.36198 8.94989L8 5.07644L8.63802 8.94989Z" stroke="white"/>
<path d="M475.638 8.94989L475.696 9.3037L476.05 9.36198L479.924 10L476.05 10.638L475.696 10.6963L475.638 11.0501L475 14.9236L474.362 11.0501L474.304 10.6963L473.95 10.638L470.076 10L473.95 9.36198L474.304 9.3037L474.362 8.94989L475 5.07644L475.638 8.94989Z" stroke="white"/>
<path d="M37.5659 20C40.7617 20 43.3449 17.5233 43.3449 14.4607V13.5553C43.3449 13.3688 43.2117 13.2357 43.0253 13.2357H40.7883C40.6019 13.2357 40.4687 13.3688 40.4687 13.5553V14.4607C40.4687 15.9254 39.1638 17.1238 37.5659 17.1238H37.779C36.1811 17.1238 34.8762 15.9254 34.8762 14.4607V5.59254C34.8762 4.1012 36.1811 2.9028 37.779 2.9028H37.5659C39.1638 2.9028 40.4687 4.1012 40.4687 5.59254V6.63116C40.4687 6.81758 40.5752 6.9241 40.7883 6.9241H43.0253C43.2117 6.9241 43.3449 6.81758 43.3449 6.63116V5.59254C43.3449 2.52996 40.7617 0.0266308 37.5659 0.0266308H37.779C34.5832 0.0266308 32 2.52996 32 5.59254V14.4607C32 17.5233 34.5832 20 37.779 20H37.5659Z" fill="white"/>
<path d="M83.2835 14.5939C83.2036 14.4607 83.1237 14.4075 83.0971 14.3808L81.1264 12.1971C80.94 11.984 80.9932 11.6911 81.2329 11.5047C82.8308 10.5726 83.8428 8.86818 83.8428 6.95073V5.40613C83.8428 2.42344 81.3394 0 78.2502 0H46.1064C45.8135 0 45.6537 0.21305 45.6537 0.45273V19.5473C45.6537 19.8402 45.8135 20 46.1064 20H48.1037C48.3434 20 48.5565 19.8402 48.5565 19.5473V12.783C48.5565 12.49 48.6896 12.3569 48.9826 12.3569H77.1583C77.2915 12.3569 77.398 12.4101 77.4779 12.49L80.8867 16.245C80.9133 16.2716 80.94 16.2983 80.94 16.2983C81.1264 16.6445 81.3661 17.1771 81.3661 17.6831V19.5473C81.3661 19.787 81.5791 20 81.8188 20H83.8161C84.1091 20 84.2688 19.8402 84.2688 19.5473V17.7097C84.2688 16.1385 83.4167 14.8069 83.2835 14.5939ZM48.5565 3.32889C48.5565 3.03595 48.6896 2.9028 48.9826 2.9028H78.2502C79.7416 2.9028 80.94 4.02131 80.94 5.40613V6.95073C80.94 8.33555 79.7416 9.45406 78.2502 9.45406H48.9826C48.6896 9.45406 48.5565 9.29427 48.5565 9.00133V3.32889Z" fill="white"/>
<path d="M88.8661 3.32889C88.8661 3.08921 88.9726 2.98269 89.2123 2.98269H120.61C120.85 2.98269 120.957 2.87617 120.957 2.66312V0.479361C120.957 0.23968 120.85 0.133156 120.61 0.133156H86.3627C86.123 0.133156 86.0165 0.23968 86.0165 0.479361V19.6538C86.0165 19.8935 86.123 20 86.3627 20H120.61C120.85 20 120.957 19.8935 120.957 19.6538V17.47C120.957 17.257 120.85 17.1505 120.61 17.1505H89.2123C88.9726 17.1505 88.8661 17.0439 88.8661 16.8043V13.0493C88.8661 12.8096 88.9726 12.7031 89.2123 12.7031H117.654C117.867 12.7031 117.974 12.5965 117.974 12.3569V10.1731C117.974 9.96005 117.867 9.85353 117.654 9.85353H89.2123C88.9726 9.85353 88.8661 9.747 88.8661 9.50732V3.32889Z" fill="white"/>
<path d="M137.328 9.02796C135.837 5.53928 134.239 1.91744 133.786 0.878828L133.467 0.159786C133.44 0.079894 133.36 0.0266308 133.254 0.0266308H131.469C131.363 0.0266308 131.283 0.079894 131.23 0.159786L130.91 0.878828C130.457 1.91744 128.886 5.53928 127.395 9.02796C126.356 11.4514 125.344 13.8216 124.652 15.3395C124.093 16.5912 124.013 18.1358 124.013 19.7337C124.013 19.8935 124.093 19.9734 124.252 19.9734L126.649 20L126.756 19.9201C126.836 19.8402 126.889 19.8402 126.889 19.7603C126.889 18.9348 126.969 17.3369 127.315 16.5113C127.448 16.2184 127.555 15.8988 127.741 15.5526C127.768 15.4461 127.848 15.3928 127.981 15.3928H136.742C136.849 15.3928 136.929 15.4461 136.955 15.5526C137.142 15.8988 137.248 16.2184 137.382 16.5113C137.781 17.3635 137.808 18.482 137.808 19.7603C137.808 19.9201 137.888 20 138.074 20H140.444C140.631 20 140.71 19.9201 140.71 19.7603C140.71 18.1625 140.631 16.6977 140.045 15.3395L137.328 9.02796ZM129.445 12.49C129.259 12.49 129.126 12.3302 129.206 12.1438C129.499 11.5047 129.765 10.8655 130.058 10.1465L132.109 5.35286C132.215 5.13981 132.508 5.13981 132.588 5.35286C133.2 6.76431 133.946 8.46871 134.665 10.1731C134.958 10.8389 135.198 11.5047 135.491 12.1438C135.571 12.3302 135.464 12.49 135.278 12.49H129.445Z" fill="white"/>
<path d="M147.537 0.399467C147.537 0.159786 147.43 0.0532632 147.191 0.0532632H139.521C139.281 0.0532632 139.175 0.159786 139.175 0.399467V2.58322C139.175 2.8229 139.281 2.92943 139.521 2.92943H141.572C141.811 2.92943 141.918 3.03595 141.918 3.27563V19.6538C141.918 19.8935 142.024 20 142.264 20H144.448C144.687 20 144.794 19.8935 144.794 19.6538V3.27563C144.794 3.03595 144.9 2.92943 145.14 2.92943H147.191C147.43 2.92943 147.537 2.8229 147.537 2.58322V0.399467Z" fill="white"/>
<path d="M152.167 3.32889C152.167 3.08921 152.274 2.98269 152.513 2.98269H183.911C184.151 2.98269 184.258 2.87617 184.258 2.66312V0.479361C184.258 0.23968 184.151 0.133156 183.911 0.133156H149.664C149.424 0.133156 149.318 0.23968 149.318 0.479361V19.6538C149.318 19.8935 149.424 20 149.664 20H183.911C184.151 20 184.258 19.8935 184.258 19.6538V17.47C184.258 17.257 184.151 17.1505 183.911 17.1505H152.513C152.274 17.1505 152.167 17.0439 152.167 16.8043V13.0493C152.167 12.8096 152.274 12.7031 152.513 12.7031H180.955C181.168 12.7031 181.275 12.5965 181.275 12.3569V10.1731C181.275 9.96005 181.168 9.85353 180.955 9.85353H152.513C152.274 9.85353 152.167 9.747 152.167 9.50732V3.32889Z" fill="white"/>
<path d="M204.984 0.0266308C204.798 0.0266308 204.691 0.106525 204.691 0.292944C204.612 0.90546 204.532 1.70439 204.452 1.83755C203.813 2.8229 202.747 4.55393 201.815 6.07191L201.256 6.97736C201.123 7.19041 200.857 7.19041 200.75 6.97736L200.191 6.07191C199.259 4.55393 198.167 2.8229 197.528 1.83755C197.394 1.6245 197.368 0.825566 197.368 0.319575C197.368 0.133156 197.261 0.0266308 197.075 0.0266308H194.785C194.598 0.0266308 194.492 0.133156 194.492 0.346205C194.492 1.25166 194.598 2.60985 195.131 3.40879C195.77 4.34088 196.782 6.07191 197.714 7.58988C198.46 8.84154 199.099 9.85353 199.498 10.466C199.525 10.5459 199.552 10.5992 199.552 10.6258V19.6804C199.552 19.8668 199.658 19.9734 199.845 19.9734H202.135C202.321 19.9734 202.428 19.8668 202.428 19.6804V10.6258C202.428 10.5992 202.454 10.5459 202.481 10.466C202.88 9.85353 203.493 8.81491 204.265 7.58988L206.875 3.40879C207.301 2.71638 207.488 1.22503 207.488 0.319575C207.514 0.133156 207.434 0.0266308 207.195 0.0266308H204.984Z" fill="white"/>
<path d="M238.477 2.87617C240.075 2.87617 241.38 4.07457 241.38 5.56591V14.4341C241.38 15.9254 240.075 17.1238 238.477 17.1238H213.976C212.378 17.1238 211.074 15.9254 211.074 14.4341V5.56591C211.074 4.07457 212.378 2.87617 213.976 2.87617H238.477ZM238.477 20C241.673 20 244.256 17.4967 244.256 14.4341V5.56591C244.256 2.4767 241.673 0 238.477 0H213.976C210.781 0 208.197 2.4767 208.197 5.56591V14.4341C208.197 17.4967 210.781 20 213.976 20H238.477Z" fill="white"/>
<path d="M263.799 20C266.995 20 269.605 17.4967 269.605 14.4341V0.292944C269.605 0.106525 269.498 0.0266308 269.312 0.0266308H266.995C266.808 0.0266308 266.702 0.106525 266.702 0.292944V14.4341C266.702 15.8988 265.397 17.1238 263.799 17.1238H253.013C251.389 17.1238 250.084 15.8988 250.084 14.4341V0.292944C250.084 0.106525 250.004 0.0266308 249.818 0.0266308H247.501C247.314 0.0266308 247.208 0.106525 247.208 0.292944V14.4341C247.208 17.4967 249.818 20 253.013 20H263.799Z" fill="white"/>
<path d="M310.246 14.5939C310.167 14.4607 310.087 14.4075 310.06 14.3808L308.089 12.1971C307.903 11.984 307.956 11.6911 308.196 11.5047C309.794 10.5726 310.806 8.86818 310.806 6.95073V5.40613C310.806 2.42344 308.302 0 305.213 0H273.069C272.776 0 272.617 0.21305 272.617 0.45273V19.5473C272.617 19.8402 272.776 20 273.069 20H275.067C275.306 20 275.519 19.8402 275.519 19.5473V12.783C275.519 12.49 275.653 12.3569 275.946 12.3569H304.121C304.254 12.3569 304.361 12.4101 304.441 12.49L307.85 16.245C307.876 16.2716 307.903 16.2983 307.903 16.2983C308.089 16.6445 308.329 17.1771 308.329 17.6831V19.5473C308.329 19.787 308.542 20 308.782 20H310.779C311.072 20 311.232 19.8402 311.232 19.5473V17.7097C311.232 16.1385 310.38 14.8069 310.246 14.5939ZM275.519 3.32889C275.519 3.03595 275.653 2.9028 275.946 2.9028H305.213C306.705 2.9028 307.903 4.02131 307.903 5.40613V6.95073C307.903 8.33555 306.705 9.45406 305.213 9.45406H275.946C275.653 9.45406 275.519 9.29427 275.519 9.00133V3.32889Z" fill="white"/>
<path d="M358.776 14.5939C358.696 14.4607 358.616 14.4075 358.589 14.3808L356.618 12.1971C356.432 11.984 356.485 11.6911 356.725 11.5047C358.323 10.5726 359.335 8.86818 359.335 6.95073V5.40613C359.335 2.42344 356.831 0 353.742 0H321.598C321.306 0 321.146 0.21305 321.146 0.45273V19.5473C321.146 19.8402 321.306 20 321.598 20H323.596C323.835 20 324.048 19.8402 324.048 19.5473V12.783C324.048 12.49 324.182 12.3569 324.475 12.3569H352.65C352.784 12.3569 352.89 12.4101 352.97 12.49L356.379 16.245C356.405 16.2716 356.432 16.2983 356.432 16.2983C356.618 16.6445 356.858 17.1771 356.858 17.6831V19.5473C356.858 19.787 357.071 20 357.311 20H359.308C359.601 20 359.761 19.8402 359.761 19.5473V17.7097C359.761 16.1385 358.909 14.8069 358.776 14.5939ZM324.048 3.32889C324.048 3.03595 324.182 2.9028 324.475 2.9028H353.742C355.234 2.9028 356.432 4.02131 356.432 5.40613V6.95073C356.432 8.33555 355.234 9.45406 353.742 9.45406H324.475C324.182 9.45406 324.048 9.29427 324.048 9.00133V3.32889Z" fill="white"/>
<path d="M364.358 3.32889C364.358 3.08921 364.465 2.98269 364.704 2.98269H396.102C396.342 2.98269 396.449 2.87617 396.449 2.66312V0.479361C396.449 0.23968 396.342 0.133156 396.102 0.133156H361.855C361.615 0.133156 361.509 0.23968 361.509 0.479361V19.6538C361.509 19.8935 361.615 20 361.855 20H396.102C396.342 20 396.449 19.8935 396.449 19.6538V17.47C396.449 17.257 396.342 17.1505 396.102 17.1505H364.704C364.465 17.1505 364.358 17.0439 364.358 16.8043V13.0493C364.358 12.8096 364.465 12.7031 364.704 12.7031H393.146C393.359 12.7031 393.466 12.5965 393.466 12.3569V10.1731C393.466 9.96005 393.359 9.85353 393.146 9.85353H364.704C364.465 9.85353 364.358 9.747 364.358 9.50732V3.32889Z" fill="white"/>
<path d="M412.82 9.02796C411.329 5.53928 409.731 1.91744 409.278 0.878828L408.959 0.159786C408.932 0.079894 408.852 0.0266308 408.746 0.0266308H406.961C406.855 0.0266308 406.775 0.079894 406.722 0.159786L406.402 0.878828C405.949 1.91744 404.378 5.53928 402.887 9.02796C401.848 11.4514 400.836 13.8216 400.144 15.3395C399.585 16.5912 399.505 18.1358 399.505 19.7337C399.505 19.8935 399.585 19.9734 399.744 19.9734L402.141 20L402.248 19.9201C402.328 19.8402 402.381 19.8402 402.381 19.7603C402.381 18.9348 402.461 17.3369 402.807 16.5113C402.94 16.2184 403.047 15.8988 403.233 15.5526C403.26 15.4461 403.34 15.3928 403.473 15.3928H412.234C412.341 15.3928 412.421 15.4461 412.448 15.5526C412.634 15.8988 412.74 16.2184 412.874 16.5113C413.273 17.3635 413.3 18.482 413.3 19.7603C413.3 19.9201 413.38 20 413.566 20H415.936C416.123 20 416.202 19.9201 416.202 19.7603C416.202 18.1625 416.123 16.6977 415.537 15.3395L412.82 9.02796ZM404.938 12.49C404.751 12.49 404.618 12.3302 404.698 12.1438C404.991 11.5047 405.257 10.8655 405.55 10.1465L407.601 5.35286C407.707 5.13981 408 5.13981 408.08 5.35286C408.693 6.76431 409.438 8.46871 410.157 10.1731C410.45 10.8389 410.69 11.5047 410.983 12.1438C411.063 12.3302 410.956 12.49 410.77 12.49H404.938Z" fill="white"/>
<path d="M423.117 20C423.33 20 423.437 19.8935 423.437 19.6804V17.4168C423.437 17.2304 423.303 17.0972 423.117 17.0972H420.853C420.64 17.0972 420.534 16.9907 420.534 16.8043V0.292944C420.534 0.106525 420.427 0 420.214 0H417.951C417.764 0 417.658 0.106525 417.658 0.292944V19.6804C417.658 19.8935 417.764 20 417.951 20H423.117Z" fill="white"/>
<path d="M451.325 0.399467C451.325 0.21305 451.165 0.0266308 450.952 0.0266308H448.795C448.582 0.0266308 448.449 0.133156 448.422 0.372836C448.422 0.772303 448.422 1.11851 448.236 1.30493L448.263 1.51798L439.368 9.77364C439.288 9.85353 439.208 9.88016 439.128 9.88016H438.995C438.915 9.88016 438.835 9.85353 438.755 9.77364L429.488 1.54461V1.38482C429.355 1.17177 429.301 0.745672 429.301 0.346205C429.301 0.106525 429.168 0 428.928 0H426.771C426.532 0 426.398 0.106525 426.398 0.346205V19.6538C426.398 19.8935 426.532 20 426.771 20H428.928C429.168 20 429.301 19.8935 429.301 19.6538V6.17843V5.93875C429.301 5.61917 429.674 5.45939 429.914 5.67244L437.69 12.5965C437.743 12.6498 437.823 12.6764 437.93 12.6764H440.247C440.327 12.6764 440.406 12.6498 440.486 12.5699L447.837 5.75233C448.05 5.53928 448.422 5.67244 448.422 5.99201L448.449 6.12517V19.6005C448.449 19.8402 448.556 19.9734 448.795 19.9734H450.952C451.192 19.9734 451.325 19.8402 451.325 19.6005V0.399467Z" fill="white"/>
</svg>
