<svg width="420" height="20" viewBox="0 0 420 20" fill="none" xmlns="http://www.w3.org/2000/svg">
<path d="M5.56591 20C8.76165 20 11.3449 17.5233 11.3449 14.4607V13.5553C11.3449 13.3688 11.2117 13.2357 11.0253 13.2357H8.78828C8.60186 13.2357 8.46871 13.3688 8.46871 13.5553V14.4607C8.46871 15.9254 7.16378 17.1238 5.56591 17.1238H5.77896C4.18109 17.1238 2.87616 15.9254 2.87616 14.4607V5.59254C2.87616 4.1012 4.18109 2.9028 5.77896 2.9028H5.56591C7.16378 2.9028 8.46871 4.1012 8.46871 5.59254V6.63116C8.46871 6.81758 8.57523 6.9241 8.78828 6.9241H11.0253C11.2117 6.9241 11.3449 6.81758 11.3449 6.63116V5.59254C11.3449 2.52996 8.76165 0.0266308 5.56591 0.0266308H5.77896C2.58322 0.0266308 0 2.52996 0 5.59254V14.4607C0 17.5233 2.58322 20 5.77896 20H5.56591Z" fill="white"/>
<path d="M51.2835 14.5939C51.2036 14.4607 51.1237 14.4075 51.0971 14.3808L49.1264 12.1971C48.94 11.984 48.9932 11.6911 49.2329 11.5047C50.8308 10.5726 51.8428 8.86818 51.8428 6.95073V5.40613C51.8428 2.42344 49.3394 0 46.2502 0H14.1064C13.8135 0 13.6537 0.21305 13.6537 0.45273V19.5473C13.6537 19.8402 13.8135 20 14.1064 20H16.1037C16.3434 20 16.5565 19.8402 16.5565 19.5473V12.783C16.5565 12.49 16.6896 12.3569 16.9826 12.3569H45.1583C45.2915 12.3569 45.398 12.4101 45.4779 12.49L48.8867 16.245C48.9133 16.2716 48.94 16.2983 48.94 16.2983C49.1264 16.6445 49.3661 17.1771 49.3661 17.6831V19.5473C49.3661 19.787 49.5791 20 49.8188 20H51.8161C52.1091 20 52.2688 19.8402 52.2688 19.5473V17.7097C52.2688 16.1385 51.4167 14.8069 51.2835 14.5939ZM16.5565 3.32889C16.5565 3.03595 16.6896 2.9028 16.9826 2.9028H46.2502C47.7416 2.9028 48.94 4.02131 48.94 5.40613V6.95073C48.94 8.33555 47.7416 9.45406 46.2502 9.45406H16.9826C16.6896 9.45406 16.5565 9.29427 16.5565 9.00133V3.32889Z" fill="white"/>
<path d="M56.8661 3.32889C56.8661 3.08921 56.9726 2.98269 57.2123 2.98269H88.6104C88.8501 2.98269 88.9566 2.87617 88.9566 2.66312V0.479361C88.9566 0.23968 88.8501 0.133156 88.6104 0.133156H54.3627C54.123 0.133156 54.0165 0.23968 54.0165 0.479361V19.6538C54.0165 19.8935 54.123 20 54.3627 20H88.6104C88.8501 20 88.9566 19.8935 88.9566 19.6538V17.47C88.9566 17.257 88.8501 17.1505 88.6104 17.1505H57.2123C56.9726 17.1505 56.8661 17.0439 56.8661 16.8043V13.0493C56.8661 12.8096 56.9726 12.7031 57.2123 12.7031H85.6543C85.8674 12.7031 85.9739 12.5965 85.9739 12.3569V10.1731C85.9739 9.96005 85.8674 9.85353 85.6543 9.85353H57.2123C56.9726 9.85353 56.8661 9.747 56.8661 9.50732V3.32889Z" fill="white"/>
<path d="M105.328 9.02796C103.837 5.53928 102.239 1.91744 101.786 0.878828L101.467 0.159786C101.44 0.079894 101.36 0.0266308 101.254 0.0266308H99.4695C99.3629 0.0266308 99.283 0.079894 99.2298 0.159786L98.9102 0.878828C98.4575 1.91744 96.8862 5.53928 95.3949 9.02796C94.3563 11.4514 93.3443 13.8216 92.6519 15.3395C92.0926 16.5912 92.0127 18.1358 92.0127 19.7337C92.0127 19.8935 92.0926 19.9734 92.2524 19.9734L94.6492 20L94.7557 19.9201C94.8356 19.8402 94.8889 19.8402 94.8889 19.7603C94.8889 18.9348 94.9688 17.3369 95.315 16.5113C95.4482 16.2184 95.5547 15.8988 95.7411 15.5526C95.7677 15.4461 95.8476 15.3928 95.9808 15.3928H104.742C104.849 15.3928 104.929 15.4461 104.955 15.5526C105.142 15.8988 105.248 16.2184 105.382 16.5113C105.781 17.3635 105.808 18.482 105.808 19.7603C105.808 19.9201 105.888 20 106.074 20H108.444C108.631 20 108.71 19.9201 108.71 19.7603C108.71 18.1625 108.631 16.6977 108.045 15.3395L105.328 9.02796ZM97.4455 12.49C97.2591 12.49 97.1259 12.3302 97.2058 12.1438C97.4987 11.5047 97.7651 10.8655 98.058 10.1465L100.109 5.35286C100.215 5.13981 100.508 5.13981 100.588 5.35286C101.2 6.76431 101.946 8.46871 102.665 10.1731C102.958 10.8389 103.198 11.5047 103.491 12.1438C103.571 12.3302 103.464 12.49 103.278 12.49H97.4455Z" fill="white"/>
<path d="M115.537 0.399467C115.537 0.159786 115.43 0.0532632 115.191 0.0532632H107.521C107.281 0.0532632 107.175 0.159786 107.175 0.399467V2.58322C107.175 2.8229 107.281 2.92943 107.521 2.92943H109.572C109.811 2.92943 109.918 3.03595 109.918 3.27563V19.6538C109.918 19.8935 110.024 20 110.264 20H112.448C112.687 20 112.794 19.8935 112.794 19.6538V3.27563C112.794 3.03595 112.9 2.92943 113.14 2.92943H115.191C115.43 2.92943 115.537 2.8229 115.537 2.58322V0.399467Z" fill="white"/>
<path d="M120.167 3.32889C120.167 3.08921 120.274 2.98269 120.513 2.98269H151.911C152.151 2.98269 152.258 2.87617 152.258 2.66312V0.479361C152.258 0.23968 152.151 0.133156 151.911 0.133156H117.664C117.424 0.133156 117.318 0.23968 117.318 0.479361V19.6538C117.318 19.8935 117.424 20 117.664 20H151.911C152.151 20 152.258 19.8935 152.258 19.6538V17.47C152.258 17.257 152.151 17.1505 151.911 17.1505H120.513C120.274 17.1505 120.167 17.0439 120.167 16.8043V13.0493C120.167 12.8096 120.274 12.7031 120.513 12.7031H148.955C149.168 12.7031 149.275 12.5965 149.275 12.3569V10.1731C149.275 9.96005 149.168 9.85353 148.955 9.85353H120.513C120.274 9.85353 120.167 9.747 120.167 9.50732V3.32889Z" fill="white"/>
<path d="M172.984 0.0266308C172.798 0.0266308 172.691 0.106525 172.691 0.292944C172.612 0.90546 172.532 1.70439 172.452 1.83755C171.813 2.8229 170.747 4.55393 169.815 6.07191L169.256 6.97736C169.123 7.19041 168.857 7.19041 168.75 6.97736L168.191 6.07191C167.259 4.55393 166.167 2.8229 165.528 1.83755C165.394 1.6245 165.368 0.825566 165.368 0.319575C165.368 0.133156 165.261 0.0266308 165.075 0.0266308H162.785C162.598 0.0266308 162.492 0.133156 162.492 0.346205C162.492 1.25166 162.598 2.60985 163.131 3.40879C163.77 4.34088 164.782 6.07191 165.714 7.58988C166.46 8.84154 167.099 9.85353 167.498 10.466C167.525 10.5459 167.552 10.5992 167.552 10.6258V19.6804C167.552 19.8668 167.658 19.9734 167.845 19.9734H170.135C170.321 19.9734 170.428 19.8668 170.428 19.6804V10.6258C170.428 10.5992 170.454 10.5459 170.481 10.466C170.88 9.85353 171.493 8.81491 172.265 7.58988L174.875 3.40879C175.301 2.71638 175.488 1.22503 175.488 0.319575C175.514 0.133156 175.434 0.0266308 175.195 0.0266308H172.984Z" fill="white"/>
<path d="M206.477 2.87617C208.075 2.87617 209.38 4.07457 209.38 5.56591V14.4341C209.38 15.9254 208.075 17.1238 206.477 17.1238H181.976C180.378 17.1238 179.074 15.9254 179.074 14.4341V5.56591C179.074 4.07457 180.378 2.87617 181.976 2.87617H206.477ZM206.477 20C209.673 20 212.256 17.4967 212.256 14.4341V5.56591C212.256 2.4767 209.673 0 206.477 0H181.976C178.781 0 176.197 2.4767 176.197 5.56591V14.4341C176.197 17.4967 178.781 20 181.976 20H206.477Z" fill="white"/>
<path d="M231.799 20C234.995 20 237.605 17.4967 237.605 14.4341V0.292944C237.605 0.106525 237.498 0.0266308 237.312 0.0266308H234.995C234.808 0.0266308 234.702 0.106525 234.702 0.292944V14.4341C234.702 15.8988 233.397 17.1238 231.799 17.1238H221.013C219.389 17.1238 218.084 15.8988 218.084 14.4341V0.292944C218.084 0.106525 218.004 0.0266308 217.818 0.0266308H215.501C215.314 0.0266308 215.208 0.106525 215.208 0.292944V14.4341C215.208 17.4967 217.818 20 221.013 20H231.799Z" fill="white"/>
<path d="M278.246 14.5939C278.167 14.4607 278.087 14.4075 278.06 14.3808L276.089 12.1971C275.903 11.984 275.956 11.6911 276.196 11.5047C277.794 10.5726 278.806 8.86818 278.806 6.95073V5.40613C278.806 2.42344 276.302 0 273.213 0H241.069C240.776 0 240.617 0.21305 240.617 0.45273V19.5473C240.617 19.8402 240.776 20 241.069 20H243.067C243.306 20 243.519 19.8402 243.519 19.5473V12.783C243.519 12.49 243.653 12.3569 243.946 12.3569H272.121C272.254 12.3569 272.361 12.4101 272.441 12.49L275.85 16.245C275.876 16.2716 275.903 16.2983 275.903 16.2983C276.089 16.6445 276.329 17.1771 276.329 17.6831V19.5473C276.329 19.787 276.542 20 276.782 20H278.779C279.072 20 279.232 19.8402 279.232 19.5473V17.7097C279.232 16.1385 278.38 14.8069 278.246 14.5939ZM243.519 3.32889C243.519 3.03595 243.653 2.9028 243.946 2.9028H273.213C274.705 2.9028 275.903 4.02131 275.903 5.40613V6.95073C275.903 8.33555 274.705 9.45406 273.213 9.45406H243.946C243.653 9.45406 243.519 9.29427 243.519 9.00133V3.32889Z" fill="white"/>
<path d="M326.776 14.5939C326.696 14.4607 326.616 14.4075 326.589 14.3808L324.618 12.1971C324.432 11.984 324.485 11.6911 324.725 11.5047C326.323 10.5726 327.335 8.86818 327.335 6.95073V5.40613C327.335 2.42344 324.831 0 321.742 0H289.598C289.306 0 289.146 0.21305 289.146 0.45273V19.5473C289.146 19.8402 289.306 20 289.598 20H291.596C291.835 20 292.048 19.8402 292.048 19.5473V12.783C292.048 12.49 292.182 12.3569 292.475 12.3569H320.65C320.784 12.3569 320.89 12.4101 320.97 12.49L324.379 16.245C324.405 16.2716 324.432 16.2983 324.432 16.2983C324.618 16.6445 324.858 17.1771 324.858 17.6831V19.5473C324.858 19.787 325.071 20 325.311 20H327.308C327.601 20 327.761 19.8402 327.761 19.5473V17.7097C327.761 16.1385 326.909 14.8069 326.776 14.5939ZM292.048 3.32889C292.048 3.03595 292.182 2.9028 292.475 2.9028H321.742C323.234 2.9028 324.432 4.02131 324.432 5.40613V6.95073C324.432 8.33555 323.234 9.45406 321.742 9.45406H292.475C292.182 9.45406 292.048 9.29427 292.048 9.00133V3.32889Z" fill="white"/>
<path d="M332.358 3.32889C332.358 3.08921 332.465 2.98269 332.704 2.98269H364.102C364.342 2.98269 364.449 2.87617 364.449 2.66312V0.479361C364.449 0.23968 364.342 0.133156 364.102 0.133156H329.855C329.615 0.133156 329.509 0.23968 329.509 0.479361V19.6538C329.509 19.8935 329.615 20 329.855 20H364.102C364.342 20 364.449 19.8935 364.449 19.6538V17.47C364.449 17.257 364.342 17.1505 364.102 17.1505H332.704C332.465 17.1505 332.358 17.0439 332.358 16.8043V13.0493C332.358 12.8096 332.465 12.7031 332.704 12.7031H361.146C361.359 12.7031 361.466 12.5965 361.466 12.3569V10.1731C361.466 9.96005 361.359 9.85353 361.146 9.85353H332.704C332.465 9.85353 332.358 9.747 332.358 9.50732V3.32889Z" fill="white"/>
<path d="M380.82 9.02796C379.329 5.53928 377.731 1.91744 377.278 0.878828L376.959 0.159786C376.932 0.079894 376.852 0.0266308 376.746 0.0266308H374.961C374.855 0.0266308 374.775 0.079894 374.722 0.159786L374.402 0.878828C373.949 1.91744 372.378 5.53928 370.887 9.02796C369.848 11.4514 368.836 13.8216 368.144 15.3395C367.585 16.5912 367.505 18.1358 367.505 19.7337C367.505 19.8935 367.585 19.9734 367.744 19.9734L370.141 20L370.248 19.9201C370.328 19.8402 370.381 19.8402 370.381 19.7603C370.381 18.9348 370.461 17.3369 370.807 16.5113C370.94 16.2184 371.047 15.8988 371.233 15.5526C371.26 15.4461 371.34 15.3928 371.473 15.3928H380.234C380.341 15.3928 380.421 15.4461 380.448 15.5526C380.634 15.8988 380.74 16.2184 380.874 16.5113C381.273 17.3635 381.3 18.482 381.3 19.7603C381.3 19.9201 381.38 20 381.566 20H383.936C384.123 20 384.202 19.9201 384.202 19.7603C384.202 18.1625 384.123 16.6977 383.537 15.3395L380.82 9.02796ZM372.938 12.49C372.751 12.49 372.618 12.3302 372.698 12.1438C372.991 11.5047 373.257 10.8655 373.55 10.1465L375.601 5.35286C375.707 5.13981 376 5.13981 376.08 5.35286C376.693 6.76431 377.438 8.46871 378.157 10.1731C378.45 10.8389 378.69 11.5047 378.983 12.1438C379.063 12.3302 378.956 12.49 378.77 12.49H372.938Z" fill="white"/>
<path d="M391.117 20C391.33 20 391.437 19.8935 391.437 19.6804V17.4168C391.437 17.2304 391.303 17.0972 391.117 17.0972H388.853C388.64 17.0972 388.534 16.9907 388.534 16.8043V0.292944C388.534 0.106525 388.427 0 388.214 0H385.951C385.764 0 385.658 0.106525 385.658 0.292944V19.6804C385.658 19.8935 385.764 20 385.951 20H391.117Z" fill="white"/>
<path d="M419.325 0.399467C419.325 0.21305 419.165 0.0266308 418.952 0.0266308H416.795C416.582 0.0266308 416.449 0.133156 416.422 0.372836C416.422 0.772303 416.422 1.11851 416.236 1.30493L416.263 1.51798L407.368 9.77364C407.288 9.85353 407.208 9.88016 407.128 9.88016H406.995C406.915 9.88016 406.835 9.85353 406.755 9.77364L397.488 1.54461V1.38482C397.355 1.17177 397.301 0.745672 397.301 0.346205C397.301 0.106525 397.168 0 396.928 0H394.771C394.532 0 394.398 0.106525 394.398 0.346205V19.6538C394.398 19.8935 394.532 20 394.771 20H396.928C397.168 20 397.301 19.8935 397.301 19.6538V6.17843V5.93875C397.301 5.61917 397.674 5.45939 397.914 5.67244L405.69 12.5965C405.743 12.6498 405.823 12.6764 405.93 12.6764H408.247C408.327 12.6764 408.406 12.6498 408.486 12.5699L415.837 5.75233C416.05 5.53928 416.422 5.67244 416.422 5.99201L416.449 6.12517V19.6005C416.449 19.8402 416.556 19.9734 416.795 19.9734H418.952C419.192 19.9734 419.325 19.8402 419.325 19.6005V0.399467Z" fill="white"/>
</svg>
