<svg width="345" height="20" viewBox="0 0 345 20" fill="none" xmlns="http://www.w3.org/2000/svg">
<path d="M2.84574 3.21808C2.84574 3.03192 2.95213 2.92553 3.1383 2.92553H12.8457C13.0319 2.92553 13.1383 2.84574 13.1383 2.65957V0.345745C13.1383 0.159574 13.0319 0.0797878 12.8457 0.0797878H0.265958C0.0797879 0.0797878 0 0.159574 0 0.345745V19.7074C0 19.8936 0.0797879 20 0.265958 20H12.8457C13.0319 20 13.1383 19.8936 13.1383 19.7074V17.3936C13.1383 17.2074 13.0319 17.1277 12.8457 17.1277H3.1383C2.95213 17.1277 2.84574 17.0213 2.84574 16.8351V12.9521C2.84574 12.766 2.95213 12.6862 3.1383 12.6862H9.86702C10.0532 12.6862 10.1596 12.5798 10.1596 12.3936V10.0798C10.1596 9.89362 10.0532 9.81383 9.86702 9.81383H3.1383C2.95213 9.81383 2.84574 9.70745 2.84574 9.52128V3.21808Z" fill="white"/>
<path d="M28.6835 16.4628C27.8856 15.3191 26.5824 13.1117 25.4122 11.25L24.8271 10.3191C24.7473 10.2128 24.7473 10.1064 24.8271 10L25.492 8.90957C26.6622 6.99468 28.0186 4.92021 28.7899 3.7234C29.3484 2.87234 29.508 1.38298 29.508 0.345745C29.5346 0.159574 29.4016 0.0265954 29.2154 0.0265954L26.9282 0C26.742 0 26.6356 0.106383 26.6356 0.292553C26.609 0.824468 26.5558 1.80851 26.3697 2.12766C25.5718 3.35106 24.1888 5.47872 23.0452 7.39362C22.9654 7.4734 22.9388 7.5266 22.9122 7.60638L22.7527 7.36702C21.5027 5.50532 20.2527 3.35106 19.4548 2.12766C19.242 1.80851 19.1888 0.851064 19.1888 0.292553C19.1888 0.106383 19.0559 0 18.8697 0L16.5824 0.0265954C16.3963 0.0265954 16.2899 0.159574 16.2899 0.345745C16.2899 1.38298 16.4495 2.87234 17.0346 3.7234C17.8324 4.94681 19.109 6.99468 20.3059 8.90957L20.9441 9.92021C20.9973 10 20.9973 10.1064 20.9441 10.2394C20.7314 10.5585 20.5452 10.9043 20.3324 11.2234L17.0346 16.4362C16.4761 17.3138 16.3165 18.5904 16.2899 19.6277C16.2899 19.8404 16.3963 19.9468 16.5824 19.9468L18.8697 19.9734C19.0559 19.9734 19.1888 19.867 19.1888 19.6809C19.1888 19.1755 19.2686 18.3245 19.4548 18.0319C20.2527 16.8351 21.4229 14.5479 22.7793 12.7394L22.859 12.633L22.9388 12.7926C24.1356 14.7074 25.4388 16.8085 26.2633 18.0585C26.4761 18.3511 26.5293 19.2021 26.5293 19.7074C26.5293 19.8936 26.6622 20 26.8484 20L29.1356 19.9734C29.3218 19.9734 29.4282 19.867 29.4282 19.6543C29.4016 18.6702 29.2952 17.3404 28.6835 16.4628Z" fill="white"/>
<path d="M34.1024 0.106383V0.132979H33.863C33.6237 0.132979 33.4109 0.345745 33.4109 0.585107V19.5479C33.4375 19.6277 33.4907 19.7074 33.5439 19.7872C33.6503 19.9202 33.7566 20 33.863 20H35.8577C36.1503 20 36.2832 19.8404 36.2832 19.5479V13.3245C36.2832 13.0851 36.496 12.8989 36.7354 12.8989H76.9481C80.0066 12.8989 82.48 10.4521 82.48 7.55319V5.45213C82.48 2.5 80.0066 0.106383 76.9481 0.106383H34.1024ZM79.6343 7.55319C79.6343 8.90957 78.4109 10.0266 76.9481 10.0266H36.7354C36.496 10.0266 36.2832 9.81383 36.2832 9.57447V3.43085C36.2832 3.1383 36.496 2.97872 36.7354 2.97872H76.9481C78.4109 2.97872 79.6343 4.09574 79.6343 5.45213V7.55319Z" fill="white"/>
<path d="M99.6308 20C99.8169 20 99.8967 19.9202 99.8967 19.734V17.3936C99.8967 17.2074 99.8169 17.1277 99.6308 17.1277H90.1361C89.9499 17.1277 89.8701 17.0479 89.8701 16.8617V0.345745C89.8701 0.159574 89.7903 0.0797878 89.6042 0.0797878H87.2637C87.0776 0.0797878 86.9978 0.159574 86.9978 0.345745V19.734C86.9978 19.9202 87.0776 20 87.2637 20H99.6308Z" fill="white"/>
<path d="M133.942 2.89894C135.538 2.89894 136.841 4.09574 136.841 5.5851V14.4415C136.841 15.9309 135.538 17.1277 133.942 17.1277H109.474C107.878 17.1277 106.575 15.9309 106.575 14.4415V5.5851C106.575 4.09574 107.878 2.89894 109.474 2.89894H133.942ZM133.942 20C137.133 20 139.713 17.5 139.713 14.4415V5.5851C139.713 2.5 137.133 0.0265954 133.942 0.0265954H109.474C106.282 0.0265954 103.703 2.5 103.703 5.5851V14.4415C103.703 17.5 106.282 20 109.474 20H133.942Z" fill="white"/>
<path d="M155.973 14.3883L153.845 12.0479C153.739 11.9415 153.739 11.7287 153.925 11.6489C155.6 10.7181 156.717 9.01596 156.717 6.99468V5.45213C156.717 2.5 154.217 0.0797878 151.132 0.0797878H143.686C143.499 0.0797878 143.42 0.159574 143.42 0.345745V19.734C143.42 19.9202 143.499 20 143.686 20H146.026C146.212 20 146.292 19.9202 146.292 19.734V12.633C146.292 12.4468 146.372 12.367 146.558 12.367H150.148C150.202 12.367 150.255 12.3936 150.335 12.4734L153.792 16.2766L153.819 16.3032C154.005 16.6223 154.271 17.1809 154.271 17.6862L154.244 19.734C154.244 19.9202 154.324 20 154.51 20H156.877C157.063 20 157.143 19.9202 157.143 19.734V17.7128C157.143 16.1436 156.292 14.8138 156.159 14.6011L155.973 14.3883ZM146.292 3.21808C146.292 3.03192 146.372 2.95213 146.558 2.95213H151.132C152.622 2.95213 153.819 4.06915 153.819 5.45213V6.99468C153.819 8.37766 152.622 9.49468 151.132 9.49468H146.558C146.372 9.49468 146.292 9.41489 146.292 9.22872V3.21808Z" fill="white"/>
<path d="M162.815 3.35106C162.815 3.1117 162.921 3.00532 163.161 3.00532H194.517C194.756 3.00532 194.863 2.89894 194.863 2.68617V0.505319C194.863 0.265957 194.756 0.159574 194.517 0.159574H160.315C160.076 0.159574 159.969 0.265957 159.969 0.505319V19.6543C159.969 19.8936 160.076 20 160.315 20H194.517C194.756 20 194.863 19.8936 194.863 19.6543V17.4734C194.863 17.2606 194.756 17.1543 194.517 17.1543H163.161C162.921 17.1543 162.815 17.0479 162.815 16.8085V13.0585C162.815 12.8191 162.921 12.7128 163.161 12.7128H191.565C191.778 12.7128 191.884 12.6064 191.884 12.367V10.1862C191.884 9.9734 191.778 9.86702 191.565 9.86702H163.161C162.921 9.86702 162.815 9.76064 162.815 9.52128V3.35106Z" fill="white"/>
<path d="M245.323 14.6011C245.243 14.4681 245.163 14.4149 245.136 14.3883L243.168 12.2074C242.982 11.9947 243.035 11.7021 243.275 11.516C244.871 10.5851 245.881 8.88298 245.881 6.96808V5.42553C245.881 2.44681 243.381 0.0265954 240.296 0.0265954H208.195C207.902 0.0265954 207.743 0.239362 207.743 0.478724V19.5479C207.743 19.8404 207.902 20 208.195 20H210.19C210.429 20 210.642 19.8404 210.642 19.5479V12.7926C210.642 12.5 210.775 12.367 211.067 12.367H239.206C239.339 12.367 239.445 12.4202 239.525 12.5L242.929 16.25C242.956 16.2766 242.982 16.3032 242.982 16.3032C243.168 16.6489 243.408 17.1809 243.408 17.6862V19.5479C243.408 19.7872 243.621 20 243.86 20H245.855C246.147 20 246.307 19.8404 246.307 19.5479V17.7128C246.307 16.1436 245.456 14.8138 245.323 14.6011ZM210.642 3.35106C210.642 3.05851 210.775 2.92553 211.067 2.92553H240.296C241.785 2.92553 242.982 4.04255 242.982 5.42553V6.96808C242.982 8.35106 241.785 9.46808 240.296 9.46808H211.067C210.775 9.46808 210.642 9.30851 210.642 9.01596V3.35106Z" fill="white"/>
<path d="M251.163 3.21808C251.163 3.03192 251.269 2.92553 251.455 2.92553H261.163C261.349 2.92553 261.455 2.84574 261.455 2.65957V0.345745C261.455 0.159574 261.349 0.0797878 261.163 0.0797878H248.583C248.397 0.0797878 248.317 0.159574 248.317 0.345745V19.7074C248.317 19.8936 248.397 20 248.583 20H261.163C261.349 20 261.455 19.8936 261.455 19.7074V17.3936C261.455 17.2074 261.349 17.1277 261.163 17.1277H251.455C251.269 17.1277 251.163 17.0213 251.163 16.8351V12.9521C251.163 12.766 251.269 12.6862 251.455 12.6862H258.184C258.37 12.6862 258.477 12.5798 258.477 12.3936V10.0798C258.477 9.89362 258.37 9.81383 258.184 9.81383H251.455C251.269 9.81383 251.163 9.70745 251.163 9.52128V3.21808Z" fill="white"/>
<path d="M278.19 9.04255C276.701 5.55851 275.105 1.94149 274.653 0.904255L274.334 0.186169C274.307 0.106383 274.228 0.0531908 274.121 0.0531908H272.339C272.233 0.0531908 272.153 0.106383 272.1 0.186169L271.781 0.904255C271.329 1.94149 269.76 5.55851 268.27 9.04255C267.233 11.4628 266.222 13.8298 265.531 15.3457C264.972 16.5957 264.893 18.1383 264.893 19.734C264.893 19.8936 264.972 19.9734 265.132 19.9734L267.526 20L267.632 19.9202C267.712 19.8404 267.765 19.8404 267.765 19.7606C267.765 18.9362 267.845 17.3404 268.19 16.516C268.323 16.2234 268.43 15.9043 268.616 15.5585C268.643 15.4521 268.722 15.3989 268.855 15.3989H277.605C277.712 15.3989 277.792 15.4521 277.818 15.5585C278.004 15.9043 278.111 16.2234 278.244 16.516C278.643 17.367 278.669 18.484 278.669 19.7606C278.669 19.9202 278.749 20 278.935 20H281.302C281.488 20 281.568 19.9202 281.568 19.7606C281.568 18.1649 281.488 16.7021 280.903 15.3457L278.19 9.04255ZM270.318 12.5C270.132 12.5 269.999 12.3404 270.079 12.1543C270.371 11.516 270.637 10.8777 270.93 10.1596L272.978 5.37234C273.084 5.15957 273.377 5.15957 273.456 5.37234C274.068 6.78191 274.813 8.48404 275.531 10.1862C275.823 10.8511 276.063 11.516 276.355 12.1543C276.435 12.3404 276.329 12.5 276.143 12.5H270.318Z" fill="white"/>
<path d="M296.959 20C297.145 20 297.225 19.9202 297.225 19.734V17.3936C297.225 17.2074 297.145 17.1277 296.959 17.1277H287.464C287.278 17.1277 287.198 17.0479 287.198 16.8617V0.345745C287.198 0.159574 287.118 0.0797878 286.932 0.0797878H284.592C284.406 0.0797878 284.326 0.159574 284.326 0.345745V19.734C284.326 19.9202 284.406 20 284.592 20H296.959Z" fill="white"/>
<path d="M326.031 0.425531C326.031 0.239362 325.871 0.0531908 325.658 0.0531908H323.504C323.291 0.0531908 323.158 0.159574 323.132 0.398936C323.132 0.797872 323.132 1.14362 322.945 1.32979L322.972 1.54255L314.089 9.78723C314.009 9.86702 313.929 9.89362 313.85 9.89362H313.717C313.637 9.89362 313.557 9.86702 313.477 9.78723L304.222 1.56915V1.40957C304.089 1.19681 304.036 0.771276 304.036 0.37234C304.036 0.132979 303.903 0.0265954 303.664 0.0265954H301.509C301.27 0.0265954 301.137 0.132979 301.137 0.37234V19.6543C301.137 19.8936 301.27 20 301.509 20H303.664C303.903 20 304.036 19.8936 304.036 19.6543V6.19681V5.95745C304.036 5.6383 304.408 5.47872 304.648 5.69149L312.414 12.6064C312.467 12.6596 312.547 12.6862 312.653 12.6862H314.967C315.047 12.6862 315.126 12.6596 315.206 12.5798L322.547 5.77128C322.759 5.55851 323.132 5.69149 323.132 6.01064L323.158 6.14362V19.6011C323.158 19.8404 323.265 19.9734 323.504 19.9734H325.658C325.898 19.9734 326.031 19.8404 326.031 19.6011V0.425531Z" fill="white"/>
<path d="M338.605 20C341.769 20 344.349 17.5266 344.349 14.4681C344.349 13.5372 343.924 11.25 342.541 10.5585L342.434 10.5053L333.711 7.10106L333.525 6.94149C333.339 6.62234 333.179 6.01064 333.179 5.6117C333.179 4.14894 334.482 2.95213 336.051 2.95213H338.605C340.174 2.95213 341.477 4.14894 341.477 5.6117V6.64894C341.477 6.83511 341.61 6.96808 341.796 6.96808H344.03C344.216 6.96808 344.349 6.83511 344.349 6.64894V5.6117C344.349 2.55319 341.769 0.0797878 338.605 0.0797878H336.051C332.886 0.0797878 330.307 2.55319 330.307 5.6117C330.307 6.51596 330.812 8.67021 332.142 9.54787L332.222 9.60106L340.972 13.0053C341.051 13.0319 341.105 13.0851 341.131 13.1649C341.317 13.484 341.477 14.0691 341.477 14.4681C341.477 15.9309 340.174 17.1277 338.605 17.1277H336.051C334.482 17.1277 333.179 15.9309 333.179 14.4681V13.4043C333.179 13.1915 333.073 13.0851 332.86 13.0851H330.626C330.44 13.0851 330.307 13.2181 330.307 13.4043V14.4681C330.307 17.5266 332.886 20 336.051 20H338.605Z" fill="white"/>
</svg>
