<svg width="270" height="20" viewBox="0 0 270 20" fill="none" xmlns="http://www.w3.org/2000/svg">
<path d="M6.81758 3.16911C6.81758 2.98269 6.89747 2.9028 7.08389 2.9028H10.466C10.6525 2.9028 10.7324 2.8229 10.7324 2.63649V0.292944C10.7324 0.106525 10.6525 0 10.466 0H0.266312C0.0798935 0 0 0.106525 0 0.292944V2.63649C0 2.8229 0.0798935 2.9028 0.266312 2.9028H3.64847C3.83489 2.9028 3.91478 2.98269 3.91478 3.16911V16.8309C3.91478 17.0173 3.83489 17.0972 3.64847 17.0972H0.266312C0.0798935 17.0972 0 17.2037 0 17.3901V19.7337C0 19.9201 0.0798935 20 0.266312 20H10.466C10.6525 20 10.7324 19.9201 10.7324 19.7337V17.3901C10.7324 17.2037 10.6525 17.0972 10.466 17.0972H7.08389C6.89747 17.0972 6.81758 17.0173 6.81758 16.8309V3.16911Z" fill="white"/>
<path d="M15.1719 20C15.3583 20 15.4382 19.9201 15.4382 19.7337V7.50999C15.4382 7.21704 15.7577 7.13715 15.9442 7.3502C17.0893 9.08123 18.1812 10.6791 18.2078 10.7057L18.2611 10.759C18.5274 11.1851 19.4861 12.5166 20.4448 13.9547C21.5101 15.526 22.6818 17.3635 23.4808 18.3755C23.6139 18.5619 23.7205 19.2011 23.8003 19.7337C23.8003 19.9201 23.8802 20 24.0667 20L26.4368 19.9734C26.6233 19.9734 26.7031 19.8935 26.7031 19.7071V0.319575C26.7031 0.133156 26.6233 0.0532632 26.4368 0.0532632H24.0667C23.8802 0.0532632 23.8003 0.133156 23.8003 0.319575V12.8895C23.8003 13.1824 23.4541 13.2623 23.321 13.0226C23.1346 12.8096 23.0014 12.5699 22.8416 12.3302L20.578 9.05459C20.2584 8.57523 16.9828 3.75499 15.6246 1.86418C15.4914 1.65113 15.4382 0.825566 15.4382 0.319575C15.4382 0.133156 15.3583 0.0532632 15.1719 0.0532632H12.8283C12.6419 0.0532632 12.562 0.133156 12.562 0.319575V19.7337C12.562 19.9201 12.6419 20 12.8283 20H15.1719Z" fill="white"/>
<path d="M32.3161 3.16911C32.3161 2.98269 32.4226 2.9028 32.609 2.9028H67.1496C67.336 2.9028 67.4159 2.79627 67.4159 2.60985V0.292944C67.4159 0.106525 67.336 0 67.1496 0H29.7329C29.5464 0 29.4399 0.106525 29.4399 0.292944V19.7071C29.4399 19.8935 29.5464 20 29.7329 20H32.0231C32.2095 20 32.3161 19.8935 32.3161 19.7071V12.9694C32.3161 12.783 32.4226 12.6764 32.609 12.6764H64.1403C64.3267 12.6764 64.4333 12.5965 64.4333 12.4101V10.0932C64.4333 9.90679 64.3267 9.80027 64.1403 9.80027H32.609C32.4226 9.80027 32.3161 9.69374 32.3161 9.50732V3.16911Z" fill="white"/>
<path d="M77.9036 19.9734C81.0994 19.9734 83.6826 17.4967 83.6826 14.4341V0.346205C83.6826 0.159786 83.5761 0.0532632 83.3896 0.0532632H81.0994C80.9129 0.0532632 80.8064 0.159786 80.8064 0.346205V14.4341C80.8064 15.8988 79.5015 17.0972 77.9036 17.0972H75.3737C73.7758 17.0972 72.4709 15.8988 72.4709 14.4341V0.346205C72.4709 0.159786 72.3643 0.0532632 72.1779 0.0532632H69.8876C69.7012 0.0532632 69.5947 0.159786 69.5947 0.346205V14.4341C69.5947 17.4967 72.1779 19.9734 75.3737 19.9734H77.9036Z" fill="white"/>
<path d="M122.446 20C125.642 20 128.225 17.4967 128.225 14.4341C128.225 13.502 127.852 11.2383 126.414 10.5193L126.308 10.466L90.196 7.03063C90.0628 7.00399 89.9563 6.9241 89.903 6.81758C89.7166 6.47137 89.5835 5.91212 89.5835 5.56591C89.5835 4.1012 90.8884 2.9028 92.4863 2.9028H122.446C124.044 2.9028 125.349 4.1012 125.349 5.56591V6.55127C125.349 6.79095 125.482 6.9241 125.722 6.9241H127.879C128.119 6.9241 128.225 6.79095 128.225 6.55127V5.56591C128.225 2.50333 125.642 0 122.446 0H92.4863C89.2905 0 86.7073 2.50333 86.7073 5.56591C86.7073 6.47137 87.2133 8.6285 88.5448 9.50732L88.6247 9.56059L124.763 13.0226C124.896 13.0226 124.976 13.0759 125.056 13.2091C125.189 13.5553 125.349 14.1145 125.349 14.4341C125.349 15.9254 124.044 17.1238 122.446 17.1238H92.4863C90.8884 17.1238 89.5835 15.9254 89.5835 14.4341V13.3955C89.5835 13.1558 89.4769 13.0493 89.2373 13.0493H87.0535C86.8138 13.0493 86.7073 13.1558 86.7073 13.3955V14.4341C86.7073 17.4967 89.2905 20 92.4863 20H122.446Z" fill="white"/>
<path d="M133.119 3.19574C133.119 3.00932 133.225 2.9028 133.411 2.9028H143.132C143.318 2.9028 143.425 2.8229 143.425 2.63649V0.319575C143.425 0.133156 143.318 0.0532632 143.132 0.0532632H130.535C130.349 0.0532632 130.269 0.133156 130.269 0.319575V19.7071C130.269 19.8935 130.349 20 130.535 20H143.132C143.318 20 143.425 19.8935 143.425 19.7071V17.3901C143.425 17.2037 143.318 17.1238 143.132 17.1238H133.411C133.225 17.1238 133.119 17.0173 133.119 16.8309V12.9427C133.119 12.7563 133.225 12.6764 133.411 12.6764H140.149C140.336 12.6764 140.442 12.5699 140.442 12.3835V10.0666C140.442 9.88016 140.336 9.80027 140.149 9.80027H133.411C133.225 9.80027 133.119 9.69374 133.119 9.50732V3.19574Z" fill="white"/>
<path d="M167.685 0.292944C167.685 0.106525 167.605 0.0266308 167.419 0.0266308H153.864C153.677 0.0266308 153.597 0.106525 153.597 0.292944V2.68975C153.597 2.87617 153.677 2.95606 153.864 2.95606H158.923C159.11 2.95606 159.19 3.03595 159.19 3.22237V19.7337C159.19 19.9201 159.27 20 159.456 20H161.853C162.039 20 162.119 19.9201 162.119 19.7337V3.22237C162.119 3.03595 162.199 2.95606 162.359 2.95606H167.419C167.605 2.95606 167.685 2.87617 167.685 2.68975V0.292944Z" fill="white"/>
<path d="M200.469 2.87617C202.067 2.87617 203.372 4.07457 203.372 5.56591V14.4341C203.372 15.9254 202.067 17.1238 200.469 17.1238H175.969C174.371 17.1238 173.066 15.9254 173.066 14.4341V5.56591C173.066 4.07457 174.371 2.87617 175.969 2.87617H200.469ZM200.469 20C203.665 20 206.248 17.4967 206.248 14.4341V5.56591C206.248 2.4767 203.665 0 200.469 0H175.969C172.773 0 170.19 2.4767 170.19 5.56591V14.4341C170.19 17.4967 172.773 20 175.969 20H200.469Z" fill="white"/>
<path d="M222.086 17.9494C222.086 16.4314 221.26 15.0466 221.074 14.8602C221.047 14.7803 220.994 14.727 220.914 14.6471L216.653 9.96005C216.547 9.85353 216.547 9.747 216.653 9.64048L220.328 5.61917C220.355 5.53928 220.408 5.51265 220.488 5.40613C220.621 5.19308 221.473 3.86152 221.473 2.29028V0.23968C221.473 0.079894 221.394 0 221.234 0H218.837C218.677 0 218.597 0.079894 218.597 0.23968V2.31691C218.597 2.8229 218.358 3.38216 218.145 3.70173C218.145 3.72836 218.145 3.72836 218.118 3.72836L212.632 9.77364C212.499 9.96005 212.232 9.8269 212.232 9.61385V0.292944C212.232 0.133156 212.153 0.0532632 211.993 0.0532632H209.596C209.436 0.0532632 209.356 0.133156 209.356 0.292944V19.7603C209.356 19.9201 209.436 20 209.596 20H211.993C212.153 20 212.232 19.9201 212.232 19.7603V14.6205C212.232 14.5939 212.259 14.5406 212.286 14.4607L214.39 12.1438C214.523 12.0107 214.629 12.0107 214.762 12.1438L218.73 16.5113C218.73 16.5379 218.73 16.5379 218.757 16.5646C218.943 16.8575 219.21 17.4434 219.21 17.9494L219.183 19.7337C219.183 19.8935 219.263 19.9734 219.423 19.9734H221.846C222.006 19.9734 222.086 19.8935 222.086 19.7337V17.9494Z" fill="white"/>
<path d="M226.302 3.19574C226.302 3.00932 226.408 2.9028 226.595 2.9028H236.315C236.501 2.9028 236.608 2.8229 236.608 2.63649V0.319575C236.608 0.133156 236.501 0.0532632 236.315 0.0532632H223.718C223.532 0.0532632 223.452 0.133156 223.452 0.319575V19.7071C223.452 19.8935 223.532 20 223.718 20H236.315C236.501 20 236.608 19.8935 236.608 19.7071V17.3901C236.608 17.2037 236.501 17.1238 236.315 17.1238H226.595C226.408 17.1238 226.302 17.0173 226.302 16.8309V12.9427C226.302 12.7563 226.408 12.6764 226.595 12.6764H233.332C233.519 12.6764 233.625 12.5699 233.625 12.3835V10.0666C233.625 9.88016 233.519 9.80027 233.332 9.80027H226.595C226.408 9.80027 226.302 9.69374 226.302 9.50732V3.19574Z" fill="white"/>
<path d="M269.696 0.346205C269.696 0.106525 269.589 0 269.349 0H267.166C266.926 0 266.819 0.106525 266.819 0.346205V14.7803C266.819 15.0732 266.526 15.2064 266.287 15.0732L242.958 1.99734L242.851 1.91744C242.532 1.51798 242.505 0.852197 242.479 0.399467C242.479 0.159786 242.372 0.0532632 242.132 0.0532632H239.949C239.709 0.0532632 239.602 0.159786 239.602 0.399467V19.6538C239.602 19.8935 239.709 20 239.949 20H242.132L242.292 19.8935C242.372 19.8136 242.479 19.7603 242.479 19.6538V5.59254C242.479 5.2996 242.771 5.16644 243.011 5.2996L266.447 18.4288L266.553 18.5087C266.74 18.8016 266.793 19.281 266.793 19.7337C266.819 19.9201 266.953 20 267.166 20H269.349L269.509 19.9201C269.589 19.8402 269.696 19.787 269.696 19.6804V0.346205Z" fill="white"/>
</svg>
