<svg width="259" height="20" viewBox="0 0 259 20" fill="none" xmlns="http://www.w3.org/2000/svg">
<path d="M8.30892 20C11.478 20 14.0613 17.5233 14.0613 14.4607C14.0613 13.5286 13.6352 11.2383 12.2503 10.5459L12.1438 10.4927L3.40879 7.08389L3.22237 6.9241C3.03595 6.60453 2.87616 5.99201 2.87616 5.59254C2.87616 4.12783 4.18109 2.92943 5.75233 2.92943H8.30892C9.88016 2.92943 11.1851 4.12783 11.1851 5.59254V6.63116C11.1851 6.81758 11.3182 6.95073 11.5047 6.95073H13.7417C13.9281 6.95073 14.0613 6.81758 14.0613 6.63116V5.59254C14.0613 2.52996 11.478 0.0532632 8.30892 0.0532632H5.75233C2.58322 0.0532632 0 2.52996 0 5.59254C0 6.498 0.505992 8.65513 1.83755 9.53395L1.91744 9.58722L10.6791 12.996C10.759 13.0226 10.8123 13.0759 10.8389 13.1558C11.0253 13.4754 11.1851 14.0612 11.1851 14.4607C11.1851 15.9254 9.88016 17.1238 8.30892 17.1238H5.75233C4.18109 17.1238 2.87616 15.9254 2.87616 14.4607V13.3955C2.87616 13.1824 2.76964 13.0759 2.55659 13.0759H0.319574C0.133156 13.0759 0 13.2091 0 13.3955V14.4607C0 17.5233 2.58322 20 5.75233 20H8.30892Z" fill="white"/>
<path d="M19.2599 3.32889C19.2599 3.08921 19.3665 2.98269 19.6061 2.98269H51.0043C51.244 2.98269 51.3505 2.87617 51.3505 2.66312V0.479361C51.3505 0.23968 51.244 0.133156 51.0043 0.133156H16.7566C16.5169 0.133156 16.4104 0.23968 16.4104 0.479361V19.6538C16.4104 19.8935 16.5169 20 16.7566 20H51.0043C51.244 20 51.3505 19.8935 51.3505 19.6538V17.47C51.3505 17.257 51.244 17.1505 51.0043 17.1505H19.6061C19.3665 17.1505 19.2599 17.0439 19.2599 16.8043V13.0493C19.2599 12.8096 19.3665 12.7031 19.6061 12.7031H48.0482C48.2613 12.7031 48.3678 12.5965 48.3678 12.3569V10.1731C48.3678 9.96005 48.2613 9.85353 48.0482 9.85353H19.6061C19.3665 9.85353 19.2599 9.747 19.2599 9.50732V3.32889Z" fill="white"/>
<path d="M67.0831 20C67.2695 20 67.3494 19.9201 67.3494 19.7337V17.3901C67.3494 17.2037 67.2695 17.1238 67.0831 17.1238H57.5757C57.3893 17.1238 57.3094 17.0439 57.3094 16.8575V0.319575C57.3094 0.133156 57.2295 0.0532632 57.0431 0.0532632H54.6996C54.5131 0.0532632 54.4333 0.133156 54.4333 0.319575V19.7337C54.4333 19.9201 54.5131 20 54.6996 20H67.0831Z" fill="white"/>
<path d="M71.482 3.19574C71.482 3.00932 71.5885 2.9028 71.7749 2.9028H81.4953C81.6817 2.9028 81.7882 2.8229 81.7882 2.63649V0.319575C81.7882 0.133156 81.6817 0.0532632 81.4953 0.0532632H68.8988C68.7123 0.0532632 68.6324 0.133156 68.6324 0.319575V19.7071C68.6324 19.8935 68.7123 20 68.8988 20H81.4953C81.6817 20 81.7882 19.8935 81.7882 19.7071V17.3901C81.7882 17.2037 81.6817 17.1238 81.4953 17.1238H71.7749C71.5885 17.1238 71.482 17.0173 71.482 16.8309V12.9427C71.482 12.7563 71.5885 12.6764 71.7749 12.6764H78.5126C78.699 12.6764 78.8055 12.5699 78.8055 12.3835V10.0666C78.8055 9.88016 78.699 9.80027 78.5126 9.80027H71.7749C71.5885 9.80027 71.482 9.69374 71.482 9.50732V3.19574Z" fill="white"/>
<path d="M90.3487 20C93.5444 20 96.1277 17.5233 96.1277 14.4607V13.5553C96.1277 13.3688 95.9945 13.2357 95.8081 13.2357H93.5711C93.3846 13.2357 93.2515 13.3688 93.2515 13.5553V14.4607C93.2515 15.9254 91.9466 17.1238 90.3487 17.1238H90.5617C88.9639 17.1238 87.659 15.9254 87.659 14.4607V5.59254C87.659 4.1012 88.9639 2.9028 90.5617 2.9028H90.3487C91.9466 2.9028 93.2515 4.1012 93.2515 5.59254V6.63116C93.2515 6.81758 93.358 6.9241 93.5711 6.9241H95.8081C95.9945 6.9241 96.1277 6.81758 96.1277 6.63116V5.59254C96.1277 2.52996 93.5444 0.0266308 90.3487 0.0266308H90.5617C87.366 0.0266308 84.7828 2.52996 84.7828 5.59254V14.4607C84.7828 17.5233 87.366 20 90.5617 20H90.3487Z" fill="white"/>
<path d="M112.524 0.292944C112.524 0.106525 112.444 0.0266308 112.258 0.0266308H98.7028C98.5163 0.0266308 98.4365 0.106525 98.4365 0.292944V2.68975C98.4365 2.87617 98.5163 2.95606 98.7028 2.95606H103.763C103.949 2.95606 104.029 3.03595 104.029 3.22237V19.7337C104.029 19.9201 104.109 20 104.295 20H106.692C106.879 20 106.958 19.9201 106.958 19.7337V3.22237C106.958 3.03595 107.038 2.95606 107.198 2.95606H112.258C112.444 2.95606 112.524 2.87617 112.524 2.68975V0.292944Z" fill="white"/>
<path d="M159.837 14.5939C159.757 14.4607 159.677 14.4075 159.65 14.3808L157.68 12.1971C157.493 11.984 157.546 11.6911 157.786 11.5047C159.384 10.5726 160.396 8.86818 160.396 6.95073V5.40612C160.396 2.42344 157.893 0 154.803 0H122.66C122.367 0 122.207 0.21305 122.207 0.45273V19.5473C122.207 19.8402 122.367 20 122.66 20H124.657C124.897 20 125.11 19.8402 125.11 19.5473V12.783C125.11 12.49 125.243 12.3569 125.536 12.3569H153.712C153.845 12.3569 153.951 12.4101 154.031 12.49L157.44 16.245C157.466 16.2716 157.493 16.2983 157.493 16.2983C157.68 16.6445 157.919 17.1771 157.919 17.6831V19.5473C157.919 19.7869 158.132 20 158.372 20H160.369C160.662 20 160.822 19.8402 160.822 19.5473V17.7097C160.822 16.1385 159.97 14.8069 159.837 14.5939ZM125.11 3.32889C125.11 3.03595 125.243 2.9028 125.536 2.9028H154.803C156.295 2.9028 157.493 4.02131 157.493 5.40612V6.95073C157.493 8.33555 156.295 9.45406 154.803 9.45406H125.536C125.243 9.45406 125.11 9.29427 125.11 9.00133V3.32889Z" fill="white"/>
<path d="M165.419 3.32889C165.419 3.08921 165.526 2.98269 165.765 2.98269H197.164C197.403 2.98269 197.51 2.87617 197.51 2.66312V0.479361C197.51 0.23968 197.403 0.133156 197.164 0.133156H162.916C162.676 0.133156 162.57 0.23968 162.57 0.479361V19.6538C162.57 19.8935 162.676 20 162.916 20H197.164C197.403 20 197.51 19.8935 197.51 19.6538V17.47C197.51 17.257 197.403 17.1505 197.164 17.1505H165.765C165.526 17.1505 165.419 17.0439 165.419 16.8043V13.0493C165.419 12.8096 165.526 12.7031 165.765 12.7031H194.208C194.421 12.7031 194.527 12.5965 194.527 12.3569V10.1731C194.527 9.96005 194.421 9.85353 194.208 9.85353H165.765C165.526 9.85353 165.419 9.747 165.419 9.50732V3.32889Z" fill="white"/>
<path d="M213.881 9.02796C212.39 5.53928 210.792 1.91744 210.34 0.878828L210.02 0.159786C209.993 0.079894 209.913 0.0266308 209.807 0.0266308H208.023C207.916 0.0266308 207.836 0.079894 207.783 0.159786L207.463 0.878828C207.011 1.91744 205.439 5.53928 203.948 9.02796C202.909 11.4514 201.897 13.8216 201.205 15.3395C200.646 16.5912 200.566 18.1358 200.566 19.7337C200.566 19.8935 200.646 19.9734 200.806 19.9734L203.202 20L203.309 19.9201C203.389 19.8402 203.442 19.8402 203.442 19.7603C203.442 18.9348 203.522 17.3369 203.868 16.5113C204.001 16.2184 204.108 15.8988 204.294 15.5526C204.321 15.4461 204.401 15.3928 204.534 15.3928H213.296C213.402 15.3928 213.482 15.4461 213.509 15.5526C213.695 15.8988 213.802 16.2184 213.935 16.5113C214.334 17.3635 214.361 18.482 214.361 19.7603C214.361 19.9201 214.441 20 214.627 20H216.997C217.184 20 217.264 19.9201 217.264 19.7603C217.264 18.1624 217.184 16.6977 216.598 15.3395L213.881 9.02796ZM205.999 12.49C205.812 12.49 205.679 12.3302 205.759 12.1438C206.052 11.5047 206.318 10.8655 206.611 10.1465L208.662 5.35286C208.768 5.13981 209.061 5.13981 209.141 5.35286C209.754 6.76431 210.499 8.46871 211.218 10.1731C211.511 10.8389 211.751 11.5047 212.044 12.1438C212.124 12.3302 212.017 12.49 211.831 12.49H205.999Z" fill="white"/>
<path d="M230.849 20C231.035 20 231.115 19.9201 231.115 19.7337V17.3901C231.115 17.2037 231.035 17.1238 230.849 17.1238H221.342C221.155 17.1238 221.075 17.0439 221.075 16.8575V0.319575C221.075 0.133156 220.996 0.0532632 220.809 0.0532632H218.466C218.279 0.0532632 218.199 0.133156 218.199 0.319575V19.7337C218.199 19.9201 218.279 20 218.466 20H230.849Z" fill="white"/>
<path d="M258.628 0.399467C258.628 0.21305 258.468 0.0266308 258.255 0.0266308H256.098C255.885 0.0266308 255.752 0.133156 255.725 0.372836C255.725 0.772303 255.725 1.11851 255.539 1.30493L255.565 1.51798L246.671 9.77363C246.591 9.85353 246.511 9.88016 246.431 9.88016H246.298C246.218 9.88016 246.138 9.85353 246.058 9.77363L236.791 1.54461V1.38482C236.657 1.17177 236.604 0.745672 236.604 0.346205C236.604 0.106525 236.471 0 236.231 0H234.074C233.834 0 233.701 0.106525 233.701 0.346205V19.6538C233.701 19.8935 233.834 20 234.074 20H236.231C236.471 20 236.604 19.8935 236.604 19.6538V6.17843V5.93875C236.604 5.61917 236.977 5.45939 237.217 5.67244L244.993 12.5965C245.046 12.6498 245.126 12.6764 245.233 12.6764H247.55C247.629 12.6764 247.709 12.6498 247.789 12.5699L255.139 5.75233C255.352 5.53928 255.725 5.67244 255.725 5.99201L255.752 6.12517V19.6005C255.752 19.8402 255.858 19.9734 256.098 19.9734H258.255C258.495 19.9734 258.628 19.8402 258.628 19.6005V0.399467Z" fill="white"/>
</svg>
