<svg width="307" height="20" viewBox="0 0 307 20" fill="none" xmlns="http://www.w3.org/2000/svg">
<path d="M8.30892 20C11.478 20 14.0613 17.5233 14.0613 14.4607C14.0613 13.5286 13.6352 11.2383 12.2503 10.5459L12.1438 10.4927L3.40879 7.08389L3.22237 6.9241C3.03595 6.60453 2.87617 5.99201 2.87617 5.59254C2.87617 4.12783 4.18109 2.92943 5.75233 2.92943H8.30892C9.88016 2.92943 11.1851 4.12783 11.1851 5.59254V6.63116C11.1851 6.81758 11.3182 6.95073 11.5047 6.95073H13.7417C13.9281 6.95073 14.0613 6.81758 14.0613 6.63116V5.59254C14.0613 2.52996 11.478 0.0532632 8.30892 0.0532632H5.75233C2.58322 0.0532632 0 2.52996 0 5.59254C0 6.498 0.505992 8.65513 1.83755 9.53396L1.91744 9.58722L10.6791 12.996C10.759 13.0226 10.8123 13.0759 10.8389 13.1558C11.0253 13.4754 11.1851 14.0613 11.1851 14.4607C11.1851 15.9254 9.88016 17.1238 8.30892 17.1238H5.75233C4.18109 17.1238 2.87617 15.9254 2.87617 14.4607V13.3955C2.87617 13.1824 2.76964 13.0759 2.55659 13.0759H0.319574C0.133156 13.0759 0 13.2091 0 13.3955V14.4607C0 17.5233 2.58322 20 5.75233 20H8.30892Z" fill="white"/>
<path d="M18.2197 3.19574C18.2197 3.00932 18.3262 2.9028 18.5126 2.9028H28.233C28.4194 2.9028 28.5259 2.8229 28.5259 2.63649V0.319575C28.5259 0.133156 28.4194 0.0532632 28.233 0.0532632H15.6364C15.45 0.0532632 15.3701 0.133156 15.3701 0.319575V19.7071C15.3701 19.8935 15.45 20 15.6364 20H28.233C28.4194 20 28.5259 19.8935 28.5259 19.7071V17.3901C28.5259 17.2037 28.4194 17.1238 28.233 17.1238H18.5126C18.3262 17.1238 18.2197 17.0173 18.2197 16.8309V12.9427C18.2197 12.7563 18.3262 12.6764 18.5126 12.6764H25.2503C25.4367 12.6764 25.5432 12.5699 25.5432 12.3835V10.0666C25.5432 9.88016 25.4367 9.80027 25.2503 9.80027H18.5126C18.3262 9.80027 18.2197 9.69374 18.2197 9.50732V3.19574Z" fill="white"/>
<path d="M36.9799 20C37.1929 20 37.2994 19.8935 37.2994 19.6804V17.4168C37.2994 17.2304 37.1663 17.0972 36.9799 17.0972H34.7162C34.5032 17.0972 34.3966 16.9907 34.3966 16.8043V0.292944C34.3966 0.106525 34.2901 0 34.0771 0H31.8134C31.627 0 31.5205 0.106525 31.5205 0.292944V19.6804C31.5205 19.8935 31.627 20 31.8134 20H36.9799Z" fill="white"/>
<path d="M43.0043 3.32889C43.0043 3.08921 43.1109 2.98269 43.3505 2.98269H74.7487C74.9883 2.98269 75.0949 2.87617 75.0949 2.66312V0.479361C75.0949 0.23968 74.9883 0.133156 74.7487 0.133156H40.501C40.2613 0.133156 40.1548 0.23968 40.1548 0.479361V19.6538C40.1548 19.8935 40.2613 20 40.501 20H74.7487C74.9883 20 75.0949 19.8935 75.0949 19.6538V17.47C75.0949 17.257 74.9883 17.1505 74.7487 17.1505H43.3505C43.1109 17.1505 43.0043 17.0439 43.0043 16.8043V13.0493C43.0043 12.8096 43.1109 12.7031 43.3505 12.7031H71.7926C72.0057 12.7031 72.1122 12.5965 72.1122 12.3569V10.1731C72.1122 9.96005 72.0057 9.85353 71.7926 9.85353H43.3505C43.1109 9.85353 43.0043 9.747 43.0043 9.50732V3.32889Z" fill="white"/>
<path d="M86.4599 19.9734C89.6557 19.9734 92.2389 17.4967 92.2389 14.4341V13.4487C92.2389 13.2889 92.159 13.2091 91.9992 13.2091H89.5758C89.4426 13.2091 89.3627 13.2889 89.3627 13.4487V14.4341C89.3627 15.8988 88.0578 17.0972 86.4599 17.0972H83.93C82.3321 17.0972 81.0272 15.8988 81.0272 14.4341V5.56591C81.0272 4.07457 82.3321 2.87617 83.93 2.87617H86.4599C88.0578 2.87617 89.3627 4.07457 89.3627 5.56591V6.68442C89.3627 6.81758 89.4426 6.89747 89.5758 6.89747H91.9992C92.159 6.89747 92.2389 6.81758 92.2389 6.68442V5.56591C92.2389 2.50333 89.6557 0 86.4599 0H83.93C80.7342 0 78.151 2.50333 78.151 5.56591V14.4341C78.151 17.4967 80.7342 19.9734 83.93 19.9734H86.4599Z" fill="white"/>
<path d="M108.519 0.292944C108.519 0.106525 108.439 0.0266308 108.253 0.0266308H94.6977C94.5113 0.0266308 94.4314 0.106525 94.4314 0.292944V2.68975C94.4314 2.87617 94.5113 2.95606 94.6977 2.95606H99.7576C99.944 2.95606 100.024 3.03595 100.024 3.22237V19.7337C100.024 19.9201 100.104 20 100.29 20H102.687C102.873 20 102.953 19.9201 102.953 19.7337V3.22237C102.953 3.03595 103.033 2.95606 103.193 2.95606H108.253C108.439 2.95606 108.519 2.87617 108.519 2.68975V0.292944Z" fill="white"/>
<path d="M123.768 20C126.963 20 129.547 17.5233 129.547 14.4607V13.5553C129.547 13.3688 129.413 13.2357 129.227 13.2357H126.99C126.804 13.2357 126.67 13.3688 126.67 13.5553V14.4607C126.67 15.9254 125.366 17.1238 123.768 17.1238H123.981C122.383 17.1238 121.078 15.9254 121.078 14.4607V5.59254C121.078 4.1012 122.383 2.9028 123.981 2.9028H123.768C125.366 2.9028 126.67 4.1012 126.67 5.59254V6.63116C126.67 6.81758 126.777 6.9241 126.99 6.9241H129.227C129.413 6.9241 129.547 6.81758 129.547 6.63116V5.59254C129.547 2.52996 126.963 0.0266308 123.768 0.0266308H123.981C120.785 0.0266308 118.202 2.52996 118.202 5.59254V14.4607C118.202 17.5233 120.785 20 123.981 20H123.768Z" fill="white"/>
<path d="M139.748 2.87617C141.346 2.87617 142.651 4.07457 142.651 5.56591V14.4341C142.651 15.9254 141.346 17.1238 139.748 17.1238H137.218C135.62 17.1238 134.315 15.9254 134.315 14.4341V5.56591C134.315 4.07457 135.62 2.87617 137.218 2.87617H139.748ZM139.748 20C142.944 20 145.527 17.4967 145.527 14.4341V5.56591C145.527 2.50333 142.944 0 139.748 0H137.218C134.023 0 131.439 2.50333 131.439 5.56591V14.4341C131.439 17.4967 134.023 20 137.218 20H139.748Z" fill="white"/>
<path d="M159.98 20C160.166 20 160.246 19.9201 160.246 19.7337V17.3901C160.246 17.2037 160.166 17.1238 159.98 17.1238H150.473C150.286 17.1238 150.206 17.0439 150.206 16.8575V0.319575C150.206 0.133156 150.126 0.0532632 149.94 0.0532632H147.597C147.41 0.0532632 147.33 0.133156 147.33 0.319575V19.7337C147.33 19.9201 147.41 20 147.597 20H159.98Z" fill="white"/>
<path d="M168.185 20C168.398 20 168.505 19.8935 168.505 19.6804V17.4168C168.505 17.2304 168.372 17.0972 168.185 17.0972H165.921C165.708 17.0972 165.602 16.9907 165.602 16.8043V0.292944C165.602 0.106525 165.495 0 165.282 0H163.019C162.832 0 162.726 0.106525 162.726 0.292944V19.6804C162.726 19.8935 162.832 20 163.019 20H168.185Z" fill="white"/>
<path d="M173.403 3.19574C173.403 3.00932 173.51 2.9028 173.696 2.9028H183.417C183.603 2.9028 183.71 2.8229 183.71 2.63649V0.319575C183.71 0.133156 183.603 0.0532632 183.417 0.0532632H170.82C170.634 0.0532632 170.554 0.133156 170.554 0.319575V19.7071C170.554 19.8935 170.634 20 170.82 20H183.417C183.603 20 183.71 19.8935 183.71 19.7071V17.3901C183.71 17.2037 183.603 17.1238 183.417 17.1238H173.696C173.51 17.1238 173.403 17.0173 173.403 16.8309V12.9427C173.403 12.7563 173.51 12.6764 173.696 12.6764H180.434C180.62 12.6764 180.727 12.5699 180.727 12.3835V10.0666C180.727 9.88016 180.62 9.80027 180.434 9.80027H173.696C173.51 9.80027 173.403 9.69374 173.403 9.50732V3.19574Z" fill="white"/>
<path d="M194.415 19.9734C197.611 19.9734 200.194 17.4967 200.194 14.4341V13.4487C200.194 13.2889 200.114 13.2091 199.954 13.2091H197.531C197.398 13.2091 197.318 13.2889 197.318 13.4487V14.4341C197.318 15.8988 196.013 17.0972 194.415 17.0972H191.885C190.287 17.0972 188.982 15.8988 188.982 14.4341V5.56591C188.982 4.07457 190.287 2.87617 191.885 2.87617H194.415C196.013 2.87617 197.318 4.07457 197.318 5.56591V6.68442C197.318 6.81758 197.398 6.89747 197.531 6.89747H199.954C200.114 6.89747 200.194 6.81758 200.194 6.68442V5.56591C200.194 2.50333 197.611 0 194.415 0H191.885C188.689 0 186.106 2.50333 186.106 5.56591V14.4341C186.106 17.4967 188.689 19.9734 191.885 19.9734H194.415Z" fill="white"/>
<path d="M216.474 0.292944C216.474 0.106525 216.394 0.0266308 216.208 0.0266308H202.653C202.466 0.0266308 202.386 0.106525 202.386 0.292944V2.68975C202.386 2.87617 202.466 2.95606 202.653 2.95606H207.713C207.899 2.95606 207.979 3.03595 207.979 3.22237V19.7337C207.979 19.9201 208.059 20 208.245 20H210.642C210.828 20 210.908 19.9201 210.908 19.7337V3.22237C210.908 3.03595 210.988 2.95606 211.148 2.95606H216.208C216.394 2.95606 216.474 2.87617 216.474 2.68975V0.292944Z" fill="white"/>
<path d="M226.161 3.16911C226.161 2.98269 226.24 2.9028 226.427 2.9028H229.809C229.995 2.9028 230.075 2.8229 230.075 2.63649V0.292944C230.075 0.106525 229.995 0 229.809 0H219.609C219.423 0 219.343 0.106525 219.343 0.292944V2.63649C219.343 2.8229 219.423 2.9028 219.609 2.9028H222.991C223.178 2.9028 223.258 2.98269 223.258 3.16911V16.8309C223.258 17.0173 223.178 17.0972 222.991 17.0972H219.609C219.423 17.0972 219.343 17.2037 219.343 17.3901V19.7337C219.343 19.9201 219.423 20 219.609 20H229.809C229.995 20 230.075 19.9201 230.075 19.7337V17.3901C230.075 17.2037 229.995 17.0972 229.809 17.0972H226.427C226.24 17.0972 226.161 17.0173 226.161 16.8309V3.16911Z" fill="white"/>
<path d="M240.941 2.87617C242.539 2.87617 243.844 4.07457 243.844 5.56591V14.4341C243.844 15.9254 242.539 17.1238 240.941 17.1238H238.411C236.814 17.1238 235.509 15.9254 235.509 14.4341V5.56591C235.509 4.07457 236.814 2.87617 238.411 2.87617H240.941ZM240.941 20C244.137 20 246.72 17.4967 246.72 14.4341V5.56591C246.72 2.50333 244.137 0 240.941 0H238.411C235.216 0 232.633 2.50333 232.633 5.56591V14.4341C232.633 17.4967 235.216 20 238.411 20H240.941Z" fill="white"/>
<path d="M251.133 20C251.32 20 251.4 19.9201 251.4 19.7337V7.50999C251.4 7.21704 251.719 7.13715 251.906 7.3502C253.051 9.08123 254.143 10.6791 254.169 10.7057L254.223 10.759C254.489 11.1851 255.448 12.5166 256.406 13.9547C257.471 15.526 258.643 17.3635 259.442 18.3755C259.575 18.5619 259.682 19.2011 259.762 19.7337C259.762 19.9201 259.842 20 260.028 20L262.398 19.9734C262.585 19.9734 262.665 19.8935 262.665 19.7071V0.319575C262.665 0.133156 262.585 0.0532632 262.398 0.0532632H260.028C259.842 0.0532632 259.762 0.133156 259.762 0.319575V12.8895C259.762 13.1824 259.416 13.2623 259.282 13.0226C259.096 12.8096 258.963 12.5699 258.803 12.3302L256.539 9.05459C256.22 8.57523 252.944 3.75499 251.586 1.86418C251.453 1.65113 251.4 0.825566 251.4 0.319575C251.4 0.133156 251.32 0.0532632 251.133 0.0532632H248.79C248.603 0.0532632 248.523 0.133156 248.523 0.319575V19.7337C248.523 19.9201 248.603 20 248.79 20H251.133Z" fill="white"/>
<path d="M301.14 20C304.336 20 306.919 17.4967 306.919 14.4341C306.919 13.502 306.546 11.2383 305.108 10.5193L305.002 10.466L268.89 7.03063C268.757 7.00399 268.65 6.9241 268.597 6.81758C268.411 6.47137 268.277 5.91212 268.277 5.56591C268.277 4.1012 269.582 2.9028 271.18 2.9028H301.14C302.738 2.9028 304.043 4.1012 304.043 5.56591V6.55127C304.043 6.79095 304.176 6.9241 304.416 6.9241H306.573C306.813 6.9241 306.919 6.79095 306.919 6.55127V5.56591C306.919 2.50333 304.336 0 301.14 0H271.18C267.985 0 265.401 2.50333 265.401 5.56591C265.401 6.47137 265.907 8.6285 267.239 9.50732L267.319 9.56059L303.457 13.0226C303.59 13.0226 303.67 13.0759 303.75 13.2091C303.883 13.5553 304.043 14.1145 304.043 14.4341C304.043 15.9254 302.738 17.1238 301.14 17.1238H271.18C269.582 17.1238 268.277 15.9254 268.277 14.4341V13.3955C268.277 13.1558 268.171 13.0493 267.931 13.0493H265.748C265.508 13.0493 265.401 13.1558 265.401 13.3955V14.4341C265.401 17.4967 267.985 20 271.18 20H301.14Z" fill="white"/>
</svg>
