<svg width="211" height="20" viewBox="0 0 211 20" fill="none" xmlns="http://www.w3.org/2000/svg">
<path d="M35.739 20C38.9347 20 41.518 17.4967 41.518 14.4341C41.518 13.502 41.1451 11.2383 39.7071 10.5193L39.6005 10.466L3.48868 7.03063C3.35553 7.004 3.249 6.9241 3.19574 6.81758C3.00932 6.47137 2.87616 5.91212 2.87616 5.56591C2.87616 4.1012 4.18109 2.9028 5.77896 2.9028H35.739C37.3369 2.9028 38.6418 4.1012 38.6418 5.56591V6.55127C38.6418 6.79095 38.775 6.9241 39.0146 6.9241H41.1718C41.4114 6.9241 41.518 6.79095 41.518 6.55127V5.56591C41.518 2.50333 38.9347 0 35.739 0H5.77896C2.58322 0 0 2.50333 0 5.56591C0 6.47137 0.505992 8.6285 1.83755 9.50732L1.91744 9.56059L38.0559 13.0226C38.1891 13.0226 38.269 13.0759 38.3489 13.2091C38.482 13.5553 38.6418 14.1145 38.6418 14.4341C38.6418 15.9254 37.3369 17.1238 35.739 17.1238H5.77896C4.18109 17.1238 2.87616 15.9254 2.87616 14.4341V13.3955C2.87616 13.1558 2.76964 13.0493 2.52996 13.0493H0.346205C0.106525 13.0493 0 13.1558 0 13.3955V14.4341C0 17.4967 2.58322 20 5.77896 20H35.739Z" fill="white"/>
<path d="M46.4112 3.19574C46.4112 3.00932 46.5178 2.9028 46.7042 2.9028H56.4246C56.611 2.9028 56.7175 2.8229 56.7175 2.63649V0.319575C56.7175 0.133156 56.611 0.0532639 56.4246 0.0532639H43.828C43.6416 0.0532639 43.5617 0.133156 43.5617 0.319575V19.7071C43.5617 19.8935 43.6416 20 43.828 20H56.4246C56.611 20 56.7175 19.8935 56.7175 19.7071V17.3901C56.7175 17.2037 56.611 17.1238 56.4246 17.1238H46.7042C46.5178 17.1238 46.4112 17.0173 46.4112 16.8309V12.9427C46.4112 12.7563 46.5178 12.6764 46.7042 12.6764H53.4419C53.6283 12.6764 53.7348 12.5699 53.7348 12.3835V10.0666C53.7348 9.88016 53.6283 9.80027 53.4419 9.80027H46.7042C46.5178 9.80027 46.4112 9.69374 46.4112 9.50732V3.19574Z" fill="white"/>
<path d="M71.8163 20C72.0027 20 72.0826 19.9201 72.0826 19.7337V17.3901C72.0826 17.2037 72.0027 17.1238 71.8163 17.1238H62.309C62.1226 17.1238 62.0427 17.0439 62.0427 16.8575V0.319575C62.0427 0.133156 61.9628 0.0532639 61.7764 0.0532639H59.4328C59.2464 0.0532639 59.1665 0.133156 59.1665 0.319575V19.7337C59.1665 19.9201 59.2464 20 59.4328 20H71.8163Z" fill="white"/>
<path d="M76.9434 3.32889C76.9434 3.08921 77.05 2.98269 77.2896 2.98269H108.688C108.927 2.98269 109.034 2.87617 109.034 2.66312V0.479361C109.034 0.239681 108.927 0.133156 108.688 0.133156H74.4401C74.2004 0.133156 74.0939 0.239681 74.0939 0.479361V19.6538C74.0939 19.8935 74.2004 20 74.4401 20H108.688C108.927 20 109.034 19.8935 109.034 19.6538V17.47C109.034 17.257 108.927 17.1505 108.688 17.1505H77.2896C77.05 17.1505 76.9434 17.0439 76.9434 16.8043V13.0493C76.9434 12.8096 77.05 12.7031 77.2896 12.7031H105.732C105.945 12.7031 106.051 12.5965 106.051 12.3569V10.1731C106.051 9.96005 105.945 9.85353 105.732 9.85353H77.2896C77.05 9.85353 76.9434 9.747 76.9434 9.50732V3.32889Z" fill="white"/>
<path d="M117.292 20C120.488 20 123.071 17.5233 123.071 14.4607V13.5553C123.071 13.3688 122.938 13.2357 122.751 13.2357H120.514C120.328 13.2357 120.195 13.3688 120.195 13.5553V14.4607C120.195 15.9254 118.89 17.1238 117.292 17.1238H117.505C115.907 17.1238 114.602 15.9254 114.602 14.4607V5.59254C114.602 4.1012 115.907 2.9028 117.505 2.9028H117.292C118.89 2.9028 120.195 4.1012 120.195 5.59254V6.63116C120.195 6.81758 120.301 6.9241 120.514 6.9241H122.751C122.938 6.9241 123.071 6.81758 123.071 6.63116V5.59254C123.071 2.52996 120.488 0.026631 117.292 0.026631H117.505C114.309 0.026631 111.726 2.52996 111.726 5.59254V14.4607C111.726 17.5233 114.309 20 117.505 20H117.292Z" fill="white"/>
<path d="M134.158 0.399467C134.158 0.159787 134.051 0.0532639 133.812 0.0532639H126.142C125.902 0.0532639 125.796 0.159787 125.796 0.399467V2.58322C125.796 2.8229 125.902 2.92943 126.142 2.92943H128.193C128.432 2.92943 128.539 3.03595 128.539 3.27563V19.6538C128.539 19.8935 128.645 20 128.885 20H131.069C131.308 20 131.415 19.8935 131.415 19.6538V3.27563C131.415 3.03595 131.522 2.92943 131.761 2.92943H133.812C134.051 2.92943 134.158 2.8229 134.158 2.58322V0.399467Z" fill="white"/>
<path d="M147.131 20C147.318 20 147.398 19.9201 147.398 19.7337V7.50999C147.398 7.21704 147.717 7.13715 147.904 7.3502C149.049 9.08122 150.141 10.6791 150.167 10.7057L150.221 10.759C150.487 11.1851 151.446 12.5166 152.404 13.9547C153.47 15.526 154.641 17.3635 155.44 18.3755C155.573 18.5619 155.68 19.2011 155.76 19.7337C155.76 19.9201 155.84 20 156.026 20L158.396 19.9734C158.583 19.9734 158.663 19.8935 158.663 19.7071V0.319575C158.663 0.133156 158.583 0.0532639 158.396 0.0532639H156.026C155.84 0.0532639 155.76 0.133156 155.76 0.319575V12.8895C155.76 13.1824 155.414 13.2623 155.28 13.0226C155.094 12.8096 154.961 12.5699 154.801 12.3302L152.537 9.0546C152.218 8.57523 148.942 3.75499 147.584 1.86418C147.451 1.65113 147.398 0.825567 147.398 0.319575C147.398 0.133156 147.318 0.0532639 147.131 0.0532639H144.788C144.601 0.0532639 144.521 0.133156 144.521 0.319575V19.7337C144.521 19.9201 144.601 20 144.788 20H147.131Z" fill="white"/>
<path d="M164.276 3.16911C164.276 2.98269 164.382 2.9028 164.568 2.9028H199.109C199.295 2.9028 199.375 2.79627 199.375 2.60985V0.292944C199.375 0.106525 199.295 0 199.109 0H161.692C161.506 0 161.399 0.106525 161.399 0.292944V19.7071C161.399 19.8935 161.506 20 161.692 20H163.983C164.169 20 164.276 19.8935 164.276 19.7071V12.9694C164.276 12.783 164.382 12.6764 164.568 12.6764H196.1C196.286 12.6764 196.393 12.5965 196.393 12.4101V10.0932C196.393 9.90679 196.286 9.80027 196.1 9.80027H164.568C164.382 9.80027 164.276 9.69374 164.276 9.50732V3.16911Z" fill="white"/>
<path d="M210.801 0.399467C210.801 0.159787 210.694 0.0532639 210.454 0.0532639H202.785C202.545 0.0532639 202.438 0.159787 202.438 0.399467V2.58322C202.438 2.8229 202.545 2.92943 202.785 2.92943H204.835C205.075 2.92943 205.181 3.03595 205.181 3.27563V19.6538C205.181 19.8935 205.288 20 205.528 20H207.711C207.951 20 208.058 19.8935 208.058 19.6538V3.27563C208.058 3.03595 208.164 2.92943 208.404 2.92943H210.454C210.694 2.92943 210.801 2.8229 210.801 2.58322V0.399467Z" fill="white"/>
</svg>
