<svg width="288" height="20" viewBox="0 0 288 20" fill="none" xmlns="http://www.w3.org/2000/svg">
<path d="M8.30892 20C11.478 20 14.0613 17.5233 14.0613 14.4607C14.0613 13.5286 13.6352 11.2383 12.2503 10.5459L12.1438 10.4927L3.40879 7.08389L3.22237 6.9241C3.03595 6.60453 2.87616 5.99201 2.87616 5.59254C2.87616 4.12783 4.18109 2.92943 5.75233 2.92943H8.30892C9.88016 2.92943 11.1851 4.12783 11.1851 5.59254V6.63116C11.1851 6.81758 11.3182 6.95073 11.5047 6.95073H13.7417C13.9281 6.95073 14.0613 6.81758 14.0613 6.63116V5.59254C14.0613 2.52996 11.478 0.0532637 8.30892 0.0532637H5.75233C2.58322 0.0532637 0 2.52996 0 5.59254C0 6.498 0.505992 8.65513 1.83755 9.53396L1.91744 9.58722L10.6791 12.996C10.759 13.0226 10.8122 13.0759 10.8389 13.1558C11.0253 13.4754 11.1851 14.0612 11.1851 14.4607C11.1851 15.9254 9.88016 17.1238 8.30892 17.1238H5.75233C4.18109 17.1238 2.87616 15.9254 2.87616 14.4607V13.3955C2.87616 13.1824 2.76964 13.0759 2.55659 13.0759H0.319574C0.133156 13.0759 0 13.2091 0 13.3955V14.4607C0 17.5233 2.58322 20 5.75233 20H8.30892Z" fill="white"/>
<path d="M18.2197 3.19574C18.2197 3.00932 18.3262 2.9028 18.5126 2.9028H28.233C28.4194 2.9028 28.5259 2.8229 28.5259 2.63648V0.319575C28.5259 0.133156 28.4194 0.0532637 28.233 0.0532637H15.6364C15.45 0.0532637 15.3701 0.133156 15.3701 0.319575V19.7071C15.3701 19.8935 15.45 20 15.6364 20H28.233C28.4194 20 28.5259 19.8935 28.5259 19.7071V17.3901C28.5259 17.2037 28.4194 17.1238 28.233 17.1238H18.5126C18.3262 17.1238 18.2197 17.0173 18.2197 16.8309V12.9427C18.2197 12.7563 18.3262 12.6764 18.5126 12.6764H25.2503C25.4367 12.6764 25.5432 12.5699 25.5432 12.3835V10.0666C25.5432 9.88016 25.4367 9.80026 25.2503 9.80026H18.5126C18.3262 9.80026 18.2197 9.69374 18.2197 9.50732V3.19574Z" fill="white"/>
<path d="M43.6247 20C43.8112 20 43.8911 19.9201 43.8911 19.7337V17.3901C43.8911 17.2037 43.8112 17.1238 43.6247 17.1238H34.1174C33.931 17.1238 33.8511 17.0439 33.8511 16.8575V0.319575C33.8511 0.133156 33.7712 0.0532637 33.5848 0.0532637H31.2413C31.0548 0.0532637 30.9749 0.133156 30.9749 0.319575V19.7337C30.9749 19.9201 31.0548 20 31.2413 20H43.6247Z" fill="white"/>
<path d="M48.7519 3.32889C48.7519 3.08921 48.8584 2.98269 49.0981 2.98269H70.4962C70.7359 2.98269 70.8424 2.87617 70.8424 2.66312V0.479361C70.8424 0.23968 70.7359 0.133156 70.4962 0.133156H46.2485C46.0089 0.133156 45.9023 0.23968 45.9023 0.479361V19.6538C45.9023 19.8935 46.0089 20 46.2485 20H70.4962C70.7359 20 70.8424 19.8935 70.8424 19.6538V17.47C70.8424 17.257 70.7359 17.1505 70.4962 17.1505H49.0981C48.8584 17.1505 48.7519 17.0439 48.7519 16.8043V13.0493C48.7519 12.8096 48.8584 12.7031 49.0981 12.7031H67.5402C67.7532 12.7031 67.8597 12.5965 67.8597 12.3569V10.1731C67.8597 9.96005 67.7532 9.85353 67.5402 9.85353H49.0981C48.8584 9.85353 48.7519 9.747 48.7519 9.50732V3.32889Z" fill="white"/>
<path d="M81.2075 19.9734C84.4032 19.9734 86.9864 17.4967 86.9864 14.4341V13.4487C86.9864 13.2889 86.9065 13.2091 86.7467 13.2091H84.3233C84.1902 13.2091 84.1103 13.2889 84.1103 13.4487V14.4341C84.1103 15.8988 82.8053 17.0972 81.2075 17.0972H78.6775C77.0796 17.0972 75.7747 15.8988 75.7747 14.4341V5.56591C75.7747 4.07457 77.0796 2.87617 78.6775 2.87617H81.2075C82.8053 2.87617 84.1103 4.07457 84.1103 5.56591V6.68442C84.1103 6.81758 84.1902 6.89747 84.3233 6.89747H86.7467C86.9065 6.89747 86.9864 6.81758 86.9864 6.68442V5.56591C86.9864 2.50333 84.4032 0 81.2075 0H78.6775C75.4818 0 72.8985 2.50333 72.8985 5.56591V14.4341C72.8985 17.4967 75.4818 19.9734 78.6775 19.9734H81.2075Z" fill="white"/>
<path d="M103.267 0.292944C103.267 0.106525 103.187 0.0266303 103 0.0266303H89.4452C89.2588 0.0266303 89.1789 0.106525 89.1789 0.292944V2.68975C89.1789 2.87617 89.2588 2.95606 89.4452 2.95606H94.5052C94.6916 2.95606 94.7715 3.03595 94.7715 3.22237V19.7337C94.7715 19.9201 94.8514 20 95.0378 20H97.4346C97.621 20 97.7009 19.9201 97.7009 19.7337V3.22237C97.7009 3.03595 97.7808 2.95606 97.9406 2.95606H103C103.187 2.95606 103.267 2.87617 103.267 2.68975V0.292944Z" fill="white"/>
<path d="M121.258 19.9734C124.454 19.9734 127.037 17.4967 127.037 14.4341V13.4487C127.037 13.2889 126.957 13.2091 126.798 13.2091H124.374C124.241 13.2091 124.161 13.2889 124.161 13.4487V14.4341C124.161 15.8988 122.856 17.0972 121.258 17.0972H118.728C117.13 17.0972 115.825 15.8988 115.825 14.4341V5.56591C115.825 4.07457 117.13 2.87617 118.728 2.87617H121.258C122.856 2.87617 124.161 4.07457 124.161 5.56591V6.68442C124.161 6.81758 124.241 6.89747 124.374 6.89747H126.798C126.957 6.89747 127.037 6.81758 127.037 6.68442V5.56591C127.037 2.50333 124.454 0 121.258 0H118.728C115.533 0 112.949 2.50333 112.949 5.56591V14.4341C112.949 17.4967 115.533 19.9734 118.728 19.9734H121.258Z" fill="white"/>
<path d="M136.732 2.87617C138.33 2.87617 139.635 4.07457 139.635 5.56591V14.4341C139.635 15.9254 138.33 17.1238 136.732 17.1238H134.202C132.605 17.1238 131.3 15.9254 131.3 14.4341V5.56591C131.3 4.07457 132.605 2.87617 134.202 2.87617H136.732ZM136.732 20C139.928 20 142.511 17.4967 142.511 14.4341V5.56591C142.511 2.50333 139.928 0 136.732 0H134.202C131.007 0 128.423 2.50333 128.423 5.56591V14.4341C128.423 17.4967 131.007 20 134.202 20H136.732Z" fill="white"/>
<path d="M150.787 20C151 20 151.107 19.8935 151.107 19.6804V17.4168C151.107 17.2304 150.974 17.0972 150.787 17.0972H148.524C148.311 17.0972 148.204 16.9907 148.204 16.8043V0.292944C148.204 0.106525 148.098 0 147.885 0H145.621C145.435 0 145.328 0.106525 145.328 0.292944V19.6804C145.328 19.8935 145.435 20 145.621 20H150.787Z" fill="white"/>
<path d="M159.422 20C159.635 20 159.741 19.8935 159.741 19.6804V17.4168C159.741 17.2304 159.608 17.0972 159.422 17.0972H157.158C156.945 17.0972 156.838 16.9907 156.838 16.8043V0.292944C156.838 0.106525 156.732 0 156.519 0H154.255C154.069 0 153.962 0.106525 153.962 0.292944V19.6804C153.962 19.8935 154.069 20 154.255 20H159.422Z" fill="white"/>
<path d="M165.446 3.32889C165.446 3.08921 165.553 2.98269 165.792 2.98269H184.191C184.43 2.98269 184.537 2.87617 184.537 2.66312V0.479361C184.537 0.23968 184.43 0.133156 184.191 0.133156H162.943C162.703 0.133156 162.597 0.23968 162.597 0.479361V19.6538C162.597 19.8935 162.703 20 162.943 20H184.191C184.43 20 184.537 19.8935 184.537 19.6538V17.47C184.537 17.257 184.43 17.1505 184.191 17.1505H165.792C165.553 17.1505 165.446 17.0439 165.446 16.8043V13.0493C165.446 12.8096 165.553 12.7031 165.792 12.7031H181.234C181.448 12.7031 181.554 12.5965 181.554 12.3569V10.1731C181.554 9.96005 181.448 9.85353 181.234 9.85353H165.792C165.553 9.85353 165.446 9.747 165.446 9.50732V3.32889Z" fill="white"/>
<path d="M194.902 19.9734C198.098 19.9734 200.681 17.4967 200.681 14.4341V13.4487C200.681 13.2889 200.601 13.2091 200.441 13.2091H198.018C197.884 13.2091 197.805 13.2889 197.805 13.4487V14.4341C197.805 15.8988 196.5 17.0972 194.902 17.0972H192.372C190.774 17.0972 189.469 15.8988 189.469 14.4341V5.56591C189.469 4.07457 190.774 2.87617 192.372 2.87617H194.902C196.5 2.87617 197.805 4.07457 197.805 5.56591V6.68442C197.805 6.81758 197.884 6.89747 198.018 6.89747H200.441C200.601 6.89747 200.681 6.81758 200.681 6.68442V5.56591C200.681 2.50333 198.098 0 194.902 0H192.372C189.176 0 186.593 2.50333 186.593 5.56591V14.4341C186.593 17.4967 189.176 19.9734 192.372 19.9734H194.902Z" fill="white"/>
<path d="M216.961 0.292944C216.961 0.106525 216.881 0.0266303 216.695 0.0266303H203.14C202.953 0.0266303 202.873 0.106525 202.873 0.292944V2.68975C202.873 2.87617 202.953 2.95606 203.14 2.95606H208.199C208.386 2.95606 208.466 3.03595 208.466 3.22237V19.7337C208.466 19.9201 208.546 20 208.732 20H211.129C211.315 20 211.395 19.9201 211.395 19.7337V3.22237C211.395 3.03595 211.475 2.95606 211.635 2.95606H216.695C216.881 2.95606 216.961 2.87617 216.961 2.68975V0.292944Z" fill="white"/>
<path d="M226.647 3.16911C226.647 2.98269 226.727 2.9028 226.914 2.9028H230.296C230.482 2.9028 230.562 2.8229 230.562 2.63648V0.292944C230.562 0.106525 230.482 0 230.296 0H220.096C219.91 0 219.83 0.106525 219.83 0.292944V2.63648C219.83 2.8229 219.91 2.9028 220.096 2.9028H223.478C223.665 2.9028 223.745 2.98269 223.745 3.16911V16.8309C223.745 17.0173 223.665 17.0972 223.478 17.0972H220.096C219.91 17.0972 219.83 17.2037 219.83 17.3901V19.7337C219.83 19.9201 219.91 20 220.096 20H230.296C230.482 20 230.562 19.9201 230.562 19.7337V17.3901C230.562 17.2037 230.482 17.0972 230.296 17.0972H226.914C226.727 17.0972 226.647 17.0173 226.647 16.8309V3.16911Z" fill="white"/>
<path d="M263.997 2.87617C265.595 2.87617 266.9 4.07457 266.9 5.56591V14.4341C266.9 15.9254 265.595 17.1238 263.997 17.1238H239.496C237.899 17.1238 236.594 15.9254 236.594 14.4341V5.56591C236.594 4.07457 237.899 2.87617 239.496 2.87617H263.997ZM263.997 20C267.193 20 269.776 17.4967 269.776 14.4341V5.56591C269.776 2.4767 267.193 0 263.997 0H239.496C236.301 0 233.718 2.4767 233.718 5.56591V14.4341C233.718 17.4967 236.301 20 239.496 20H263.997Z" fill="white"/>
<path d="M275.521 20C275.707 20 275.787 19.9201 275.787 19.7337V7.50999C275.787 7.21704 276.106 7.13715 276.293 7.3502C277.438 9.08122 278.53 10.6791 278.556 10.7057L278.61 10.759C278.876 11.1851 279.835 12.5166 280.793 13.9547C281.859 15.526 283.031 17.3635 283.829 18.3755C283.963 18.5619 284.069 19.2011 284.149 19.7337C284.149 19.9201 284.229 20 284.415 20L286.786 19.9734C286.972 19.9734 287.052 19.8935 287.052 19.7071V0.319575C287.052 0.133156 286.972 0.0532637 286.786 0.0532637H284.415C284.229 0.0532637 284.149 0.133156 284.149 0.319575V12.8895C284.149 13.1824 283.803 13.2623 283.67 13.0226C283.483 12.8096 283.35 12.5699 283.19 12.3302L280.927 9.05459C280.607 8.57523 277.331 3.75499 275.973 1.86418C275.84 1.65113 275.787 0.825567 275.787 0.319575C275.787 0.133156 275.707 0.0532637 275.521 0.0532637H273.177C272.991 0.0532637 272.911 0.133156 272.911 0.319575V19.7337C272.911 19.9201 272.991 20 273.177 20H275.521Z" fill="white"/>
</svg>
