<svg width="305" height="20" viewBox="0 0 305 20" fill="none" xmlns="http://www.w3.org/2000/svg">
<path d="M35.6911 20C38.8826 20 41.4623 17.5 41.4623 14.4415C41.4623 13.5107 41.09 11.2501 39.6538 10.532L39.5474 10.4788L3.48401 7.04801C3.35103 7.02142 3.24465 6.94163 3.19145 6.83525C3.00529 6.48951 2.87231 5.931 2.87231 5.58526C2.87231 4.12251 4.17549 2.92572 5.77121 2.92572H35.6911C37.2868 2.92572 38.59 4.12251 38.59 5.58526V6.56929C38.59 6.80865 38.723 6.94163 38.9623 6.94163H41.1166C41.3559 6.94163 41.4623 6.80865 41.4623 6.56929V5.58526C41.4623 2.52678 38.8826 0.0268099 35.6911 0.0268099H5.77121C2.57976 0.0268099 0 2.52678 0 5.58526C0 6.48951 0.505314 8.64374 1.83509 9.52139L1.91487 9.57458L38.0049 13.032C38.1379 13.032 38.2177 13.0852 38.2975 13.2182C38.4304 13.5639 38.59 14.1224 38.59 14.4415C38.59 15.9309 37.2868 17.1277 35.6911 17.1277H5.77121C4.17549 17.1277 2.87231 15.9309 2.87231 14.4415V13.4043C2.87231 13.165 2.76593 13.0586 2.52657 13.0586H0.345741C0.106382 13.0586 0 13.165 0 13.4043V14.4415C0 17.5 2.57976 20 5.77121 20H35.6911Z" fill="white"/>
<path d="M46.1672 3.35124C46.1672 3.11188 46.2736 3.0055 46.513 3.0055H77.869C78.1084 3.0055 78.2147 2.89912 78.2147 2.68636V0.505528C78.2147 0.266169 78.1084 0.159787 77.869 0.159787H43.6672C43.4279 0.159787 43.3215 0.266169 43.3215 0.505528V19.6543C43.3215 19.8936 43.4279 20 43.6672 20H77.869C78.1084 20 78.2147 19.8936 78.2147 19.6543V17.4734C78.2147 17.2607 78.1084 17.1543 77.869 17.1543H46.513C46.2736 17.1543 46.1672 17.0479 46.1672 16.8085V13.0586C46.1672 12.8192 46.2736 12.7128 46.513 12.7128H74.9169C75.1297 12.7128 75.2361 12.6065 75.2361 12.3671V10.1863C75.2361 9.97351 75.1297 9.86713 74.9169 9.86713H46.513C46.2736 9.86713 46.1672 9.76075 46.1672 9.52139V3.35124Z" fill="white"/>
<path d="M90.2411 0.425741C90.2411 0.186382 90.1347 0.0800017 89.8954 0.0800017H82.2359C81.9965 0.0800017 81.8901 0.186382 81.8901 0.425741V2.60657C81.8901 2.84593 81.9965 2.95231 82.2359 2.95231H84.2837C84.5231 2.95231 84.6294 3.05869 84.6294 3.29805V19.6543C84.6294 19.8936 84.7358 20 84.9752 20H87.156C87.3954 20 87.5018 19.8936 87.5018 19.6543V3.29805C87.5018 3.05869 87.6081 2.95231 87.8475 2.95231H89.8954C90.1347 2.95231 90.2411 2.84593 90.2411 2.60657V0.425741Z" fill="white"/>
<path d="M117.133 20C120.324 20 122.931 17.5 122.931 14.4415V0.319361C122.931 0.133192 122.824 0.053405 122.638 0.053405H120.324C120.138 0.053405 120.032 0.133192 120.032 0.319361V14.4415C120.032 15.9043 118.729 17.1277 117.133 17.1277H106.362C104.74 17.1277 103.436 15.9043 103.436 14.4415V0.319361C103.436 0.133192 103.357 0.053405 103.17 0.053405H100.857C100.67 0.053405 100.564 0.133192 100.564 0.319361V14.4415C100.564 17.5 103.17 20 106.362 20H117.133Z" fill="white"/>
<path d="M125.721 0.053405H125.295C125.136 0.053405 125.056 0.133192 125.056 0.319361V19.734C125.056 19.9202 125.136 20 125.295 20H127.636C127.822 20 127.901 19.9202 127.901 19.734V13.1384C127.901 12.9522 128.008 12.8458 128.194 12.8458H133.034C136.119 12.8458 138.619 10.4522 138.619 7.50013V5.3725C138.619 2.4204 136.119 -0.0263803 133.034 0.000214781L125.721 0.053405ZM135.721 7.50013C135.721 8.8565 134.524 9.97351 133.034 9.97351H128.194C128.008 9.97351 127.901 9.89373 127.901 9.70756V3.16507C127.901 2.97891 128.008 2.89912 128.194 2.89912H133.034C134.524 2.89912 135.721 4.01613 135.721 5.3725V7.50013Z" fill="white"/>
<path d="M156.651 19.9734C159.842 19.9734 162.422 17.5 162.422 14.4415V13.4575C162.422 13.2979 162.342 13.2182 162.182 13.2182H159.762C159.629 13.2182 159.549 13.2979 159.549 13.4575V14.4415C159.549 15.9043 158.246 17.1011 156.651 17.1011H154.124C152.528 17.1011 151.225 15.9043 151.225 14.4415V5.58526C151.225 4.09591 152.528 2.89912 154.124 2.89912H156.651C158.246 2.89912 159.549 4.09591 159.549 5.58526V6.70227C159.549 6.83525 159.629 6.91503 159.762 6.91503H162.182C162.342 6.91503 162.422 6.83525 162.422 6.70227V5.58526C162.422 2.52678 159.842 0.0268099 156.651 0.0268099H154.124C150.933 0.0268099 148.353 2.52678 148.353 5.58526V14.4415C148.353 17.5 150.933 19.9734 154.124 19.9734H156.651Z" fill="white"/>
<path d="M177.66 20C177.847 20 177.926 19.9202 177.926 19.734V17.3936C177.926 17.2075 177.847 17.1277 177.66 17.1277H168.166C167.98 17.1277 167.9 17.0479 167.9 16.8617V0.345956C167.9 0.159787 167.82 0.0800017 167.634 0.0800017H165.293C165.107 0.0800017 165.028 0.159787 165.028 0.345956V19.734C165.028 19.9202 165.107 20 165.293 20H177.66Z" fill="white"/>
<path d="M192.635 9.04267C191.146 5.55867 189.55 1.94168 189.098 0.90446L188.779 0.186382C188.752 0.106597 188.673 0.053405 188.566 0.053405H186.784C186.678 0.053405 186.598 0.106597 186.545 0.186382L186.226 0.90446C185.774 1.94168 184.204 5.55867 182.715 9.04267C181.678 11.4629 180.667 13.8299 179.976 15.3458C179.417 16.5958 179.338 18.1383 179.338 19.734C179.338 19.8936 179.417 19.9734 179.577 19.9734L181.97 20L182.077 19.9202C182.157 19.8404 182.21 19.8404 182.21 19.7606C182.21 18.9362 182.29 17.3405 182.635 16.516C182.768 16.2234 182.875 15.9043 183.061 15.5586C183.087 15.4522 183.167 15.399 183.3 15.399H192.05C192.157 15.399 192.236 15.4522 192.263 15.5586C192.449 15.9043 192.555 16.2234 192.688 16.516C193.087 17.3671 193.114 18.4841 193.114 19.7606C193.114 19.9202 193.194 20 193.38 20H195.747C195.933 20 196.013 19.9202 196.013 19.7606C196.013 18.1649 195.933 16.7022 195.348 15.3458L192.635 9.04267ZM184.763 12.5001C184.577 12.5001 184.444 12.3405 184.524 12.1543C184.816 11.516 185.082 10.8778 185.375 10.1597L187.423 5.3725C187.529 5.15973 187.821 5.15973 187.901 5.3725C188.513 6.78206 189.258 8.48417 189.976 10.1863C190.268 10.8512 190.508 11.516 190.8 12.1543C190.88 12.3405 190.774 12.5001 190.587 12.5001H184.763Z" fill="white"/>
<path d="M204.223 3.19167C204.223 3.0055 204.302 2.92572 204.489 2.92572H207.866C208.052 2.92572 208.132 2.84593 208.132 2.65976V0.319361C208.132 0.133192 208.052 0.0268099 207.866 0.0268099H197.68C197.494 0.0268099 197.414 0.133192 197.414 0.319361V2.65976C197.414 2.84593 197.494 2.92572 197.68 2.92572H201.058C201.244 2.92572 201.324 3.0055 201.324 3.19167V16.8351C201.324 17.0213 201.244 17.1011 201.058 17.1011H197.68C197.494 17.1011 197.414 17.2075 197.414 17.3936V19.734C197.414 19.9202 197.494 20 197.68 20H207.866C208.052 20 208.132 19.9202 208.132 19.734V17.3936C208.132 17.2075 208.052 17.1011 207.866 17.1011H204.489C204.302 17.1011 204.223 17.0213 204.223 16.8351V3.19167Z" fill="white"/>
<path d="M236.283 0.425741C236.283 0.239574 236.123 0.053405 235.911 0.053405H233.756C233.544 0.053405 233.411 0.159787 233.384 0.399146C233.384 0.798078 233.384 1.14382 233.198 1.32999L233.224 1.54275L224.342 9.78734C224.262 9.86713 224.182 9.89373 224.102 9.89373H223.969C223.889 9.89373 223.81 9.86713 223.73 9.78734L214.475 1.56935V1.40977C214.342 1.19701 214.289 0.771483 214.289 0.372551C214.289 0.133192 214.156 0.0268099 213.916 0.0268099H211.762C211.523 0.0268099 211.39 0.133192 211.39 0.372551V19.6543C211.39 19.8936 211.523 20 211.762 20H213.916C214.156 20 214.289 19.8936 214.289 19.6543V6.19696V5.9576C214.289 5.63845 214.661 5.47888 214.9 5.69164L222.666 12.6065C222.719 12.6597 222.799 12.6862 222.905 12.6862H225.219C225.299 12.6862 225.379 12.6597 225.459 12.5799L232.799 5.77143C233.012 5.55867 233.384 5.69164 233.384 6.01079L233.411 6.14377V19.6011C233.411 19.8404 233.517 19.9734 233.756 19.9734H235.911C236.15 19.9734 236.283 19.8404 236.283 19.6011V0.425741Z" fill="white"/>
<path d="M245.648 3.19167C245.648 3.0055 245.728 2.92572 245.914 2.92572H249.292C249.478 2.92572 249.558 2.84593 249.558 2.65976V0.319361C249.558 0.133192 249.478 0.0268099 249.292 0.0268099H239.106C238.919 0.0268099 238.84 0.133192 238.84 0.319361V2.65976C238.84 2.84593 238.919 2.92572 239.106 2.92572H242.483C242.669 2.92572 242.749 3.0055 242.749 3.19167V16.8351C242.749 17.0213 242.669 17.1011 242.483 17.1011H239.106C238.919 17.1011 238.84 17.2075 238.84 17.3936V19.734C238.84 19.9202 238.919 20 239.106 20H249.292C249.478 20 249.558 19.9202 249.558 19.734V17.3936C249.558 17.2075 249.478 17.1011 249.292 17.1011H245.914C245.728 17.1011 245.648 17.0213 245.648 16.8351V3.19167Z" fill="white"/>
<path d="M253.991 20C254.177 20 254.257 19.9202 254.257 19.734V7.52673C254.257 7.23418 254.576 7.15439 254.762 7.36716C255.906 9.09586 256.996 10.6916 257.023 10.7182L257.076 10.7714C257.342 11.1969 258.3 12.5267 259.257 13.9628C260.321 15.532 261.491 17.367 262.289 18.3777C262.422 18.5638 262.528 19.2021 262.608 19.734C262.608 19.9202 262.688 20 262.874 20L265.241 19.9734C265.427 19.9734 265.507 19.8936 265.507 19.7075V0.345956C265.507 0.159787 265.427 0.0800017 265.241 0.0800017H262.874C262.688 0.0800017 262.608 0.159787 262.608 0.345956V12.899C262.608 13.1916 262.262 13.2713 262.129 13.032C261.943 12.8192 261.81 12.5799 261.651 12.3405L259.39 9.06927C259.071 8.59055 255.8 3.77677 254.443 1.88849C254.31 1.67573 254.257 0.85127 254.257 0.345956C254.257 0.159787 254.177 0.0800017 253.991 0.0800017H251.651C251.465 0.0800017 251.385 0.159787 251.385 0.345956V19.734C251.385 19.9202 251.465 20 251.651 20H253.991Z" fill="white"/>
<path d="M303.798 6.96823C304.038 6.96823 304.144 6.86184 304.144 6.62248V5.61186C304.144 2.57997 301.564 0.0800017 298.399 0.0800017H273.985C270.82 0.0800017 268.24 2.57997 268.24 5.61186V14.4681C268.24 17.5266 270.82 20 273.985 20H298.399C301.564 20 304.144 17.5266 304.144 14.4681V10.2661C304.144 10.0267 304.038 9.92032 303.798 9.92032H286.538C286.298 9.92032 286.192 10.0267 286.192 10.2661V12.4203C286.192 12.6597 286.298 12.7926 286.538 12.7926H300.926C301.165 12.7926 301.272 12.899 301.272 13.1384V14.4681C301.272 15.9309 299.969 17.1277 298.399 17.1277H273.985C272.389 17.1277 271.112 15.9309 271.112 14.4681V5.61186C271.112 4.14911 272.389 2.95231 273.985 2.95231H298.399C299.969 2.95231 301.272 4.14911 301.272 5.61186V6.62248C301.272 6.86184 301.378 6.96823 301.617 6.96823H303.798Z" fill="white"/>
</svg>
