<svg width="327" height="20" viewBox="0 0 327 20" fill="none" xmlns="http://www.w3.org/2000/svg">
<path d="M35.6911 20C38.8826 20 41.4623 17.5 41.4623 14.4415C41.4623 13.5107 41.09 11.2501 39.6538 10.532L39.5475 10.4788L3.48401 7.04801C3.35103 7.02142 3.24465 6.94163 3.19146 6.83525C3.00529 6.48951 2.87231 5.931 2.87231 5.58526C2.87231 4.12251 4.17549 2.92572 5.77121 2.92572H35.6911C37.2868 2.92572 38.59 4.12251 38.59 5.58526V6.56929C38.59 6.80865 38.723 6.94163 38.9623 6.94163H41.1166C41.3559 6.94163 41.4623 6.80865 41.4623 6.56929V5.58526C41.4623 2.52678 38.8826 0.0268099 35.6911 0.0268099H5.77121C2.57976 0.0268099 0 2.52678 0 5.58526C0 6.48951 0.505314 8.64374 1.83509 9.52139L1.91487 9.57458L38.0049 13.032C38.1379 13.032 38.2177 13.0852 38.2975 13.2182C38.4304 13.5639 38.59 14.1224 38.59 14.4415C38.59 15.9309 37.2868 17.1277 35.6911 17.1277H5.77121C4.17549 17.1277 2.87231 15.9309 2.87231 14.4415V13.4043C2.87231 13.165 2.76593 13.0586 2.52657 13.0586H0.345741C0.106382 13.0586 0 13.165 0 13.4043V14.4415C0 17.5 2.57976 20 5.77121 20H35.6911Z" fill="white"/>
<path d="M46.1672 3.35124C46.1672 3.11188 46.2736 3.0055 46.513 3.0055H77.869C78.1084 3.0055 78.2148 2.89912 78.2148 2.68636V0.505528C78.2148 0.266169 78.1084 0.159787 77.869 0.159787H43.6673C43.4279 0.159787 43.3215 0.266169 43.3215 0.505528V19.6543C43.3215 19.8936 43.4279 20 43.6673 20H77.869C78.1084 20 78.2148 19.8936 78.2148 19.6543V17.4734C78.2148 17.2607 78.1084 17.1543 77.869 17.1543H46.513C46.2736 17.1543 46.1672 17.0479 46.1672 16.8085V13.0586C46.1672 12.8192 46.2736 12.7128 46.513 12.7128H74.9169C75.1297 12.7128 75.2361 12.6065 75.2361 12.3671V10.1863C75.2361 9.97351 75.1297 9.86713 74.9169 9.86713H46.513C46.2736 9.86713 46.1672 9.76075 46.1672 9.52139V3.35124Z" fill="white"/>
<path d="M90.2411 0.425741C90.2411 0.186382 90.1347 0.0800017 89.8954 0.0800017H82.2359C81.9965 0.0800017 81.8901 0.186382 81.8901 0.425741V2.60657C81.8901 2.84593 81.9965 2.95231 82.2359 2.95231H84.2837C84.5231 2.95231 84.6294 3.05869 84.6294 3.29805V19.6543C84.6294 19.8936 84.7358 20 84.9752 20H87.156C87.3954 20 87.5018 19.8936 87.5018 19.6543V3.29805C87.5018 3.05869 87.6081 2.95231 87.8475 2.95231H89.8954C90.1347 2.95231 90.2411 2.84593 90.2411 2.60657V0.425741Z" fill="white"/>
<path d="M117.133 20C120.325 20 122.931 17.5 122.931 14.4415V0.319361C122.931 0.133192 122.824 0.053405 122.638 0.053405H120.325C120.138 0.053405 120.032 0.133192 120.032 0.319361V14.4415C120.032 15.9043 118.729 17.1277 117.133 17.1277H106.362C104.74 17.1277 103.436 15.9043 103.436 14.4415V0.319361C103.436 0.133192 103.357 0.053405 103.17 0.053405H100.857C100.67 0.053405 100.564 0.133192 100.564 0.319361V14.4415C100.564 17.5 103.17 20 106.362 20H117.133Z" fill="white"/>
<path d="M125.721 0.053405H125.295C125.136 0.053405 125.056 0.133192 125.056 0.319361V19.734C125.056 19.9202 125.136 20 125.295 20H127.636C127.822 20 127.902 19.9202 127.902 19.734V13.1384C127.902 12.9522 128.008 12.8458 128.194 12.8458H133.034C136.12 12.8458 138.619 10.4522 138.619 7.50013V5.3725C138.619 2.4204 136.12 -0.0263803 133.034 0.000214781L125.721 0.053405ZM135.721 7.50013C135.721 8.8565 134.524 9.97351 133.034 9.97351H128.194C128.008 9.97351 127.902 9.89373 127.902 9.70756V3.16507C127.902 2.97891 128.008 2.89912 128.194 2.89912H133.034C134.524 2.89912 135.721 4.01613 135.721 5.3725V7.50013Z" fill="white"/>
<path d="M155.161 3.19167C155.161 3.0055 155.241 2.92572 155.427 2.92572H158.805C158.991 2.92572 159.071 2.84593 159.071 2.65976V0.319361C159.071 0.133192 158.991 0.0268099 158.805 0.0268099H148.619C148.433 0.0268099 148.353 0.133192 148.353 0.319361V2.65976C148.353 2.84593 148.433 2.92572 148.619 2.92572H151.996C152.183 2.92572 152.262 3.0055 152.262 3.19167V16.8351C152.262 17.0213 152.183 17.1011 151.996 17.1011H148.619C148.433 17.1011 148.353 17.2075 148.353 17.3936V19.734C148.353 19.9202 148.433 20 148.619 20H158.805C158.991 20 159.071 19.9202 159.071 19.734V17.3936C159.071 17.2075 158.991 17.1011 158.805 17.1011H155.427C155.241 17.1011 155.161 17.0213 155.161 16.8351V3.19167Z" fill="white"/>
<path d="M163.504 20C163.69 20 163.77 19.9202 163.77 19.734V7.52673C163.77 7.23418 164.089 7.15439 164.276 7.36716C165.419 9.09586 166.51 10.6916 166.536 10.7182L166.589 10.7714C166.855 11.1969 167.813 12.5267 168.77 13.9628C169.834 15.532 171.004 17.3671 171.802 18.3777C171.935 18.5638 172.041 19.2021 172.121 19.734C172.121 19.9202 172.201 20 172.387 20L174.754 19.9734C174.94 19.9734 175.02 19.8936 175.02 19.7075V0.345956C175.02 0.159787 174.94 0.0800017 174.754 0.0800017H172.387C172.201 0.0800017 172.121 0.159787 172.121 0.345956V12.899C172.121 13.1916 171.775 13.2713 171.643 13.032C171.456 12.8192 171.323 12.5799 171.164 12.3405L168.903 9.06927C168.584 8.59055 165.313 3.77677 163.956 1.88849C163.823 1.67573 163.77 0.85127 163.77 0.345956C163.77 0.159787 163.69 0.0800017 163.504 0.0800017H161.164C160.978 0.0800017 160.898 0.159787 160.898 0.345956V19.734C160.898 19.9202 160.978 20 161.164 20H163.504Z" fill="white"/>
<path d="M180.626 3.19167C180.626 3.0055 180.732 2.92572 180.918 2.92572H215.412C215.599 2.92572 215.678 2.81933 215.678 2.63316V0.319361C215.678 0.133192 215.599 0.0268099 215.412 0.0268099H178.046C177.86 0.0268099 177.753 0.133192 177.753 0.319361V19.7075C177.753 19.8936 177.86 20 178.046 20H180.333C180.519 20 180.626 19.8936 180.626 19.7075V12.9788C180.626 12.7926 180.732 12.6863 180.918 12.6863H212.407C212.593 12.6863 212.7 12.6065 212.7 12.4203V10.1065C212.7 9.92032 212.593 9.81394 212.407 9.81394H180.918C180.732 9.81394 180.626 9.70756 180.626 9.52139V3.19167Z" fill="white"/>
<path d="M235.306 20C238.498 20 241.104 17.5 241.104 14.4415V0.319361C241.104 0.133192 240.998 0.053405 240.811 0.053405H238.498C238.312 0.053405 238.205 0.133192 238.205 0.319361V14.4415C238.205 15.9043 236.902 17.1277 235.306 17.1277H224.535C222.913 17.1277 221.61 15.9043 221.61 14.4415V0.319361C221.61 0.133192 221.53 0.053405 221.344 0.053405H219.03C218.844 0.053405 218.737 0.133192 218.737 0.319361V14.4415C218.737 17.5 221.344 20 224.535 20H235.306Z" fill="white"/>
<path d="M251.735 20C254.899 20 257.479 17.5266 257.479 14.4681C257.479 13.5373 257.054 11.2501 255.671 10.5586L255.564 10.5054L246.841 7.1012L246.655 6.94163C246.469 6.62248 246.309 6.01079 246.309 5.61186C246.309 4.14911 247.612 2.95231 249.181 2.95231H251.735C253.304 2.95231 254.607 4.14911 254.607 5.61186V6.64908C254.607 6.83525 254.74 6.96823 254.926 6.96823H257.16C257.346 6.96823 257.479 6.83525 257.479 6.64908V5.61186C257.479 2.55338 254.899 0.0800017 251.735 0.0800017H249.181C246.017 0.0800017 243.437 2.55338 243.437 5.61186C243.437 6.5161 243.942 8.67033 245.272 9.54799L245.352 9.60118L254.102 13.0054C254.181 13.032 254.234 13.0852 254.261 13.165C254.447 13.4841 254.607 14.0692 254.607 14.4681C254.607 15.9309 253.304 17.1277 251.735 17.1277H249.181C247.612 17.1277 246.309 15.9309 246.309 14.4681V13.4043C246.309 13.1916 246.203 13.0852 245.99 13.0852H243.756C243.57 13.0852 243.437 13.2182 243.437 13.4043V14.4681C243.437 17.5266 246.017 20 249.181 20H251.735Z" fill="white"/>
<path d="M266.244 3.19167C266.244 3.0055 266.324 2.92572 266.51 2.92572H269.888C270.074 2.92572 270.154 2.84593 270.154 2.65976V0.319361C270.154 0.133192 270.074 0.0268099 269.888 0.0268099H259.702C259.515 0.0268099 259.436 0.133192 259.436 0.319361V2.65976C259.436 2.84593 259.515 2.92572 259.702 2.92572H263.079C263.265 2.92572 263.345 3.0055 263.345 3.19167V16.8351C263.345 17.0213 263.265 17.1011 263.079 17.1011H259.702C259.515 17.1011 259.436 17.2075 259.436 17.3936V19.734C259.436 19.9202 259.515 20 259.702 20H269.888C270.074 20 270.154 19.9202 270.154 19.734V17.3936C270.154 17.2075 270.074 17.1011 269.888 17.1011H266.51C266.324 17.1011 266.244 17.0213 266.244 16.8351V3.19167Z" fill="white"/>
<path d="M303.544 2.89912C305.139 2.89912 306.443 4.09591 306.443 5.58526V14.4415C306.443 15.9309 305.139 17.1277 303.544 17.1277H279.076C277.48 17.1277 276.177 15.9309 276.177 14.4415V5.58526C276.177 4.09591 277.48 2.89912 279.076 2.89912H303.544ZM303.544 20C306.735 20 309.315 17.5 309.315 14.4415V5.58526C309.315 2.50019 306.735 0.0268099 303.544 0.0268099H279.076C275.884 0.0268099 273.305 2.50019 273.305 5.58526V14.4415C273.305 17.5 275.884 20 279.076 20H303.544Z" fill="white"/>
<path d="M315.052 20C315.238 20 315.318 19.9202 315.318 19.734V7.52673C315.318 7.23418 315.637 7.15439 315.823 7.36716C316.967 9.09586 318.057 10.6916 318.084 10.7182L318.137 10.7714C318.403 11.1969 319.36 12.5267 320.318 13.9628C321.381 15.532 322.552 17.3671 323.349 18.3777C323.482 18.5638 323.589 19.2021 323.669 19.734C323.669 19.9202 323.748 20 323.935 20L326.302 19.9734C326.488 19.9734 326.568 19.8936 326.568 19.7075V0.345956C326.568 0.159787 326.488 0.0800017 326.302 0.0800017H323.935C323.748 0.0800017 323.669 0.159787 323.669 0.345956V12.899C323.669 13.1916 323.323 13.2713 323.19 13.032C323.004 12.8192 322.871 12.5799 322.711 12.3405L320.451 9.06927C320.131 8.59055 316.86 3.77677 315.504 1.88849C315.371 1.67573 315.318 0.85127 315.318 0.345956C315.318 0.159787 315.238 0.0800017 315.052 0.0800017H312.711C312.525 0.0800017 312.445 0.159787 312.445 0.345956V19.734C312.445 19.9202 312.525 20 312.711 20H315.052Z" fill="white"/>
</svg>
