<svg width="32" height="24" viewBox="0 0 32 24" fill="none" xmlns="http://www.w3.org/2000/svg">
<path d="M27.3257 5.55429C27.3257 5.23429 27.2114 4.96 26.9829 4.73143C26.7543 4.50286 26.48 4.38857 26.16 4.38857H0V0H27.7714V2.84571C27.7714 3.16571 27.8857 3.44 28.1143 3.66857C28.3429 3.89714 28.6171 4.01143 28.9371 4.01143H31.68V10.3543H29.52C29.04 10.3543 28.6286 10.5257 28.2857 10.8686C27.9429 11.2114 27.7714 11.6229 27.7714 12.1029C27.7714 12.5829 27.9429 12.9943 28.2857 13.3371C28.6286 13.68 29.04 13.8514 29.52 13.8514H31.68V20.1257H28.9371C28.6171 20.1257 28.3429 20.24 28.1143 20.4686C27.8857 20.6971 27.7714 20.9714 27.7714 21.2914V24L0 23.9657V19.68H26.16C26.48 19.68 26.7543 19.5657 26.9829 19.3371C27.2114 19.1086 27.3257 18.8343 27.3257 18.5143V16.0114C27.3257 15.5314 27.1543 15.12 26.8114 14.7771C26.4914 14.4343 26.0914 14.2629 25.6114 14.2629H3.90857V9.94286H25.6114C26.0914 9.94286 26.4914 9.77143 26.8114 9.42857C27.1543 9.08571 27.3257 8.67428 27.3257 8.19429V5.55429Z" fill="#BCFF67"/>
</svg>
